<ttFont>
          <CharString index="0">
            -2 callgsubr
            -227 8 -212 -53 -208 124 -43 104 51 callsubr
            48 61 callgsubr
            -42 -56 -12 -73 hhcurveto
            -103 -66 callgsubr
            2 16 19 vvcurveto
            19 7 247 -38 callgsubr
            123 7 41 46 98 hhcurveto
            138 8 -145 -24 hvcurveto
            -292 hlineto
            return
          </CharString>
          <CharString index="1">
            45 -99 callsubr
            -99 callgsubr
            46 70 rlineto
            return
          </CharString>
          <CharString index="2">
            -205 -104 -115 -227 -227 104 -115 205 return
          </CharString>
          <CharString index="3">
            -226 7 -212 -52 -208 124 -44 104 72 58 12 24 49 hvcurveto
            73 vlineto
            -25 -43 -56 -12 -72 hhcurveto
            -103 -50 43 101 -20 callgsubr
            15 19 vvcurveto
            20 7 246 -38 callgsubr
            return
          </CharString>
          <CharString index="4">
            -75 72 -140 vhcurveto
            143 -358 rmoveto
            -76 -71 -15 -62 -62 -75 15 return
          </CharString>
          <CharString index="5">
            rmoveto
            -86 -55 31 -49 -35 -24 -28 -9 -23 -1 rlinecurve
            103 -72 -26 callsubr
            -43 -47 -94 -93 -44 47 101 vhcurveto
            293 -72 -290 vlineto
            -138 76 -80 133 133 76 80 138 vhcurveto
            145 vlineto
            28 38 11 30 46 hvcurveto
            0 83 53 0 vhcurveto
            -54 86 rlineto
            return
          </CharString>
          <CharString index="6">
            68 -421 -667 421 68 -349 231 307 70 -307 230 return
          </CharString>
          <CharString index="7">
            -32 callsubr
            -94 216 -93 -117 rrcurveto
            -57 vlineto
            93 118 -49 callgsubr
            return
          </CharString>
          <CharString index="8">
            -70 -87 callsubr
            -81 -57 callsubr
            return
          </CharString>
          <CharString index="9">
            rmoveto
            55 vlineto
            -95 -117 -93 216 -94 -117 rrcurveto
            -57 vlineto
            94 118 93 -216 95 118 rrcurveto
            return
          </CharString>
          <CharString index="10">
            283 5 callgsubr
            -107 -127 -45 -213 -34 callgsubr
            213 -128 45 -107 hvcurveto
            -450 vmoveto
            -113 -49 -17 callgsubr
            49 58 113 -84 callgsubr
            return
          </CharString>
          <CharString index="11">
            rmoveto
            -34 callgsubr
            213 -128 45 -107 -107 -127 -45 -213 vhcurveto
            72 hmoveto
            -62 callsubr
            40 callgsubr
            vhcurveto
            return
          </CharString>
          <CharString index="12">
            114 49 -58 -134 -134 -49 -58 -114 return
          </CharString>
          <CharString index="13">
            rmoveto
            41 27 14 9 13 hvcurveto
            -113 -12 -84 -8 -31 hhcurveto
            -18 -16 3 4 -14 hvcurveto
            -36 vlineto
            -4 15 18 -3 20 hhcurveto
            49 114 19 180 112 -41 56 -81 -90 -32 -65 -56 -69 47 -43 75 hvcurveto
            197 vmoveto
            25 57 0 -131 1 hvcurveto
            -9 -9 -26 -21 -48 hhcurveto
            -54 -29 27 49 20 6 65 77 hvcurveto
            endchar
          </CharString>
          <CharString index="14">
            hstem
            -101 callgsubr
            return
          </CharString>
          <CharString index="15">
            79 -50 -86 40 -121 hhcurveto
            -105 callsubr
            206 -61 callsubr
            73 -11 return
          </CharString>
          <CharString index="16">
            -120 -87 callsubr
            return
          </CharString>
          <CharString index="17">
            -21 callgsubr
            189 73 85 164 165 73 -85 -189 -190 -73 -84 -165 hvcurveto
            endchar
          </CharString>
          <CharString index="18">
            151 vlineto
            -102 callgsubr
            return
          </CharString>
          <CharString index="19">
            -107 -8 67 193 -31 callgsubr
            return
          </CharString>
          <CharString index="20">
            rlineto
            56 hlineto
            return
          </CharString>
          <CharString index="21">
            60 callgsubr
            39 -39 66 vhcurveto
            return
          </CharString>
          <CharString index="22">
            rmoveto
            -79 -79 79 79 hlineto
            return
          </CharString>
          <CharString index="23">
            -20 -93 callsubr
            return
          </CharString>
          <CharString index="24">
            rmoveto
            -562 vlineto
            -398 562 rlineto
            -82 -667 72 562 hlineto
            399 -562 rlineto
            81 667 -72 hlineto
            return
          </CharString>
          <CharString index="25">
            -37 -38 -28 -20 -52 hvcurveto
            -41 -37 39 hlineto
            hintmask 11100100
            65 36 -24 -45 -44 -35 -25 -64 hvcurveto
            hintmask 11110000
            -38 -31 12 12 -22 hvcurveto
            -40 vlineto
            -12 25 32 -10 39 hhcurveto
            hintmask 11100100
            97 35 55 51 66 -64 26 0 hvcurveto
            endchar
          </CharString>
          <CharString index="26">
            122 122 -48 62 -93 hvcurveto
            -332 vmoveto
            -48 -55 17 131 131 55 17 48 47 55 -17 -131 -131 -55 -17 -47 hvcurveto
            endchar
          </CharString>
          <CharString index="27">
            -136 76 rmoveto
            46 39 9 33 33 39 -9 -46 -38 -27 -23 -45 -45 -27 23 38 vhcurveto
            72 -238 rmoveto
            return
          </CharString>
          <CharString index="28">
            83 -115 rlineto
            48 hlineto
            return
          </CharString>
          <CharString index="29">
            724 rmoveto
            -75 callgsubr
            148 hmoveto
            -75 callgsubr
            return
          </CharString>
          <CharString index="30">
            -57 callgsubr
            26 64 hvcurveto
            68 -33 callgsubr
            85 189 hvcurveto
            endchar
          </CharString>
          <CharString index="31">
            rmoveto
            -68 callsubr
            return
          </CharString>
          <CharString index="32">
            76 0 68 235 60 237 67 hstem
            131 72 378 72 vstem
            340 -13 callgsubr
            -209 -304 -78 -60 78 -303 209 hlineto
            -51 callgsubr
            -5 -599 rmoveto
            -132 235 171 60 -171 237 -56 callsubr
            endchar
          </CharString>
          <CharString index="33">
            -4 callsubr
            -70 -45 70 -10 callgsubr
            return
          </CharString>
          <CharString index="34">
            -9 hvcurveto
            364 hlineto
            0 return
          </CharString>
          <CharString index="35">
            -296 -172 -21 185 41 callsubr
            hintmask 11111000
            183 433 rmoveto
            hintmask 11110100
            129 66 hlineto
            hintmask 11111000
            21 callgsubr
            hintmask 11110100
            7 callgsubr
            hintmask 11111000
            -53 -19 19 50 hvcurveto
            return
          </CharString>
          <CharString index="36">
            rmoveto
            -41 -27 -14 -9 -30 callgsubr
            36 vlineto
            4 -15 -18 3 -19 hhcurveto
            -50 -114 -19 -180 -112 41 -56 81 90 32 65 56 69 -47 43 -75 hvcurveto
            -197 vmoveto
            -25 -57 0 131 -1 hvcurveto
            9 9 26 21 48 hhcurveto
            54 29 -27 -49 -20 -6 -65 -77 hvcurveto
            endchar
          </CharString>
          <CharString index="37">
            -59 callgsubr
            -25 47 64 -22 85 hhcurveto
            return
          </CharString>
          <CharString index="38">
            rmoveto
            42 hlineto
            80 121 -10 callgsubr
            -45 -71 -45 71 -10 callgsubr
            80 -121 rlineto
            return
          </CharString>
          <CharString index="39">
            -79 callsubr
            -57 -67 callsubr
            return
          </CharString>
          <CharString index="40">
            115 rlineto
            return
          </CharString>
          <CharString index="41">
            -32 callsubr
            -93 216 -94 -117 rrcurveto
            -57 vlineto
            94 118 93 -46 callsubr
            return
          </CharString>
          <CharString index="42">
            rmoveto
            189 153 153 188 189 -153 153 -189 -188 -154 -153 -189 -188 154 -153 188 hvcurveto
            648 vmoveto
            169 137 -138 -169 -168 -137 -138 -169 -168 -138 138 168 169 138 138 168 hvcurveto
            return
          </CharString>
          <CharString index="43">
            6 21 -21 208 69 return
          </CharString>
          <CharString index="44">
            0 -40 -134 -69 -19 -15 4 5 -9 vhcurveto
            -67 vlineto
            -3 65 callgsubr
            24 119 44 hvcurveto
            204 549 rlineto
            -77 hlineto
            endchar
          </CharString>
          <CharString index="45">
            134 48 58 114 -95 callsubr
            return
          </CharString>
          <CharString index="46">
            104 115 227 return
          </CharString>
          <CharString index="47">
            255 5 callgsubr
            -62 -51 -13 -13 -37 hvcurveto
            -70 vlineto
            7 19 55 17 72 hhcurveto
            90 56 -30 -94 0 -35 5 -45 -46 -215 1 -165 return
          </CharString>
          <CharString index="48">
            -57 48 -20 0 vhcurveto
            hintmask 11110001
            0 -61 -21 -66 vvcurveto
            -51 32 -60 92 91 33 60 51 65 -60 return
          </CharString>
          <CharString index="49">
            70 vlineto
            -19 -44 -47 -9 -49 hhcurveto
            -119 -51 56 133 return
          </CharString>
          <CharString index="50">
            120 rlineto
            return
          </CharString>
          <CharString index="51">
            132 hlineto
            170 76 -82 -184 -184 -76 -82 -170 hvcurveto
            return
          </CharString>
          <CharString index="52">
            -86 -8 72 143 64 169 68 return
          </CharString>
          <CharString index="53">
            32 callsubr
            59 callgsubr
            return
          </CharString>
          <CharString index="54">
            -74 hlineto
            -79 callsubr
            return
          </CharString>
          <CharString index="55">
            -20 hstem
            668 499 rmoveto
            -127 -386 -116 386 rlineto
            -69 hlineto
            -115 -386 -127 386 rlineto
            -76 hlineto
            166 -499 rlineto
            73 hlineto
            114 373 114 -373 rlineto
            73 hlineto
            166 499 rlineto
            -76 hlineto
            return
          </CharString>
          <CharString index="56">
            9 callgsubr
            hintmask 11110000
            183 433 rmoveto
            hintmask 11101000
            129 66 hlineto
            hintmask 11110000
            21 callgsubr
            hintmask 11101000
            -7 callsubr
            return
          </CharString>
          <CharString index="57">
            -74 -196 rlineto
            72 hlineto
            84 196 rlineto
            -82 hlineto
            return
          </CharString>
          <CharString index="58">
            -73 29 callgsubr
            597 57 callsubr
            313 -49 -95 callgsubr
            -301 716 17 callgsubr
            return
          </CharString>
          <CharString index="59">
            -98 callgsubr
            endchar
          </CharString>
          <CharString index="60">
            132 51 57 119 49 47 -10 -18 44 vhcurveto
            69 vlineto
            return
          </CharString>
          <CharString index="61">
            -216 94 118 rrcurveto
            return
          </CharString>
          <CharString index="62">
            67 111 hvcurveto
            255 -368 -81 146 vvcurveto
            endchar
          </CharString>
          <CharString index="63">
            -8 -31 callsubr
            return
          </CharString>
          <CharString index="64">
            -60 callsubr
            -141 144 -20 65 65 140 20 138 hvcurveto
            return
          </CharString>
          <CharString index="65">
            80 -74 callsubr
            return
          </CharString>
          <CharString index="66">
            hintmask 11100000
            -65 -15 -34 -87 -2 vhcurveto
            -67 vlineto
            117 57 54 110 hvcurveto
            528 vlineto
            hintmask 11010000
            -72 return
          </CharString>
          <CharString index="67">
            -29 callgsubr
            -66 237 hstemhm
            -29 callsubr
            hintmask 11011000
            return
          </CharString>
          <CharString index="68">
            -26 callgsubr
            398 72 vstem
            return
          </CharString>
          <CharString index="69">
            vhcurveto
            -54 vlineto
            44 10 return
          </CharString>
          <CharString index="70">
            rmoveto
            -39 202 vlineto
            -156 -320 rlineto
            43 hlineto
            155 322 rlineto
            37 -244 vlineto
            endchar
          </CharString>
          <CharString index="71">
            rmoveto
            -60 -53 -16 -16 -38 hvcurveto
            213 -72 -689 72 406 vlineto
            14 34 51 16 58 hhcurveto
            87 41 -45 -95 hvcurveto
            -296 72 296 vlineto
            135 -70 77 -122 vhcurveto
            endchar
          </CharString>
          <CharString index="72">
            rmoveto
            -18 callsubr
            148 hmoveto
            72 callgsubr
          </CharString>
          <CharString index="73">
            74 58 40 107 68 54 -21 -21 38 vhcurveto
            74 vlineto
            return
          </CharString>
          <CharString index="74">
            26 vvcurveto
            53 -50 15 -42 vhcurveto
            return
          </CharString>
          <CharString index="75">
            rmoveto
            55 vlineto
            -94 -117 return
          </CharString>
          <CharString index="76">
            68 548 68 return
          </CharString>
          <CharString index="77">
            206 -76 callsubr
            return
          </CharString>
          <CharString index="78">
            49 -3 callgsubr
            return
          </CharString>
          <CharString index="79">
            8 callsubr
            7 9 1 11 hhcurveto
            29 18 -9 -17 -10 -53 callgsubr
            16 22 26 vvcurveto
            53 -49 15 -42 vhcurveto
            return
          </CharString>
          <CharString index="80">
            rmoveto
            0 46 19 54 vvcurveto
            46 -31 50 -88 -33 -27 -8 -10 -22 vhcurveto
            -39 vlineto
            10 19 26 return
          </CharString>
          <CharString index="81">
            -293 vlineto
            -101 return
          </CharString>
          <CharString index="82">
            114 68 52 87 hvcurveto
            196 -267 -62 98 vvcurveto
            endchar
          </CharString>
          <CharString index="83">
            177 -190 -177 -191 rlineto
            96 hlineto
            170 191 -170 190 rlineto
            return
          </CharString>
          <CharString index="84">
            rmoveto
            -73 callgsubr
            return
          </CharString>
          <CharString index="85">
            -77 -29 callgsubr
            return
          </CharString>
          <CharString index="86">
            -40 -17 -16 -40 vhcurveto
            return
          </CharString>
          <CharString index="87">
            97 hhcurveto
            138 8 -145 return
          </CharString>
          <CharString index="88">
            rmoveto
            0 47 18 58 vvcurveto
            45 -29 48 -82 -81 -29 -48 -45 -56 48 -20 0 vhcurveto
            return
          </CharString>
          <CharString index="89">
            79 79 -79 -79 hlineto
            return
          </CharString>
          <CharString index="90">
            -21 667 -26 callgsubr
            vstem
            279 355 rmoveto
            286 312 rlineto
            -97 hlineto
            -309 -344 rlineto
            344 -72 -667 72 224 vlineto
            return
          </CharString>
          <CharString index="91">
            -129 141 -72 -141 -87 -66 87 return
          </CharString>
          <CharString index="92">
            45 callgsubr
            -69 callgsubr
            return
          </CharString>
          <CharString index="93">
            33 callsubr
            endchar
          </CharString>
          <CharString index="94">
            30 callgsubr
            -4 callgsubr
            return
          </CharString>
          <CharString index="95">
            2 callsubr
            296 29 -29 72 return
          </CharString>
          <CharString index="96">
            rmoveto
            -26 callsubr
            return
          </CharString>
          <CharString index="97">
            65 36 -25 -44 -45 -35 -24 -63 -39 -31 12 11 -22 hvcurveto
            -39 vlineto
            -12 25 32 -11 39 hhcurveto
            98 34 55 52 66 -64 25 0 hvcurveto
            return
          </CharString>
          <CharString index="98">
            rmoveto
            -174 -89 -115 -227 -227 89 -115 174 175 88 115 227 227 -88 115 -175 hvcurveto
            return
          </CharString>
          <CharString index="99">
            -64 -47 hvcurveto
            -325 72 325 vlineto
            116 -72 67 -126 vhcurveto
            return
          </CharString>
          <CharString index="100">
            25 22 5 7 19 hvcurveto
            68 vlineto
            -7 return
          </CharString>
          <CharString index="101">
            2 callsubr
            237 233 -72 72 return
          </CharString>
          <CharString index="102">
            36 -8 69 232 70 244 69 return
          </CharString>
          <CharString index="103">
            -18 callgsubr
            -45 return
          </CharString>
          <CharString index="104">
            36 215 -20 hstem
            203 39 vstem
            242 return
          </CharString>
          <CharString index="105">
            40 17 16 40 hvcurveto
            48 hlineto
            -65 -39 -39 -66 vhcurveto
            101 235 rmoveto
            -74 hlineto
            -57 -115 rlineto
            48 hlineto
            83 -67 callsubr
            return
          </CharString>
          <CharString index="106">
            vstem
            557 -13 callgsubr
            -397 vlineto
            -143 -65 -70 -134 -134 -65 70 143 vhcurveto
            397 -72 -393 vlineto
            return
          </CharString>
          <CharString index="107">
            -20 hstem
            92 72 vstem
            273 270 rmoveto
            213 229 rlineto
            return
          </CharString>
          <CharString index="108">
            36 98 36 161 36 hstem
            49 39 166 39 vstem
            171 return
          </CharString>
          <CharString index="109">
            hstemhm
            61 72 return
          </CharString>
          <CharString index="110">
            -164 -73 85 190 189 73 85 164 165 73 -85 -189 -190 -73 -85 -165 hvcurveto
            endchar
          </CharString>
          <CharString index="111">
            hstem
            -29 callsubr
            vstem
            return
          </CharString>
          <CharString index="112">
            63 256 rmoveto
            -230 137 -34 82 190 15 120 37 vhcurveto
            540 -72 -201 vlineto
            13 -40 -41 return
          </CharString>
          <CharString index="113">
            39 285 39 hstemhm
            57 217 -39 39 hintmask 11100000
            117 return
          </CharString>
          <CharString index="114">
            rmoveto
            80 79 -80 -79 hlineto
            148 hmoveto
            80 79 -80 -79 hlineto
            return
          </CharString>
          <CharString index="115">
            rmoveto
            -11 -11 36 callsubr
            return
          </CharString>
          <CharString index="116">
            hstemhm
            49 72 195 37 -37 72 return
          </CharString>
          <CharString index="117">
            48 -48 104 hstemhm
            return
          </CharString>
          <CharString index="118">
            rlineto
            -234 return
          </CharString>
          <CharString index="119">
            -41 callgsubr
            vstem
            87 hmoveto
            72 667 -72 -667 hlineto
            return
          </CharString>
          <CharString index="120">
            hstem
            82 72 return
          </CharString>
          <CharString index="121">
            22 callsubr
            45 70 46 -99 callsubr
            return
          </CharString>
          <CharString index="122">
            -137 -127 -137 233 -137 -127 rrcurveto
            -60 vlineto
            137 127 137 return
          </CharString>
          <CharString index="123">
            hstemhm
            53 210 -39 39 -20 38 hintmask 11101000
            217 return
          </CharString>
          <CharString index="124">
            37 152 38 97 39 hstem
            242 38 vstem
            73 return
          </CharString>
          <CharString index="125">
            3 52 -34 -21 295 52 -26 52 239 52 3 -20 hstemhm
            71 55 179 55 return
          </CharString>
          <CharString index="126">
            249 -361 rlineto
            -306 72 306 vlineto
            248 361 rlineto
            -87 hlineto
            endchar
          </CharString>
          <CharString index="127">
            -85 callsubr
            endchar
          </CharString>
          <CharString index="128">
            rmoveto
            -60 hlineto
            -29 -3 43 callsubr
          </CharString>
          <CharString index="129">
            684 rmoveto
            -99 callgsubr
            return
          </CharString>
          <CharString index="130">
            vstem
            159 hmoveto
            -72 667 72 -667 hlineto
            return
          </CharString>
          <CharString index="131">
            -45 16 117 117 45 return
          </CharString>
          <CharString index="132">
            -17 -19 hhcurveto
            -14 -12 8 27 return
          </CharString>
          <CharString index="133">
            -45 -39 -27 -23 -45 -45 -27 23 39 vhcurveto
            72 -238 rmoveto
            hintmask 11110010
            -79 -7 return
          </CharString>
          <CharString index="134">
            72 152 vlineto
            62 67 192 -219 rlineto
            95 hlineto
            -240 270 rlineto
            return
          </CharString>
          <CharString index="135">
            -20 hstem
            125 38 vstem
            119 return
          </CharString>
          <CharString index="136">
            32 callgsubr
            hstem
            return
          </CharString>
          <CharString index="137">
            -79 -6 57 17 43 30 63 callgsubr
            return
          </CharString>
          <CharString index="138">
            -139 -193 66 return
          </CharString>
          <CharString index="139">
            30 18 -10 -17 -9 return
          </CharString>
          <CharString index="140">
            -74 callsubr
            80 -120 rlineto
            return
          </CharString>
          <CharString index="141">
            rmoveto
            48 hlineto
            17 201 rlineto
            -83 hlineto
            18 -201 rlineto
            endchar
          </CharString>
          <CharString index="142">
            69 vlineto
            -120 -96 -37 -11 -26 hvcurveto
            return
          </CharString>
          <CharString index="143">
            -1 -2 -9 hvcurveto
            -43 vlineto
            1 return
          </CharString>
          <CharString index="144">
            -20 31 -20 hstemhm
            123 39 return
          </CharString>
          <CharString index="145">
            -4 36 -33 -21 195 36 return
          </CharString>
          <CharString index="146">
            51 callgsubr
            73 return
          </CharString>
          <CharString index="147">
            21 52 callgsubr
            return
          </CharString>
          <CharString index="148">
            68 373 24 callgsubr
            return
          </CharString>
          <CharString index="149">
            -9 67 608 44 13 callsubr
            160 48 66 72 vstem
            return
          </CharString>
          <CharString index="150">
            -46 -37 -15 -38 callsubr
            56 38 96 vvcurveto
            endchar
          </CharString>
          <CharString index="151">
            67 182 -20 hstem
            83 72 280 72 vstem
            278 return
          </CharString>
          <CharString index="152">
            22 callgsubr
            -45 -71 return
          </CharString>
          <CharString index="153">
            69 callsubr
            -36 39 hlineto
            return
          </CharString>
          <CharString index="154">
            hstemhm
            3 174 -72 72 hintmask 11010000
            return
          </CharString>
          <CharString index="155">
            564 rmoveto
            -18 callsubr
            return
          </CharString>
          <CharString index="156">
            57 37 34 40 9 vhcurveto
            -31 hlineto
            return
          </CharString>
          <CharString index="157">
            79 80 -79 -80 hlineto
            return
          </CharString>
          <CharString index="158">
            71 59 12 23 return
          </CharString>
          <CharString index="159">
            320 rmoveto
            -64 hlineto
            -419 -667 rlineto
            64 hlineto
            return
          </CharString>
          <CharString index="160">
            -10 hvcurveto
            -43 vlineto
            1 8 2 callgsubr
            30 18 return
          </CharString>
          <CharString index="161">
            18 -47 -50 10 -51 hhcurveto
            -107 -127 -45 -213 return
          </CharString>
          <CharString index="162">
            -114 -49 58 134 return
          </CharString>
          <CharString index="163">
            -32 0 72 523 72 return
          </CharString>
          <CharString index="164">
            70 hstem
            248 72 vstem
            return
          </CharString>
          <CharString index="165">
            -43 -17 -6 -57 -79 hvcurveto
            return
          </CharString>
          <CharString index="166">
            hvcurveto
            -44 vlineto
            2 return
          </CharString>
          <CharString index="167">
            56 72 269 return
          </CharString>
          <CharString index="168">
            -43 21 -21 839 -20 hstem
            261 72 vstem
            return
          </CharString>
          <CharString index="169">
            839 rmoveto
            -53 callsubr
            return
          </CharString>
          <CharString index="170">
            -14 vhcurveto
            -55 vlineto
            44 11 56 return
          </CharString>
          <CharString index="171">
            -120 0 70 597 -20 return
          </CharString>
          <CharString index="172">
            hstem
            61 72 475 72 vstem
            return
          </CharString>
          <CharString index="173">
            -39 -17 -17 -40 vhcurveto
            return
          </CharString>
          <CharString index="174">
            -21 115 -20 hstem
            return
          </CharString>
          <CharString index="175">
            rmoveto
            18 callgsubr
            return
          </CharString>
          <CharString index="176">
            55 30 -21 -37 -37 -28 -21 -52 hvcurveto
            -41 return
          </CharString>
          <CharString index="177">
            736 -46 callgsubr
            return
          </CharString>
          <CharString index="178">
            rmoveto
            233 53 -233 -53 hlineto
            endchar
          </CharString>
        <CharString name=".notdef">
          -141 endchar
        </CharString>
        <CharString name="A">
          -64 callsubr
          390 -84 callsubr
          endchar
        </CharString>
        <CharString name="AE">
          306 0 69 140 72 17 70 230 69 hstem
          478 72 vstem
          550 598 rmoveto
          337 69 -466 hlineto
          -396 -667 rlineto
          83 hlineto
          123 209 rlineto
          247 -209 409 69 -337 229 296 70 -296 230 hlineto
          -72 -317 rmoveto
          -205 hlineto
          183 314 rlineto
          22 -314 hlineto
          endchar
        </CharString>
        <CharString name="AEacute">
          306 0 70 139 72 17 70 229 70 -70 242 hstemhm
          477 72 hintmask 11101100
          548 839 rmoveto
          -57 -115 rlineto
          48 -11 callgsubr
          1 -242 rmoveto
          337 hlineto
          hintmask 11110100
          70 -465 vlineto
          -396 -667 rlineto
          84 hlineto
          122 209 rlineto
          246 -209 409 70 -337 228 296 70 -296 229 hlineto
          -72 -316 rmoveto
          -205 hlineto
          184 314 rlineto
          21 -314 hlineto
          endchar
        </CharString>
        <CharString name="Aacute">
          -64 callsubr
          562 -20 hstem
          21 hmoveto
          78 hlineto
          80 208 rlineto
          288 hlineto
          80 -208 rlineto
          77 hlineto
          -65 callgsubr
          -72 hlineto
          -266 -667 rlineto
          185 277 rmoveto
          117 305 117 -305 11 callsubr
          hlineto
          151 562 -70 callgsubr
        </CharString>
        <CharString name="Abreve">
          -64 callsubr
          428 48 -48 104 38 callgsubr
          hintmask 11011000
          -101 callgsubr
          174 532 rmoveto
          hintmask 11101000
          66 callsubr
          hintmask 11011000
          -40 -17 17 39 -86 callsubr
          hintmask 11010100
          -73 callgsubr
          endchar
        </CharString>
        <CharString name="Abreveacute">
          -64 callsubr
          526 131 hstemhm
          218 210 -48 48 hintmask 11110000
          323 699 rmoveto
          -66 -39 39 65 hvcurveto
          48 hlineto
          -40 17 -16 40 vhcurveto
          hintmask 11101000
          -2 callsubr
          -65 -267 -107 callgsubr
          endchar
        </CharString>
        <CharString name="Abrevedotbelow">
          6 -129 79 71 -21 208 69 422 48 -48 104 38 callgsubr
          -145 79 hintmask 11101101
          362 -50 -85 callsubr
          -39 749 rmoveto
          hintmask 11101010
          -73 callgsubr
          hintmask 11110101
          -21 callsubr
          hintmask 11101101
          -40 -17 16 40 -86 callsubr
          36 -32 -107 callgsubr
          endchar
        </CharString>
        <CharString name="Abrevegrave">
          -64 callsubr
          422 48 -48 104 -104 235 38 callgsubr
          hintmask 11010010
          323 699 -23 callsubr
          hintmask 11100100
          -21 callsubr
          hintmask 11010100
          -40 -17 16 40 -86 callsubr
          hintmask 11001100
          -102 235 -76 callsubr
          64 -267 -107 callgsubr
          endchar
        </CharString>
        <CharString name="Abrevehookabove">
          -64 callsubr
          422 48 -48 104 -104 172 50 44 38 callgsubr
          -84 48 hintmask 1101010100000000
          323 699 -23 callsubr
          hintmask 1110011010000000
          -21 callsubr
          hintmask 1101011010000000
          -40 -17 16 40 -86 callsubr
          -22 266 8 callsubr
          7 9 1 11 hhcurveto
          29 18 -9 -17 hvcurveto
          hintmask 1100111010000000
          62 callgsubr
          6 16 22 26 vvcurveto
          53 -49 15 -42 vhcurveto
          58 -298 -107 callgsubr
          endchar
        </CharString>
        <CharString name="Abrevetilde">
          -64 callsubr
          422 48 -48 104 38 callgsubr
          hintmask 11010100
          463 875 -66 callsubr
          -140 -176 -23 callsubr
          hintmask 11101000
          -21 callsubr
          hintmask 11011000
          -40 -17 16 40 -86 callsubr
          36 -32 -107 callgsubr
          endchar
        </CharString>
        <CharString name="Acaron">
          -64 callsubr
          568 -84 callsubr
          96 447 -69 callsubr
          endchar
        </CharString>
        <CharString name="Acircumflex">
          6 21 -21 845 -84 callsubr
          138 568 rmoveto
          -42 hlineto
          -80 -121 -68 callgsubr
          121 rlineto
          endchar
        </CharString>
        <CharString name="Acircumflexacute">
          -64 callsubr
          636 -20 hstem
          323 777 -86 callgsubr
          -156 -246 -107 callgsubr
          endchar
        </CharString>
        <CharString name="Acircumflexdotbelow">
          6 -128 79 70 -21 827 -20 hstem
          283 79 vstem
          362 -49 -85 callsubr
          -39 826 -105 callgsubr
          36 -110 -107 callgsubr
          endchar
        </CharString>
        <CharString name="Acircumflexgrave">
          -64 callsubr
          636 -20 hstem
          322 777 -80 callgsubr
          155 -246 -107 callgsubr
          endchar
        </CharString>
        <CharString name="Acircumflexhookabove">
          -64 callsubr
          430 131 50 44 hstem
          437 49 vstem
          323 -61 callgsubr
          71 155 rmoveto
          -11 -11 4 callgsubr
          8 2 callgsubr
          29 -62 callgsubr
          17 22 -33 callsubr
          -35 -265 -107 callgsubr
          endchar
        </CharString>
        <CharString name="Acircumflextilde">
          6 21 -21 hstem
          466 872 -98 callsubr
          -144 -101 -105 callgsubr
          37 -104 -107 callgsubr
          endchar
        </CharString>
        <CharString name="Acute">
          -405 745 67 callsubr
          117 839 -70 callgsubr
        </CharString>
        <CharString name="Adieresis">
          -64 callsubr
          447 80 hstem
          209 80 68 80 vstem
          209 -78 callsubr
          2 -57 -107 callgsubr
          endchar
        </CharString>
        <CharString name="Adotaccent">
          -64 callsubr
          447 80 hstem
          283 80 vstem
          -101 callgsubr
          157 527 rmoveto
          -80 -80 80 80 hlineto
          endchar
        </CharString>
        <CharString name="Adotbelow">
          6 -129 79 71 -21 208 69 390 -20 hstem
          283 79 vstem
          362 -50 -85 callsubr
          -3 717 -107 callgsubr
          endchar
        </CharString>
        <CharString name="Agrave">
          -64 callsubr
          562 -84 callsubr
          82 562 rmoveto
          -67 callgsubr
        </CharString>
        <CharString name="Ahookabove">
          -64 callsubr
          549 44 hstem
          345 49 vstem
          302 870 rmoveto
          -11 -11 4 callgsubr
          8 2 callgsubr
          29 -62 callgsubr
          17 22 -33 callsubr
          57 -203 -107 callgsubr
          endchar
        </CharString>
        <CharString name="Amacron">
          -64 callsubr
          459 53 -93 callsubr
          459 vmoveto
          234 53 -234 -53 hlineto
          endchar
        </CharString>
        <CharString name="Aogonek">
          6 -173 44 150 -21 208 69 390 -20 hstem
          477 68 vstem
          615 -99 rmoveto
          -13 -10 -15 25 callsubr
          46 79 48 0 hvcurveto
          -65 callgsubr
          -72 hlineto
          -266 -667 rlineto
          78 hlineto
          80 208 rlineto
          288 hlineto
          80 -208 rlineto
          0 -70 -48 -61 vvcurveto
          -59 40 -5 26 57 36 34 40 10 vhcurveto
          -31 hlineto
          -409 376 rmoveto
          117 305 117 -305 11 callsubr
          hlineto
          endchar
        </CharString>
        <CharString name="Aring">
          -64 callsubr
          418 34 97 33 hstem
          242 36 90 36 vstem
          -101 callgsubr
          117 582 -47 callgsubr
          -130 vmoveto
          -33 -12 13 35 35 12 14 33 32 13 -14 -35 -35 -13 -13 -32 hvcurveto
          endchar
        </CharString>
        <CharString name="Atilde">
          -64 callsubr
          hstem
          463 745 -66 callsubr
          -104 -78 -107 callgsubr
          endchar
        </CharString>
        <CharString name="B">
          -20 0 67 243 68 220 69 hstemhm
          87 72 299 72 -32 32 -32 72 hintmask 11110100
          459 355 rmoveto
          0 71 36 97 vvcurveto
          97 -49 82 -173 vhcurveto
          -221 -667 241 hlineto
          hintmask 11110010
          150 92 56 133 133 -111 33 0 hvcurveto
          -125 -288 rmoveto
          -175 243 172 hlineto
          78 89 -10 -107 -107 -78 -19 -86 hvcurveto
          hintmask 11111000
          124 416 rmoveto
          -94 -69 -11 -65 vhcurveto
          -165 220 156 hlineto
          89 54 -24 -91 hvcurveto
          endchar
        </CharString>
        <CharString name="C">
          -13 -44 callsubr
          hstem
          61 72 vstem
          133 334 rmoveto
          189 76 85 169 68 65 -14 -26 62 vhcurveto
          69 vlineto
          26 -64 -68 13 -71 hhcurveto
          -105 callsubr
          70 69 13 25 64 hvcurveto
          69 -33 callgsubr
          84 190 hvcurveto
          endchar
        </CharString>
        <CharString name="Cacute">
          -13 -44 callsubr
          -68 232 2 callsubr
          hintmask 10110000
          389 840 rmoveto
          -57 -115 rlineto
          48 -11 callgsubr
          -256 -506 68 callsubr
          -26 61 vhcurveto
          69 vlineto
          hintmask 11010000
          -57 callgsubr
          25 64 hvcurveto
          69 -33 callgsubr
          84 190 hvcurveto
          endchar
        </CharString>
        <CharString name="Caron">
          -235 745 -21 121 -20 hstem
          181 724 -69 callsubr
          endchar
        </CharString>
        <CharString name="Ccaron">
          -13 -6 -31 callsubr
          -68 234 2 callsubr
          hintmask 10110000
          341 724 rmoveto
          41 hlineto
          81 -4 callsubr
          -71 -46 71 -10 callgsubr
          81 -120 rlineto
          -208 -388 68 callsubr
          -25 61 vhcurveto
          68 vlineto
          hintmask 11010000
          -77 callsubr
        </CharString>
        <CharString name="Ccedilla">
          -13 -119 181 -68 68 547 68 2 callsubr
          hintmask 01110000
          378 609 rmoveto
          68 66 -13 -26 61 hvcurveto
          69 vlineto
          25 -64 -68 13 -71 hhcurveto
          -205 -104 -115 -227 -216 95 -114 186 -11 hvcurveto
          hintmask 10110000
          -80 -113 rlineto
          76 hlineto
          hintmask 01110000
          61 113 60 3 59 13 55 22 rlinecurve
          69 -33 callgsubr
          84 190 189 76 84 169 hvcurveto
          endchar
        </CharString>
        <CharString name="Ccircumflex">
          -13 -6 -31 callsubr
          0 46 120 -20 2 callsubr
          hintmask 10111000
          382 844 rmoveto
          -99 callgsubr
          46 70 45 -99 callsubr
          -249 -508 rmoveto
          hintmask 11011000
          18 callgsubr
          -25 61 vhcurveto
          68 vlineto
          -77 callsubr
        </CharString>
        <CharString name="Cdotaccent">
          -13 -6 -31 callsubr
          46 80 hstem
          61 72 184 80 vstem
          317 724 rmoveto
          -75 callgsubr
          -184 -388 68 callsubr
          -25 61 vhcurveto
          68 vlineto
          -77 callsubr
        </CharString>
        <CharString name="D">
          29 0 68 532 67 -41 callgsubr
          378 72 vstem
          87 -13 callgsubr
          -667 209 vlineto
          -51 callgsubr
          -209 hlineto
          204 -599 rmoveto
          -132 532 -56 callsubr
          endchar
        </CharString>
        <CharString name="Dbreve">
          29 0 68 532 67 38 10 callsubr
          87 72 30 -25 callgsubr
          138 72 hintmask 11011011
          296 -13 callgsubr
          -209 -667 209 hlineto
          -51 callgsubr
          -5 -599 rmoveto
          -132 532 -56 callsubr
          3 637 -23 callsubr
          hintmask 11101101
          66 callsubr
          hintmask 11011101
          -40 -17 17 39 -86 callsubr
          endchar
        </CharString>
        <CharString name="Dcaron">
          29 0 68 532 67 -67 245 hstemhm
          87 72 378 72 hintmask 10111000
          277 724 -69 callsubr
          hintmask 11011000
          -190 -57 rmoveto
          -667 209 vlineto
          -51 callgsubr
          -209 hlineto
          204 -599 rmoveto
          -132 532 -56 callsubr
          endchar
        </CharString>
        <CharString name="Dcroat">
          -75 callsubr
        </CharString>
        <CharString name="Delta">
          88 0 69 598 -20 hstem
          394 -13 callgsubr
          -60 hlineto
          -307 -667 rlineto
          675 hlineto
          -308 667 rlineto
          -260 -598 rmoveto
          230 499 230 -499 rlineto
          -460 hlineto
          endchar
        </CharString>
        <CharString name="Dieresis">
          -256 724 80 hstem
          79 80 68 80 vstem
          79 -78 callsubr
          endchar
        </CharString>
        <CharString name="E">
          -83 callgsubr
          -41 callgsubr
          vstem
          159 599 rmoveto
          349 -101 callsubr
          hlineto
          endchar
        </CharString>
        <CharString name="Eacute">
          -83 callgsubr
          -68 240 hstemhm
          87 72 hintmask 11011000
          332 839 -63 callgsubr
          -173 -240 rmoveto
          349 hlineto
          hintmask 11101000
          -101 callsubr
          vlineto
          endchar
        </CharString>
        <CharString name="Ebreve">
          -83 callgsubr
          38 10 callsubr
          87 39 callgsubr
          hintmask 11101110
          360 809 rmoveto
          hintmask 11110110
          66 callsubr
          hintmask 11101110
          -40 -17 17 39 -86 callsubr
          hintmask 11101101
          -73 callgsubr
          -201 -210 rmoveto
          349 -101 callsubr
          hlineto
          endchar
        </CharString>
        <CharString name="Ecaron">
          -83 callgsubr
          -68 246 hstemhm
          87 72 hintmask 11011000
          282 14 callgsubr
          -123 -125 rmoveto
          349 hlineto
          hintmask 11101000
          -101 callsubr
          vlineto
          endchar
        </CharString>
        <CharString name="Ecircumflex">
          -83 callgsubr
          0 57 121 -20 hstemhm
          87 72 hintmask 11011100
          323 845 rmoveto
          -41 hlineto
          -81 -121 -87 callsubr
          46 71 45 -71 -87 callsubr
          -81 121 rlineto
          hintmask 11101100
          -164 -246 rmoveto
          349 -101 callsubr
          hlineto
          endchar
        </CharString>
        <CharString name="Ecircumflexacute">
          -83 callgsubr
          246 -26 callgsubr
          vstem
          298 777 -86 callgsubr
          -331 -314 rmoveto
          349 -101 callsubr
          hlineto
          endchar
        </CharString>
        <CharString name="Ecircumflexdotbelow">
          -75 -129 79 50 68 231 70 230 68 0 40 120 -20 hstemhm
          87 72 104 79 hintmask 11101111
          342 -50 -85 callsubr
          -39 827 -105 callgsubr
          hintmask 11110111
          -144 -178 rmoveto
          349 -101 callsubr
          hlineto
          endchar
        </CharString>
        <CharString name="Ecircumflexgrave">
          -83 callgsubr
          246 -26 callgsubr
          vstem
          298 -61 callgsubr
          -192 136 -76 callsubr
          -21 -314 rmoveto
          349 -101 callsubr
          hlineto
          endchar
        </CharString>
        <CharString name="Ecircumflexhookabove">
          -83 callgsubr
          40 131 50 44 -41 callgsubr
          253 48 vstem
          298 -61 callgsubr
          70 155 rmoveto
          -11 -23 callgsubr
          11 hhcurveto
          29 -62 callgsubr
          16 22 -33 callsubr
          -209 -333 rmoveto
          349 -101 callsubr
          hlineto
          endchar
        </CharString>
        <CharString name="Ecircumflextilde">
          -83 callgsubr
          0 34 hstemhm
          87 72 hintmask 11011000
          442 872 -100 callsubr
          -144 -101 -105 callgsubr
          hintmask 11101000
          -139 -172 rmoveto
          349 -101 callsubr
          hlineto
          endchar
        </CharString>
        <CharString name="Edieresis">
          -83 callgsubr
          57 80 -41 callgsubr
          34 79 69 79 vstem
          193 724 rmoveto
          50 callsubr
          148 hmoveto
          50 callsubr
          -182 -125 rmoveto
          349 -101 callsubr
          hlineto
          endchar
        </CharString>
        <CharString name="Edotaccent">
          -83 callgsubr
          57 80 -41 callgsubr
          105 79 vstem
          264 724 rmoveto
          50 callsubr
          -105 -125 rmoveto
          349 -101 callsubr
          hlineto
          endchar
        </CharString>
        <CharString name="Edotbelow">
          -75 -129 79 50 68 231 70 230 68 -41 callgsubr
          103 79 vstem
          341 -50 -85 callsubr
          -182 649 rmoveto
          349 -101 callsubr
          hlineto
          endchar
        </CharString>
        <CharString name="Egrave">
          -83 callgsubr
          -68 240 hstemhm
          87 72 hintmask 11011000
          291 62 callsubr
          -189 -125 rmoveto
          349 hlineto
          hintmask 11101000
          -101 callsubr
          vlineto
          endchar
        </CharString>
        <CharString name="Ehookabove">
          -83 callgsubr
          -68 177 50 44 hstemhm
          87 72 164 49 hintmask 11011110
          280 870 rmoveto
          -11 -11 4 callgsubr
          8 2 callgsubr
          29 -62 callgsubr
          17 22 -33 callsubr
          -121 -271 rmoveto
          349 hlineto
          hintmask 11101110
          -101 callsubr
          vlineto
          endchar
        </CharString>
        <CharString name="Emacron">
          -83 callgsubr
          69 53 -41 callgsubr
          vstem
          189 70 callsubr
          -30 -137 rmoveto
          349 -101 callsubr
          hlineto
          endchar
        </CharString>
        <CharString name="Eng">
          87 -172 67 126 -21 667 -20 hstemhm
          87 72 305 174 -72 72 hintmask 11110100
          566 -13 callgsubr
          -562 vlineto
          -397 562 rlineto
          -82 -667 72 562 hlineto
          407 -574 rlineto
          hintmask 11111000
          -1 -60 -17 -32 -84 -1 rrcurveto
          -67 vlineto
          117 57 53 110 hvcurveto
          676 vlineto
          hintmask 11110100
          -72 hlineto
          endchar
        </CharString>
        <CharString name="Eogonek">
          -75 -173 44 129 68 231 70 230 68 hstemhm
          87 72 201 68 -68 148 hintmask 11111100
          498 -99 rmoveto
          -13 -9 -16 25 callsubr
          hvcurveto
          hintmask 11111010
          46 80 48 0 vhcurveto
          68 -349 231 307 70 -307 230 349 68 -421 -667 358 vlineto
          0 -85 -49 -60 vvcurveto
          -59 40 -5 26 49 callsubr
          endchar
        </CharString>
        <CharString name="Eth">
          -75 callsubr
        </CharString>
        <CharString name="Etilde">
          -83 callgsubr
          -41 callgsubr
          vstem
          441 745 -66 callsubr
          -282 -146 rmoveto
          349 -101 callsubr
          hlineto
          endchar
        </CharString>
        <CharString name="Euro">
          38 -8 68 168 60 92 60 168 68 hstem
          114 72 vstem
          431 608 rmoveto
          68 65 -14 -26 62 hvcurveto
          69 vlineto
          26 -65 -68 13 -70 hhcurveto
          -170 -101 -80 -156 -29 hvcurveto
          -73 -60 66 hlineto
          -1 -15 -1 -15 -16 vvcurveto
          -16 1 -15 1 -15 vhcurveto
          -66 -60 73 hlineto
          -157 29 101 -79 170 hhcurveto
          70 68 13 25 65 hvcurveto
          69 vlineto
          -26 -62 -65 -13 -68 hhcurveto
          -134 -75 53 115 -26 hvcurveto
          321 60 -329 hlineto
          -1 14 -1 16 16 vvcurveto
          16 1 15 1 15 vhcurveto
          329 60 -321 hlineto
          115 26 75 53 134 hhcurveto
          endchar
        </CharString>
        <CharString name="F">
          -105 21 -21 299 70 230 68 50 callgsubr
          -667 72 299 296 70 -296 230 337 68 -409 vlineto
          endchar
        </CharString>
        <CharString name="Fdotaccent">
          -105 21 -21 298 70 231 68 57 80 -41 callgsubr
          99 80 vstem
          87 -13 callgsubr
          -667 72 298 296 70 -296 231 337 68 -409 vlineto
          251 137 rmoveto
          -80 -80 80 80 hlineto
          endchar
        </CharString>
        <CharString name="G">
          -5 callsubr
          -6 callsubr
          hintmask 11111000
          370 293 rmoveto
          hintmask 11110100
          -97 callgsubr
          hintmask 11111000
          28 -66 -71 14 -81 callgsubr
          35 73 hvcurveto
          319 -233 vlineto
          endchar
        </CharString>
        <CharString name="Gacute">
          -5 callsubr
          -69 232 -6 callsubr
          hintmask 11011100
          389 839 rmoveto
          -57 -115 rlineto
          48 -11 callgsubr
          -19 -546 rmoveto
          hintmask 11101010
          -97 callgsubr
          hintmask 11101100
          27 -66 -71 15 -81 callgsubr
          34 73 hvcurveto
          320 -233 vlineto
          endchar
        </CharString>
        <CharString name="Gbreve">
          -5 callsubr
          29 10 callsubr
          61 72 122 -25 callgsubr
          -95 233 -72 72 hintmask 1110111010000000
          417 809 rmoveto
          hintmask 1111011010000000
          66 callsubr
          hintmask 1110111010000000
          -40 -17 17 39 -86 callsubr
          hintmask 1110110101000000
          -73 callgsubr
          hintmask 1111011010000000
          -47 -516 rmoveto
          hintmask 1111011001000000
          -97 callgsubr
          hintmask 1111011010000000
          27 -66 -71 15 -81 callgsubr
          34 73 hvcurveto
          320 -233 vlineto
          endchar
        </CharString>
        <CharString name="Gcaron">
          -5 callsubr
          -69 237 -6 callsubr
          hintmask 11011100
          335 724 rmoveto
          42 hlineto
          80 33 callsubr
          35 -431 rmoveto
          hintmask 11101010
          -97 callgsubr
          hintmask 11101100
          27 -66 -71 15 -81 callgsubr
          34 73 hvcurveto
          320 -233 vlineto
          endchar
        </CharString>
        <CharString name="Gcircumflex">
          36 -8 69 0 232 0 70 244 69 0 48 120 -20 -6 callsubr
          hintmask 1010111100000000
          377 844 rmoveto
          -42 hlineto
          -80 -120 -68 callgsubr
          -57 callsubr
          -7 -551 rmoveto
          hintmask 0101011010000000
          -97 callgsubr
          hintmask 0111011100000000
          27 -66 -71 15 -81 callgsubr
          34 73 hvcurveto
          320 -233 vlineto
          endchar
        </CharString>
        <CharString name="Gcommaaccent">
          36 -173 -21 144 42 69 232 0 70 0 244 0 69 -6 callsubr
          hintmask 1110101100000000
          370 293 rmoveto
          hintmask 1110011010000000
          -97 callgsubr
          hintmask 1110011100000000
          27 -66 -71 15 -81 callgsubr
          34 73 hvcurveto
          hintmask 1111011100000000
          320 -233 vlineto
          40 -413 21 callsubr
        </CharString>
        <CharString name="Gdotaccent">
          -5 callsubr
          48 80 2 callsubr
          188 80 -31 233 -72 72 hintmask 11111101
          321 724 rmoveto
          -75 callgsubr
          hintmask 11111010
          49 -431 rmoveto
          hintmask 11111101
          -97 callgsubr
          hintmask 11111010
          27 -66 -71 15 -81 callgsubr
          34 73 hvcurveto
          320 -233 vlineto
          endchar
        </CharString>
        <CharString name="Grave">
          -422 745 67 callsubr
          120 62 callsubr
          -57 115 rlineto
          endchar
        </CharString>
        <CharString name="H">
          33 21 -21 299 69 299 -26 callgsubr
          355 72 vstem
          514 -13 callgsubr
          -299 -355 299 -72 -667 49 callgsubr
          667 -72 vlineto
          endchar
        </CharString>
        <CharString name="Hbar">
          114 21 -21 299 69 120 60 119 -20 hstem
          128 72 355 72 vstem
          709 548 rmoveto
          -82 119 -72 -119 -355 119 -72 -119 -82 -60 82 -488 49 callgsubr
          488 82 60 hlineto
          -154 -180 rmoveto
          -355 120 355 -120 hlineto
          endchar
        </CharString>
        <CharString name="Hcircumflex">
          33 21 -21 299 69 476 -26 callgsubr
          355 72 vstem
          357 844 rmoveto
          -99 callgsubr
          46 71 45 -71 -87 callsubr
          -81 -57 callsubr
          157 -177 rmoveto
          -299 -355 299 -72 -667 49 callgsubr
          667 -72 vlineto
          endchar
        </CharString>
        <CharString name="Hungarumlaut">
          -271 724 115 hstem
          237 839 -54 callgsubr
        </CharString>
        <CharString name="I">
          -396 21 -21 667 -20 50 callgsubr
          -667 72 667 -72 vlineto
          endchar
        </CharString>
        <CharString name="Iacute">
          -396 10 callgsubr
          172 -41 callgsubr
          23 callsubr
          -3 839 -70 callgsubr
        </CharString>
        <CharString name="Ibreve">
          -396 21 -21 705 10 callsubr
          18 48 21 72 -72 141 hintmask 10111000
          87 hmoveto
          72 667 -72 -667 hlineto
          93 809 rmoveto
          hintmask 11011000
          66 callsubr
          hintmask 10110100
          -40 -17 17 39 60 callgsubr
          39 -39 66 66 39 39 65 vhcurveto
          -48 hlineto
          endchar
        </CharString>
        <CharString name="Icircumflex">
          -396 21 -21 845 -26 callgsubr
          23 callsubr
          -15 845 rmoveto
          -42 hlineto
          -80 -121 -68 callgsubr
          121 rlineto
          endchar
        </CharString>
        <CharString name="Idieresis">
          -396 21 -21 724 80 hstem
          9 78 72 78 23 callsubr
          -150 -78 callsubr
          endchar
        </CharString>
        <CharString name="Idotaccent">
          -396 21 -21 724 80 12 callsubr
          -4 724 rmoveto
          -75 callgsubr
          endchar
        </CharString>
        <CharString name="Idotbelow">
          -396 -129 79 71 -21 667 -26 callgsubr
          vstem
          162 -50 -85 callsubr
          -75 717 rmoveto
          -667 72 667 vlineto
          endchar
        </CharString>
        <CharString name="Igrave">
          -396 21 -21 839 -20 12 callsubr
          3 62 callsubr
          endchar
        </CharString>
        <CharString name="Ihookabove">
          -396 10 callgsubr
          109 0 50 0 44 hstemhm
          87 72 -16 48 hintmask 10100100
          99 870 rmoveto
          -11 -23 callgsubr
          10 hhcurveto
          30 -62 callgsubr
          16 22 26 vvcurveto
          hintmask 11011000
          53 -50 15 -42 vhcurveto
          -12 -203 rmoveto
          72 -667 -72 667 hlineto
          endchar
        </CharString>
        <CharString name="Imacron">
          -396 21 -21 736 53 12 callsubr
          -81 70 callsubr
          endchar
        </CharString>
        <CharString name="Iogonek">
          -396 -173 44 796 -20 hstem
          12 68 7 72 vstem
          149 -98 rmoveto
          -13 -9 -15 -18 -19 hhcurveto
          -14 -12 9 27 46 79 48 0 hvcurveto
          666 -72 -666 27 callgsubr
          endchar
        </CharString>
        <CharString name="Itilde">
          -396 21 -21 50 callgsubr
          72 -667 -72 667 hlineto
          177 78 -98 callsubr
          endchar
        </CharString>
        <CharString name="J">
          -194 -8 70 605 -20 hstem
          280 72 vstem
          280 -13 callgsubr
          -462 vlineto
          -102 -37 -41 -91 -50 -40 17 23 -33 vhcurveto
          -75 vlineto
          -21 36 44 -14 52 hhcurveto
          87 104 36 171 hvcurveto
          468 -72 vlineto
          endchar
        </CharString>
        <CharString name="Jcircumflex">
          -194 -8 70 783 -20 hstem
          280 72 vstem
          337 845 rmoveto
          -42 hlineto
          -80 -121 -68 callgsubr
          121 rlineto
          -57 -178 rmoveto
          -462 vlineto
          -102 -37 -41 -91 -50 -40 17 23 -33 vhcurveto
          -75 vlineto
          -21 36 44 -14 52 hhcurveto
          87 104 36 171 hvcurveto
          468 -72 vlineto
          endchar
        </CharString>
        <CharString name="K">
          -9 21 -17 callsubr
          73 80 261 70 callgsubr
          endchar
        </CharString>
        <CharString name="Kcommaaccent">
          -9 -172 -21 214 -17 callsubr
          74 80 260 70 callgsubr
          64 -404 -95 callgsubr
          endchar
        </CharString>
        <CharString name="L">
          64 callsubr
          hstem
          87 72 vstem
          159 70 rmoveto
          -36 callgsubr
        </CharString>
        <CharString name="Lacute">
          -120 0 70 769 -26 callgsubr
          vstem
          159 839 rmoveto
          -57 -115 rlineto
          48 -11 callgsubr
          -769 vmoveto
          -36 callgsubr
        </CharString>
        <CharString name="Lcaron">
          64 callsubr
          hstemhm
          87 72 -72 235 hintmask 11010000
          322 667 -95 callgsubr
          hintmask 11100000
          -163 -597 rmoveto
          -36 callgsubr
        </CharString>
        <CharString name="Lcommaaccent">
          -120 -172 -21 144 49 0 70 597 -20 hstemhm
          87 72 hintmask 11011000
          331 -49 rmoveto
          -60 hlineto
          -29 -3 -46 -37 -15 -38 callsubr
          56 38 96 vvcurveto
          hintmask 10111000
          -172 119 rmoveto
          -36 callgsubr
        </CharString>
        <CharString name="Ldot">
          -120 0 70 224 80 293 -26 callgsubr
          194 79 vstem
          353 294 rmoveto
          50 callsubr
          -194 -224 rmoveto
          -36 callgsubr
        </CharString>
        <CharString name="Lslash">
          64 callsubr
          hstemhm
          13 146 -72 72 -72 206 hintmask 11100000
          159 70 rmoveto
          279 vlineto
          hintmask 11001000
          134 91 rlineto
          64 vlineto
          hintmask 11100000
          -134 -91 rlineto
          254 vlineto
          hintmask 11010000
          -72 -302 hlineto
          hintmask 11100000
          -74 -50 rlineto
          -64 vlineto
          74 50 rlineto
          -301 413 70 -341 vlineto
          endchar
        </CharString>
        <CharString name="M">
          150 29 callsubr
          87 72 471 72 vstem
          624 -13 callgsubr
          -230 -339 -229 339 rlineto
          -78 -667 72 549 hlineto
          235 -340 236 340 rlineto
          -549 72 667 -78 vlineto
          endchar
        </CharString>
        <CharString name="Macron">
          -238 736 53 hstem
          86 70 callsubr
          endchar
        </CharString>
        <CharString name="N">
          87 29 callsubr
          87 72 408 72 vstem
          567 667 -83 callsubr
          endchar
        </CharString>
        <CharString name="NULL">
          -641 endchar
        </CharString>
        <CharString name="Nacute">
          87 21 -21 839 -26 callgsubr
          408 72 vstem
          398 839 rmoveto
          -57 -115 rlineto
          48 -11 callgsubr
          169 -172 -83 callsubr
          endchar
        </CharString>
        <CharString name="Ncaron">
          87 21 -21 845 -26 callgsubr
          408 72 vstem
          351 724 -69 callsubr
          216 -57 -83 callsubr
          endchar
        </CharString>
        <CharString name="Ncommaaccent">
          87 29 callgsubr
          667 -26 callgsubr
          408 72 vstem
          387 -49 -95 callgsubr
          180 716 -83 callsubr
          endchar
        </CharString>
        <CharString name="Ntilde">
          87 21 -21 -41 callgsubr
          408 72 vstem
          567 667 -83 callsubr
          -63 78 -98 callsubr
          endchar
        </CharString>
        <CharString name="O">
          -22 callgsubr
          65 callsubr
          370 676 rmoveto
          -105 callsubr
          206 -61 callsubr
          -32 callgsubr
          hvcurveto
          -616 vmoveto
          -90 callsubr
        </CharString>
        <CharString name="OE">
          350 -8 76 -47 -21 299 70 239 59 9 -20 hstemhm
          60 72 371 72 hintmask 10110110
          925 599 rmoveto
          68 -422 -13 vlineto
          hintmask 10101110
          15 -38 -45 7 -51 hhcurveto
          -105 callsubr
          51 45 7 14 38 hvcurveto
          hintmask 01110110
          -13 422 vlineto
          hintmask 10110110
          68 -350 231 307 70 -307 230 350 vlineto
          -556 -539 rmoveto
          -21 callgsubr
          189 73 85 164 55 44 -10 -19 35 hvcurveto
          -490 vlineto
          -20 -35 -44 -9 -55 hhcurveto
          endchar
        </CharString>
        <CharString name="Oacute">
          -22 callgsubr
          -68 231 2 callsubr
          474 72 hintmask 11011000
          370 676 -88 callgsubr
          -616 vmoveto
          -21 callgsubr
          189 73 85 164 164 73 -85 -189 -190 -73 -84 -164 hvcurveto
          hintmask 10111000
          21 779 -63 callgsubr
          endchar
        </CharString>
        <CharString name="Obreve">
          106 -8 67 549 68 29 10 callsubr
          61 72 132 -25 callgsubr
          132 72 hintmask 11011101
          370 676 -88 callgsubr
          -617 vmoveto
          -164 -73 85 190 189 73 85 164 164 73 -85 -189 -190 -73 -85 -164 hvcurveto
          57 750 rmoveto
          hintmask 11101101
          66 callsubr
          hintmask 11011101
          -40 -17 17 39 -86 callsubr
          hintmask 11011011
          -73 callgsubr
          endchar
        </CharString>
        <CharString name="Ocircumflex">
          -22 callgsubr
          0 48 121 -20 2 callsubr
          474 72 hintmask 11011100
          370 676 -88 callgsubr
          -616 vmoveto
          -21 callgsubr
          189 73 85 164 164 73 -85 -189 -190 -73 -84 -164 hvcurveto
          21 785 rmoveto
          -42 hlineto
          hintmask 10111100
          -80 -121 -68 callgsubr
          121 rlineto
          endchar
        </CharString>
        <CharString name="Ocircumflexacute">
          -22 callgsubr
          237 -20 65 callsubr
          371 777 -86 callgsubr
          -193 -237 rmoveto
          -105 callsubr
          206 -61 callsubr
          -32 callgsubr
          hvcurveto
          -616 vmoveto
          -90 callsubr
        </CharString>
        <CharString name="Ocircumflexdotbelow">
          106 13 callgsubr
          -31 callsubr
          0 31 120 68 callgsubr
          cntrmask 00000111
          hintmask 11011111
          410 -50 -85 callsubr
          -39 827 -105 callgsubr
          -1 -101 -28 callgsubr
          hintmask 11101111
          189 73 85 164 165 73 -85 -189 -190 -73 -84 -165 vhcurveto
          endchar
        </CharString>
        <CharString name="Ocircumflexgrave">
          -22 callgsubr
          237 -20 65 callsubr
          370 777 -80 callgsubr
          -191 -579 rmoveto
          -227 104 -115 205 206 -61 callsubr
          -32 callgsubr
          -205 -104 -115 -227 vhcurveto
          72 hmoveto
          189 73 85 164 165 73 -85 -189 -190 -73 -84 -165 -21 callgsubr
          vhcurveto
          endchar
        </CharString>
        <CharString name="Ocircumflexhookabove">
          -22 callgsubr
          31 131 50 44 hstem
          61 72 352 48 75 72 vstem
          371 -61 callgsubr
          70 155 rmoveto
          -11 -10 -2 -1 -9 hvcurveto
          -43 vlineto
          1 7 2 callgsubr
          30 -62 callgsubr
          16 22 -33 callsubr
          -71 -256 rmoveto
          -105 callsubr
          206 -61 callsubr
          -32 callgsubr
          hvcurveto
          -616 vmoveto
          -90 callsubr
        </CharString>
        <CharString name="Ocircumflextilde">
          -22 callgsubr
          0 25 47 callgsubr
          515 872 -100 callsubr
          -144 -101 -105 callgsubr
          -1 -95 -28 callgsubr
          hintmask 11011000
          189 73 85 164 165 73 -85 -189 -190 -73 -84 -165 vhcurveto
          endchar
        </CharString>
        <CharString name="Odieresis">
          -22 callgsubr
          48 80 hstem
          61 72 123 80 68 80 123 72 vstem
          256 -78 callsubr
          -34 -48 -88 callgsubr
          -616 vmoveto
          -21 callgsubr
          189 73 85 164 164 73 -85 -189 -190 -73 -84 -164 hvcurveto
          endchar
        </CharString>
        <CharString name="Odotbelow">
          106 13 callgsubr
          67 549 68 hstem
          61 72 198 79 198 72 cntrmask 00011100
          410 -50 -85 callsubr
          -40 726 rmoveto
          -105 callsubr
          206 -61 callsubr
          -32 callgsubr
          hvcurveto
          -617 vmoveto
          3 callsubr
        </CharString>
        <CharString name="Ograve">
          -22 callgsubr
          -68 231 2 callsubr
          474 72 hintmask 11011000
          61 334 rmoveto
          -227 104 -115 205 205 -61 callsubr
          -45 callgsubr
          -205 -205 -104 -115 -227 vhcurveto
          72 hmoveto
          189 73 85 164 164 73 -85 -189 -190 -73 -84 -164 -21 callgsubr
          vhcurveto
          hintmask 10111000
          215 505 35 callgsubr
          endchar
        </CharString>
        <CharString name="Ohookabove">
          -22 callgsubr
          -68 168 50 44 2 callsubr
          260 48 167 72 hintmask 10111110
          349 870 rmoveto
          -11 -23 callgsubr
          11 hhcurveto
          29 -62 callgsubr
          16 22 -33 callsubr
          hintmask 11011110
          21 -194 rmoveto
          -105 callsubr
          206 -61 callsubr
          -32 callgsubr
          hvcurveto
          -616 vmoveto
          -90 callsubr
        </CharString>
        <CharString name="Ohorn">
          135 -44 callsubr
          16 -20 47 callgsubr
          805 607 8 callgsubr
          hintmask 11011000
          -92 callsubr
          62 -22 49 hvcurveto
          22 6 24 12 29 18 rrcurveto
          0 83 53 0 vhcurveto
          -435 -547 rmoveto
          -90 callsubr
        </CharString>
        <CharString name="Ohornacute">
          135 -44 callsubr
          -68 231 47 callgsubr
          466 839 rmoveto
          -74 hlineto
          -57 -115 rlineto
          48 hlineto
          83 -67 callsubr
          339 -232 8 callgsubr
          hintmask 11011000
          -92 callsubr
          62 -22 49 hvcurveto
          22 6 24 12 29 18 rrcurveto
          0 83 53 0 vhcurveto
          -435 -547 rmoveto
          -90 callsubr
        </CharString>
        <CharString name="Ohorndotbelow">
          135 13 callgsubr
          -31 callsubr
          16 68 callgsubr
          cntrmask 00001110
          hintmask 11011110
          410 -50 -85 callsubr
          395 657 8 callgsubr
          hintmask 11101110
          -92 callsubr
          62 -22 49 hvcurveto
          22 6 24 12 29 18 rrcurveto
          0 83 53 0 vhcurveto
          -435 -547 rmoveto
          -90 callsubr
        </CharString>
        <CharString name="Ohorngrave">
          135 -8 67 549 68 -68 231 47 callgsubr
          274 839 -76 callsubr
          457 -232 rmoveto
          -55 85 -86 -54 32 -50 -27 -18 -22 -9 -20 -4 rlinecurve
          hintmask 11011000
          -92 callsubr
          61 -22 50 hvcurveto
          22 6 24 12 29 18 rrcurveto
          0 83 53 0 vhcurveto
          -435 -548 rmoveto
          3 callsubr
        </CharString>
        <CharString name="Ohornhookabove">
          135 -44 callsubr
          -68 168 50 44 2 callsubr
          260 48 167 72 hintmask 10111110
          349 870 rmoveto
          -11 -23 callgsubr
          11 hhcurveto
          29 -62 callgsubr
          16 22 -33 callsubr
          456 -263 8 callgsubr
          hintmask 11011110
          -92 callsubr
          62 -22 49 hvcurveto
          22 6 24 12 29 18 rrcurveto
          0 83 53 0 vhcurveto
          -435 -547 rmoveto
          -90 callsubr
        </CharString>
        <CharString name="Ohorntilde">
          135 -44 callsubr
          65 callsubr
          511 745 -100 callsubr
          294 -138 8 callgsubr
          -92 callsubr
          62 -22 49 hvcurveto
          22 6 24 12 29 18 rrcurveto
          0 83 53 0 vhcurveto
          -435 -547 rmoveto
          -90 callsubr
        </CharString>
        <CharString name="Ohungarumlaut">
          -22 callgsubr
          48 115 hstem
          61 72 474 72 vstem
          370 676 -88 callgsubr
          -616 vmoveto
          -21 callgsubr
          189 73 85 164 164 73 -85 -189 -190 -73 -84 -164 hvcurveto
          82 779 -54 callgsubr
        </CharString>
        <CharString name="Omacron">
          -22 callgsubr
          60 53 hstem
          61 72 474 72 vstem
          370 676 -88 callgsubr
          -616 vmoveto
          -21 callgsubr
          189 73 85 164 164 73 -85 -189 -190 -73 -84 -164 hvcurveto
          -117 676 -46 callgsubr
          endchar
        </CharString>
        <CharString name="Oslash">
          106 -9 68 -38 -21 608 68 58 callgsubr
          hintmask 01111000
          691 -13 callgsubr
          -78 hlineto
          -42 -49 rlineto
          38 -50 -67 20 -84 hhcurveto
          -205 -104 -116 -226 -105 22 -81 44 -56 hvcurveto
          -77 -92 rlineto
          78 hlineto
          42 49 rlineto
          hintmask 10111000
          -38 50 67 -20 83 hhcurveto
          206 104 116 227 104 -23 81 -44 56 hvcurveto
          78 92 rlineto
          -558 -333 rmoveto
          189 73 85 164 67 51 -14 -29 38 vhcurveto
          -352 -418 rlineto
          -28 44 -13 62 81 vvcurveto
          475 hmoveto
          -190 -73 -85 -165 -66 -51 14 29 -38 vhcurveto
          352 418 rlineto
          27 -44 14 -62 -80 vvcurveto
          endchar
        </CharString>
        <CharString name="Oslashacute">
          106 -9 68 -38 -21 608 68 -68 231 hstemhm
          60 72 475 72 hintmask 10011100
          465 839 rmoveto
          -74 hlineto
          -56 -5 callgsubr
          225 -172 rmoveto
          -79 hlineto
          -41 -49 rlineto
          hintmask 01101100
          38 -50 -66 20 -84 hhcurveto
          -205 -105 -116 -226 -105 23 -81 44 -56 hvcurveto
          -78 -92 rlineto
          79 hlineto
          41 49 rlineto
          hintmask 10101100
          -38 50 67 -20 84 hhcurveto
          205 104 116 227 104 -22 81 -44 56 hvcurveto
          77 92 rlineto
          -558 -333 rmoveto
          189 74 85 164 66 51 -14 -29 38 vhcurveto
          -351 -418 rlineto
          -28 44 -14 62 81 vvcurveto
          238 -275 rmoveto
          -67 -51 14 29 -38 hvcurveto
          352 418 rlineto
          28 -44 13 -62 -80 vvcurveto
          -190 -73 -85 -164 vhcurveto
          endchar
        </CharString>
        <CharString name="Otilde">
          -22 callgsubr
          65 callsubr
          370 676 rmoveto
          -105 callsubr
          206 -61 callsubr
          -32 callgsubr
          hvcurveto
          -616 vmoveto
          -21 callgsubr
          189 73 85 164 165 73 -85 -189 -190 -73 -84 -165 hvcurveto
          141 685 -100 callsubr
          endchar
        </CharString>
        <CharString name="P">
          -45 21 -21 255 69 274 69 hstem
          86 72 324 72 vstem
          323 -13 callgsubr
          -237 -667 72 255 165 hlineto
          149 82 73 133 133 -82 73 -149 hvcurveto
          -9 -343 rmoveto
          -156 274 156 43 callgsubr
        </CharString>
        <CharString name="Q">
          106 -158 65 86 67 548 68 65 callsubr
          680 334 rmoveto
          -32 callgsubr
          -205 -104 -115 -227 -215 93 -114 183 -12 vhcurveto
          -59 10 39 -92 155 hhcurveto
          65 vlineto
          -74 2 -44 29 -13 55 rrcurveto
          179 15 91 114 212 vvcurveto
          -310 -274 rmoveto
          -90 callsubr
        </CharString>
        <CharString name="R">
          36 callgsubr
          -41 callgsubr
          327 72 vstem
          405 280 rmoveto
          31 6 122 34 153 vvcurveto
          -94 callgsubr
        </CharString>
        <CharString name="Racute">
          36 callgsubr
          -68 240 hstemhm
          87 72 327 72 hintmask 11011100
          314 839 rmoveto
          -57 -115 rlineto
          48 -11 callgsubr
          91 -559 rmoveto
          31 6 122 34 153 vvcurveto
          hintmask 11101100
          -94 callgsubr
        </CharString>
        <CharString name="Rcaron">
          36 callgsubr
          -68 246 hstemhm
          87 72 327 72 hintmask 11011100
          273 45 callsubr
          -45 71 -10 callgsubr
          80 -121 rlineto
          132 -444 rmoveto
          31 6 122 34 153 vvcurveto
          hintmask 11101100
          -94 callgsubr
        </CharString>
        <CharString name="Rcommaaccent">
          -20 -172 -21 214 66 callgsubr
          -41 callgsubr
          327 72 vstem
          358 -49 -95 callgsubr
          47 329 rmoveto
          31 6 122 34 153 vvcurveto
          -94 callgsubr
        </CharString>
        <CharString name="S">
          -79 -8 72 540 72 -12 callsubr
          hintmask 11110000
          133 490 rmoveto
          74 59 40 106 68 55 -21 -21 37 vhcurveto
          74 vlineto
          21 -43 -56 19 -68 hhcurveto
          -170 -60 -96 -90 hvcurveto
          -223 368 98 -195 vvcurveto
          -88 -93 -18 -77 -91 -62 27 26 -39 vhcurveto
          -78 vlineto
          -25 47 65 -22 85 hhcurveto
          hintmask 11101000
          149 88 -45 callsubr
        </CharString>
        <CharString name="Sacute">
          -79 -8 72 540 72 -72 235 -12 callsubr
          hintmask 10111000
          303 839 rmoveto
          -57 -114 rlineto
          48 hlineto
          83 114 rlineto
          -74 hlineto
          -170 -349 45 callgsubr
          hintmask 11010100
          -70 callsubr
          149 89 -45 callsubr
        </CharString>
        <CharString name="Scaron">
          -79 -8 72 540 72 -72 241 -12 callsubr
          hintmask 10111000
          265 725 rmoveto
          42 hlineto
          80 -4 callsubr
          -71 -45 71 -10 callgsubr
          80 -120 rlineto
          -132 -235 45 callgsubr
          hintmask 11010100
          -70 callsubr
          149 89 -45 callsubr
        </CharString>
        <CharString name="Scedilla">
          -79 -119 183 -72 72 540 72 -12 callsubr
          hintmask 01111000
          133 490 -15 callsubr
          -88 -93 -18 -78 -90 -62 27 26 -39 vhcurveto
          -78 vlineto
          43 -24 59 -20 76 -3 rrcurveto
          hintmask 10110100
          -79 -111 rlineto
          76 hlineto
          61 113 rlineto
          125 11 73 64 101 255 -368 -81 146 vvcurveto
          endchar
        </CharString>
        <CharString name="Scircumflex">
          -79 -8 72 540 72 0 49 120 -20 -12 callsubr
          hintmask 10111100
          307 845 rmoveto
          -42 hlineto
          -80 -77 callgsubr
          -174 -355 rmoveto
          hintmask 11011100
          -34 callsubr
          -70 callsubr
          hintmask 11011010
          149 89 -45 callsubr
        </CharString>
        <CharString name="Scommaaccent">
          -79 -172 -21 144 41 0 72 540 72 -12 callsubr
          hintmask 11011100
          318 -49 rmoveto
          -60 hlineto
          -29 -3 -46 -37 63 callsubr
          37 96 vvcurveto
          -185 539 -15 callsubr
          hintmask 10111010
          -88 -93 -18 -78 -90 -62 27 26 -39 vhcurveto
          -78 vlineto
          -25 47 64 -22 85 hhcurveto
          149 89 -45 callsubr
        </CharString>
        <CharString name="T">
          -73 21 -21 597 57 callsubr
          12 667 17 callgsubr
          -543 vlineto
          endchar
        </CharString>
        <CharString name="Tbar">
          -73 21 -21 304 61 232 57 callsubr
          555 597 rmoveto
          70 -543 -70 236 -232 -141 -61 141 -304 72 304 140 61 -140 232 235 vlineto
          endchar
        </CharString>
        <CharString name="Tcaron">
          -73 21 -21 597 70 -70 248 hstemhm
          248 72 hintmask 10110000
          263 14 callgsubr
          hintmask 11010000
          -251 -57 17 callgsubr
          -543 vlineto
          endchar
        </CharString>
        <CharString name="Tcommaaccent">
          -49 callsubr
          -543 vlineto
          endchar
        </CharString>
        <CharString name="Thorn">
          -71 21 -21 153 69 274 70 101 -20 hstem
          86 72 288 72 vstem
          288 566 rmoveto
          -130 101 -72 -667 72 153 130 hlineto
          148 82 73 133 133 -82 74 -148 hvcurveto
          -10 -344 rmoveto
          -120 274 120 43 callgsubr
        </CharString>
        <CharString name="U">
          80 -8 66 609 -39 callsubr
          557 -13 callgsubr
          -106 callgsubr
          393 -72 vlineto
          endchar
        </CharString>
        <CharString name="Uacute">
          80 -8 66 781 -39 callsubr
          388 839 rmoveto
          -57 -115 rlineto
          48 -11 callgsubr
          169 -172 rmoveto
          -106 callgsubr
          393 -72 vlineto
          endchar
        </CharString>
        <CharString name="Ubreve">
          80 -8 66 647 10 callsubr
          87 72 94 -25 callgsubr
          94 72 hintmask 10111010
          415 809 rmoveto
          hintmask 11011010
          66 callsubr
          hintmask 10111010
          -40 -17 17 39 -86 callsubr
          hintmask 10110110
          -73 callgsubr
          142 -142 rmoveto
          -106 callgsubr
          393 -72 vlineto
          endchar
        </CharString>
        <CharString name="Ucaron">
          80 -8 66 787 -39 callsubr
          337 724 -69 callsubr
          220 -57 rmoveto
          -106 callgsubr
          393 -72 vlineto
          endchar
        </CharString>
        <CharString name="Ucircumflex">
          80 -8 66 787 -39 callsubr
          379 845 rmoveto
          -42 hlineto
          -80 -121 -68 callgsubr
          121 rlineto
          178 -178 rmoveto
          -106 callgsubr
          393 -72 vlineto
          endchar
        </CharString>
        <CharString name="Udieresis">
          80 -8 66 666 80 -41 callgsubr
          85 80 68 80 85 72 vstem
          244 -78 callsubr
          165 -57 rmoveto
          -106 callgsubr
          393 -72 vlineto
          endchar
        </CharString>
        <CharString name="Udotbelow">
          80 13 callgsubr
          66 609 -26 callgsubr
          159 79 160 72 vstem
          397 -50 -85 callsubr
          160 717 rmoveto
          -106 callgsubr
          393 -72 vlineto
          endchar
        </CharString>
        <CharString name="Ugrave">
          80 -8 66 781 -39 callsubr
          328 839 rmoveto
          -74 hlineto
          84 -115 rlineto
          47 hlineto
          172 -57 rmoveto
          -106 callgsubr
          393 -72 vlineto
          endchar
        </CharString>
        <CharString name="Uhookabove">
          80 -8 66 768 43 -41 callgsubr
          225 48 125 72 vstem
          340 869 rmoveto
          -11 -10 -1 -74 callgsubr
          34 24 vlineto
          36 6 16 21 27 vvcurveto
          53 -50 14 -42 vhcurveto
          217 -202 rmoveto
          -106 callgsubr
          393 -72 vlineto
          endchar
        </CharString>
        <CharString name="Uhorn">
          151 -8 66 644 -39 callsubr
          769 702 rmoveto
          -86 -54 32 -49 rlineto
          -24 -35 -29 -10 -22 hhcurveto
          102 -72 -106 callgsubr
          249 vlineto
          28 37 11 30 47 hvcurveto
          0 83 53 0 vhcurveto
          -55 85 rlineto
          endchar
        </CharString>
        <CharString name="Uhornacute">
          151 -8 66 781 -39 callsubr
          462 839 rmoveto
          -74 hlineto
          -57 -115 rlineto
          48 hlineto
          83 -67 callsubr
          307 -137 rmoveto
          -86 -54 32 -49 rlineto
          -24 -35 -29 -10 -22 hhcurveto
          102 -72 -106 callgsubr
          249 vlineto
          28 37 11 30 47 hvcurveto
          0 83 53 0 vhcurveto
          -55 85 rlineto
          endchar
        </CharString>
        <CharString name="Uhorndotbelow">
          151 13 callgsubr
          66 644 -26 callgsubr
          159 79 160 72 vstem
          397 -50 -85 callsubr
          372 752 rmoveto
          -86 -54 32 -49 rlineto
          -24 -35 -29 -10 -22 hhcurveto
          102 -72 -106 callgsubr
          249 vlineto
          28 37 11 30 47 hvcurveto
          0 83 53 0 vhcurveto
          -55 85 rlineto
          endchar
        </CharString>
        <CharString name="Uhorngrave">
          151 -8 66 781 -39 callsubr
          254 839 -76 callsubr
          441 -137 rmoveto
          -86 -54 32 -49 rlineto
          -24 -35 -29 -10 -22 hhcurveto
          102 -72 -106 callgsubr
          249 vlineto
          28 37 11 30 47 hvcurveto
          0 83 53 0 vhcurveto
          -55 85 rlineto
          endchar
        </CharString>
        <CharString name="Uhornhookabove">
          151 -8 66 768 43 -41 callgsubr
          225 48 125 72 vstem
          340 869 rmoveto
          -11 -10 -1 -74 callgsubr
          34 24 vlineto
          36 6 16 21 27 vvcurveto
          53 -50 14 -42 vhcurveto
          429 -167 rmoveto
          -86 -54 32 -49 rlineto
          -24 -35 -29 -10 -22 hhcurveto
          102 -72 -106 callgsubr
          249 vlineto
          28 37 11 30 47 hvcurveto
          0 83 53 0 vhcurveto
          -55 85 rlineto
          endchar
        </CharString>
        <CharString name="Uhorntilde">
          151 -8 66 -41 callgsubr
          398 72 vstem
          498 745 -66 callsubr
          271 -43 rmoveto
          -86 -54 32 -49 rlineto
          -24 -35 -29 -10 -22 hhcurveto
          102 -72 -106 callgsubr
          249 vlineto
          28 37 11 30 47 hvcurveto
          0 83 53 0 vhcurveto
          -55 85 rlineto
          endchar
        </CharString>
        <CharString name="Uhungarumlaut">
          80 -8 66 666 115 -41 callgsubr
          398 72 vstem
          445 839 -63 callgsubr
          -119 hmoveto
          -57 -115 rlineto
          48 -11 callgsubr
          231 -172 rmoveto
          -106 callgsubr
          393 -72 vlineto
          endchar
        </CharString>
        <CharString name="Umacron">
          80 -8 66 678 53 -41 callgsubr
          398 72 vstem
          241 70 callsubr
          316 -69 rmoveto
          -106 callgsubr
          393 -72 vlineto
          endchar
        </CharString>
        <CharString name="Uogonek">
          80 -173 44 121 65 610 -26 callgsubr
          118 68 212 71 -1 callsubr
          -179 93 -100 170 -3 vhcurveto
          -24 -16 -49 11 callgsubr
          39 56 40 18 11 hvcurveto
          136 22 73 96 160 vvcurveto
          393 -71 vlineto
          endchar
        </CharString>
        <CharString name="Uring">
          80 -8 66 637 34 97 33 -41 callgsubr
          118 36 90 36 118 72 vstem
          358 859 -47 callgsubr
          -130 vmoveto
          -32 -13 13 35 35 13 14 32 32 13 -14 -35 -35 -13 -13 -32 hvcurveto
          199 -62 rmoveto
          -106 callgsubr
          393 -72 vlineto
          endchar
        </CharString>
        <CharString name="Utilde">
          80 -9 66 -41 callgsubr
          398 72 -1 callsubr
          -183 96 -100 175 175 96 100 183 vhcurveto
          393 -72 vlineto
          -58 78 -98 callsubr
          endchar
        </CharString>
        <CharString name="V">
          -30 29 callsubr
          518 -13 callgsubr
          -214 -564 -215 564 rlineto
          -77 hlineto
          256 -667 rlineto
          71 hlineto
          256 667 rlineto
          -77 hlineto
          endchar
        </CharString>
        <CharString name="W">
          310 29 callsubr
          862 667 -48 callsubr
        </CharString>
        <CharString name="Wacute">
          310 21 -21 839 -20 hstem
          862 667 -98 callgsubr
          -346 172 -63 callgsubr
          endchar
        </CharString>
        <CharString name="Wcircumflex">
          310 21 -21 845 -20 hstem
          496 845 rmoveto
          -41 hlineto
          -81 -121 -68 callgsubr
          121 rlineto
          366 -178 -48 callsubr
        </CharString>
        <CharString name="Wdieresis">
          310 21 -21 724 80 hstem
          361 80 68 80 vstem
          361 -78 callsubr
          353 -57 -48 callsubr
        </CharString>
        <CharString name="Wgrave">
          310 21 -21 839 -20 hstem
          862 667 -98 callgsubr
          -428 172 rmoveto
          -67 callgsubr
        </CharString>
        <CharString name="X">
          -52 29 callsubr
          337 337 rmoveto
          232 330 rlineto
          -88 hlineto
          -188 -268 -189 268 rlineto
          -86 hlineto
          231 -329 -237 -338 rlineto
          88 hlineto
          193 275 194 -275 rlineto
          86 hlineto
          -236 337 rlineto
          endchar
        </CharString>
        <CharString name="Y">
          -43 29 callsubr
          261 72 vstem
          494 667 -92 callgsubr
          endchar
        </CharString>
        <CharString name="Yacute">
          61 callsubr
          320 839 rmoveto
          -57 -5 callgsubr
          -73 hlineto
          174 -172 -92 callgsubr
          endchar
        </CharString>
        <CharString name="Ycircumflex">
          -43 21 -21 845 -20 hstem
          261 72 vstem
          317 845 rmoveto
          -41 hlineto
          -80 -121 -87 callsubr
          45 71 45 -71 -87 callsubr
          -81 121 rlineto
          177 -178 -92 callgsubr
          endchar
        </CharString>
        <CharString name="Ydieresis">
          -43 21 -21 724 80 hstemhm
          183 80 -2 72 -2 80 hintmask 11101000
          183 -78 callsubr
          163 -57 rmoveto
          -197 -291 -198 291 rlineto
          -87 hlineto
          hintmask 11010000
          19 callsubr
        </CharString>
        <CharString name="Ydotbelow">
          -43 -129 79 71 -21 667 -20 hstem
          261 72 vstem
          336 -50 -85 callsubr
          158 717 -92 callgsubr
          endchar
        </CharString>
        <CharString name="Ygrave">
          61 callsubr
          494 667 -92 callgsubr
          -219 172 rmoveto
          -67 callgsubr
        </CharString>
        <CharString name="Yhookabove">
          -43 21 -21 826 44 hstemhm
          261 72 -12 48 hintmask 11010000
          277 870 rmoveto
          -11 -23 callgsubr
          11 hhcurveto
          29 -62 callgsubr
          16 22 -33 callsubr
          217 -203 rmoveto
          -197 -291 -198 291 rlineto
          -87 hlineto
          hintmask 11100000
          19 callsubr
        </CharString>
        <CharString name="Ytilde">
          -43 21 -21 hstem
          261 72 vstem
          437 745 -100 callsubr
          57 -78 -92 callgsubr
          endchar
        </CharString>
        <CharString name="Z">
          56 callsubr
          hstem
          539 667 -71 callgsubr
        </CharString>
        <CharString name="Zacute">
          56 callsubr
          -72 244 hstemhm
          hintmask 10100000
          330 839 rmoveto
          -57 -115 rlineto
          48 -11 callgsubr
          hintmask 11000000
          209 -172 -71 callgsubr
        </CharString>
        <CharString name="Zcaron">
          56 callsubr
          -72 250 hstemhm
          hintmask 10100000
          293 22 callgsubr
          -46 -71 -45 71 -10 callgsubr
          81 -121 rlineto
          hintmask 11000000
          246 -57 -71 callgsubr
        </CharString>
        <CharString name="Zdotaccent">
          56 callsubr
          57 80 hstem
          262 80 vstem
          262 724 rmoveto
          -75 callgsubr
          277 -57 -71 callgsubr
        </CharString>
        <CharString name="a">
          -88 callsubr
          hstem
          60 callsubr
          73 vstem
          -43 callsubr
          150 vlineto
          136 -103 callsubr
          79 92 121 7 60 56 33 -6 0 vhcurveto
          0 0 -19 -77 vvcurveto
          endchar
        </CharString>
        <CharString name="aacute">
          -88 callsubr
          -72 243 39 callsubr
          hintmask 11101100
          -43 callsubr
          -89 callsubr
          79 92 121 7 60 56 33 -6 0 vhcurveto
          0 0 -19 -77 vvcurveto
          hintmask 11011100
          -113 529 -70 callgsubr
        </CharString>
        <CharString name="abreve">
          -88 callsubr
          37 10 callsubr
          56 39 callgsubr
          20 73 hintmask 1110111010000000
          -43 callsubr
          -89 callsubr
          79 92 121 7 60 56 33 -6 0 vhcurveto
          0 0 -19 -77 vvcurveto
          -69 499 rmoveto
          hintmask 1111011010000000
          -21 callsubr
          hintmask 1110111010000000
          -40 -17 16 40 -86 callsubr
          hintmask 1110110110000000
          -73 callgsubr
          endchar
        </CharString>
        <CharString name="abreveacute">
          -88 callsubr
          -72 103 48 187 -131 131 39 callsubr
          hintmask 11101011
          255 5 callgsubr
          -62 -51 -12 -14 -37 hvcurveto
          -69 vlineto
          6 19 55 17 72 hhcurveto
          90 56 -30 -94 0 -35 5 -46 -45 -96 callgsubr
          21 137 hvcurveto
          -89 callsubr
          80 91 121 7 60 56 33 -6 0 vhcurveto
          0 0 -19 -77 vvcurveto
          hintmask 11010111
          -126 389 rmoveto
          -66 -39 39 65 hvcurveto
          48 hlineto
          hintmask 11101011
          -40 17 -16 40 vhcurveto
          hintmask 11010111
          -2 callsubr
          endchar
        </CharString>
        <CharString name="abrevedotbelow">
          -107 13 callgsubr
          67 193 -31 callgsubr
          31 10 callsubr
          56 39 callgsubr
          -136 79 77 73 hintmask 1111011010100000
          255 5 callgsubr
          -62 -51 -12 -14 -37 hvcurveto
          -69 vlineto
          6 19 55 17 72 hhcurveto
          90 56 -30 -94 0 -35 5 -46 -45 -96 callgsubr
          21 137 hvcurveto
          -89 callsubr
          80 91 121 7 60 56 33 -6 0 vhcurveto
          0 0 -19 -77 vvcurveto
          -126 389 -23 callsubr
          hintmask 1111101101100000
          -21 callsubr
          hintmask 1111011101100000
          -40 -17 16 40 -86 callsubr
          48 -589 20 callsubr
        </CharString>
        <CharString name="abrevegrave">
          -88 callsubr
          31 48 -48 104 -104 235 hstemhm
          56 39 callgsubr
          20 73 hintmask 1110101011000000
          255 5 callgsubr
          -62 -51 -12 -14 -37 hvcurveto
          -69 vlineto
          6 19 55 17 72 hhcurveto
          90 56 -30 -94 0 -35 5 -46 -45 -96 callgsubr
          21 137 hvcurveto
          -89 callsubr
          80 91 121 7 60 56 33 -6 0 vhcurveto
          0 0 -19 -77 vvcurveto
          -126 389 -23 callsubr
          hintmask 1111001101000000
          -21 callsubr
          hintmask 1110101101000000
          -40 -17 16 40 -86 callsubr
          hintmask 1110011101000000
          -102 235 -76 callsubr
          endchar
        </CharString>
        <CharString name="abrevehookabove">
          -88 callsubr
          31 48 -48 104 -104 172 50 44 hstemhm
          56 39 callgsubr
          -84 49 55 73 hintmask 1110101101010000
          255 5 callgsubr
          -62 -51 -12 -14 -37 hvcurveto
          -69 vlineto
          6 19 55 17 72 hhcurveto
          90 56 -30 -94 0 -35 5 -46 -45 -96 callgsubr
          21 137 hvcurveto
          -89 callsubr
          80 91 121 7 60 56 33 -6 0 vhcurveto
          0 0 -19 -77 vvcurveto
          -126 389 -23 callsubr
          hintmask 1111001110110000
          -21 callsubr
          hintmask 1110101110110000
          -40 -17 16 40 -86 callsubr
          -22 266 8 callsubr
          8 2 callgsubr
          30 17 -9 -17 hvcurveto
          hintmask 1110011110110000
          62 callgsubr
          7 17 21 -33 callsubr
          endchar
        </CharString>
        <CharString name="abrevetilde">
          -88 callsubr
          31 10 callsubr
          56 39 callgsubr
          20 73 hintmask 1110110110000000
          413 715 -98 callsubr
          -158 -207 rmoveto
          -62 -51 -12 -14 -37 hvcurveto
          -69 vlineto
          6 19 55 17 72 hhcurveto
          90 56 -30 -94 0 -35 5 -46 -45 -96 callgsubr
          21 137 hvcurveto
          -89 callsubr
          80 91 121 7 60 56 33 -6 0 vhcurveto
          0 0 -19 -77 vvcurveto
          -126 389 -23 callsubr
          hintmask 1111011010000000
          -21 callsubr
          hintmask 1110111010000000
          -40 -17 16 40 -86 callsubr
          endchar
        </CharString>
        <CharString name="acaron">
          -88 callsubr
          -72 248 39 callsubr
          hintmask 11101100
          -43 callsubr
          -89 callsubr
          79 92 121 7 60 56 33 -6 0 vhcurveto
          0 0 -19 -77 vvcurveto
          -141 414 rmoveto
          42 hlineto
          hintmask 11011100
          80 -14 callsubr
        </CharString>
        <CharString name="acircumflex">
          -107 -8 54 callgsubr
          56 120 -20 39 callsubr
          hintmask 1001011110000000
          -43 callsubr
          151 vlineto
          hintmask 0100101110000000
          -102 callgsubr
          79 92 121 7 60 56 33 -6 0 vhcurveto
          0 0 -19 -77 vvcurveto
          -99 534 rmoveto
          -42 hlineto
          hintmask 1010011110000000
          -80 -77 callgsubr
          endchar
        </CharString>
        <CharString name="acircumflexacute">
          -88 callsubr
          245 -20 hstem
          60 callsubr
          73 vstem
          255 5 callgsubr
          -62 -51 -12 -14 -37 hvcurveto
          -69 vlineto
          6 19 55 17 72 hhcurveto
          90 56 -30 -94 0 -35 5 -46 -45 -96 callgsubr
          21 137 hvcurveto
          -89 callsubr
          80 91 121 7 60 56 33 -6 0 vhcurveto
          0 0 -19 -77 vvcurveto
          -120 467 -86 callgsubr
          endchar
        </CharString>
        <CharString name="acircumflexdotbelow">
          -107 13 callgsubr
          54 callgsubr
          39 120 -20 hstemhm
          56 72 113 79 77 73 hintmask 1100101111100000
          255 5 callgsubr
          -62 -51 -12 -14 -37 hvcurveto
          -69 vlineto
          6 19 55 17 72 hhcurveto
          90 56 -30 -94 0 -35 5 -46 -45 -96 callgsubr
          21 137 hvcurveto
          151 vlineto
          hintmask 1010010111100000
          -102 callgsubr
          80 91 121 7 60 56 33 -6 0 vhcurveto
          0 0 -19 -77 vvcurveto
          -120 467 rmoveto
          hintmask 1101001111100000
          -106 callsubr
          42 -667 20 callsubr
        </CharString>
        <CharString name="acircumflexgrave">
          -88 callsubr
          245 -20 hstem
          60 callsubr
          73 vstem
          255 5 callgsubr
          -62 -51 -12 -14 -37 hvcurveto
          -69 vlineto
          6 19 55 17 72 hhcurveto
          90 56 -30 -94 0 -35 5 -46 -45 -96 callgsubr
          21 137 hvcurveto
          -89 callsubr
          80 91 121 7 60 56 33 -6 0 vhcurveto
          0 0 -19 -77 vvcurveto
          -121 467 -80 callgsubr
          endchar
        </CharString>
        <CharString name="acircumflexhookabove">
          -88 callsubr
          39 131 50 44 51 callgsubr
          43 -43 73 hintmask 11111101
          255 5 callgsubr
          -62 -51 -12 -14 -37 hvcurveto
          -69 vlineto
          6 19 55 17 72 hhcurveto
          90 56 -30 -94 0 -35 5 -46 -45 -96 callgsubr
          21 137 hvcurveto
          -89 callsubr
          80 91 121 7 60 56 33 -6 0 vhcurveto
          0 0 -19 -77 vvcurveto
          -120 467 -105 callgsubr
          70 155 rmoveto
          -11 -10 -2 -1 -10 hvcurveto
          -43 vlineto
          1 -55 callgsubr
          33 24 vlineto
          hintmask 11111110
          37 6 16 22 -33 callsubr
          endchar
        </CharString>
        <CharString name="acircumflextilde">
          -107 -8 54 callgsubr
          33 39 callsubr
          hintmask 10100111
          422 712 -100 callsubr
          -144 -101 -105 callgsubr
          -23 -103 rmoveto
          -62 -51 -12 -14 -37 hvcurveto
          -69 vlineto
          hintmask 10010111
          6 19 55 17 72 hhcurveto
          90 56 -30 -94 0 -35 5 -46 -45 -96 callgsubr
          21 137 hvcurveto
          151 vlineto
          hintmask 01001011
          -102 callgsubr
          80 91 121 7 60 56 33 -6 0 vhcurveto
          0 0 -19 -77 vvcurveto
          endchar
        </CharString>
        <CharString name="acute">
          -405 585 67 callsubr
          117 0 callgsubr
          endchar
        </CharString>
        <CharString name="adieresis">
          -88 callsubr
          56 79 hstem
          56 72 36 80 68 80 5 73 vstem
          164 564 7 callsubr
          -57 -56 rmoveto
          -62 -51 -13 -13 -37 hvcurveto
          -70 vlineto
          7 19 55 17 72 hhcurveto
          90 56 -30 -94 0 -35 5 -45 -46 -96 callgsubr
          20 138 hvcurveto
          -89 callsubr
          79 92 121 7 60 56 33 -6 0 vhcurveto
          0 0 -19 -77 vvcurveto
          endchar
        </CharString>
        <CharString name="adotbelow">
          -107 13 callgsubr
          67 193 -31 callgsubr
          hstem
          56 72 113 79 77 73 vstem
          320 -50 -85 callsubr
          -65 558 rmoveto
          -62 -51 -12 -14 -37 hvcurveto
          -69 vlineto
          6 19 55 17 72 hhcurveto
          90 56 -30 -94 0 -35 5 -46 -45 -96 callgsubr
          21 137 hvcurveto
          -89 callsubr
          80 91 121 7 60 56 33 -6 0 vhcurveto
          0 0 -19 -77 vvcurveto
          endchar
        </CharString>
        <CharString name="ae">
          250 -8 72 143 64 -19 -31 callgsubr
          hstemhm
          54 72 269 72 hintmask 10111100
          55 callgsubr
          -35 -61 28 -88 hhcurveto
          -62 -50 -13 -13 -37 hvcurveto
          -70 vlineto
          7 19 54 17 73 hhcurveto
          90 56 -30 -94 0 -36 5 -45 -45 -90 callgsubr
          48 90 11 63 43 hvcurveto
          -58 45 70 -16 63 hhcurveto
          51 callsubr
          49 61 callgsubr
          -43 -56 -12 -72 hhcurveto
          hintmask 11011100
          -104 -66 callgsubr
          2 16 19 vvcurveto
          19 7 247 -227 vhcurveto
          -218 -358 rmoveto
          -76 -70 -15 -62 -63 -74 15 79 vhcurveto
          hintmask 10111100
          92 121 7 60 56 32 -6 0 vhcurveto
          0 0 -19 -77 vvcurveto
          hintmask 11011100
          72 121 rmoveto
          123 7 42 46 -20 callsubr
          -24 hvcurveto
          -292 hlineto
          endchar
        </CharString>
        <CharString name="aeacute">
          250 -8 72 143 64 -19 -31 callgsubr
          -72 243 hstemhm
          54 72 269 72 hintmask 10110110
          55 callgsubr
          -34 -62 28 -87 hhcurveto
          -62 -51 -13 -13 -37 hvcurveto
          -70 vlineto
          7 19 55 17 72 hhcurveto
          90 56 -30 -95 0 -35 6 -46 -45 -215 1 -166 -140 144 -20 65 48 90 11 63 43 hvcurveto
          -58 46 70 -16 62 hhcurveto
          72 58 12 23 49 61 callgsubr
          -43 -56 -12 -72 hhcurveto
          hintmask 11010110
          -103 -66 callgsubr
          1 16 19 vvcurveto
          19 7 247 -227 vhcurveto
          -217 -358 rmoveto
          -76 -71 -15 -62 -62 -75 15 79 vhcurveto
          hintmask 10110110
          92 121 7 60 56 33 -7 0 vhcurveto
          0 0 -18 -77 vvcurveto
          hintmask 11001110
          71 121 rmoveto
          123 7 42 46 -20 callsubr
          -24 hvcurveto
          -292 hlineto
          9 408 rmoveto
          -57 -5 callgsubr
          -73 hlineto
          endchar
        </CharString>
        <CharString name="agrave">
          -88 callsubr
          -72 243 39 callsubr
          hintmask 11101100
          -43 callsubr
          -89 callsubr
          79 92 121 7 60 56 33 -6 0 vhcurveto
          0 0 -19 -77 vvcurveto
          hintmask 11011100
          -151 529 35 callgsubr
          endchar
        </CharString>
        <CharString name="ahookabove">
          -88 callsubr
          -72 180 50 44 hstemhm
          56 72 159 48 62 73 hintmask 11011111
          243 710 rmoveto
          -11 -10 -2 -74 callgsubr
          34 24 vlineto
          36 6 16 22 -33 callsubr
          hintmask 11101111
          12 -202 rmoveto
          -62 -51 -12 -14 -37 hvcurveto
          -69 vlineto
          6 19 55 17 72 hhcurveto
          90 56 -30 -94 0 -35 5 -46 -45 -96 callgsubr
          21 137 hvcurveto
          -89 callsubr
          80 91 121 7 60 56 33 -6 0 vhcurveto
          0 0 -19 -77 vvcurveto
          endchar
        </CharString>
        <CharString name="amacron">
          -88 callsubr
          68 53 hstem
          60 callsubr
          73 vstem
          153 576 -46 callgsubr
          102 -68 rmoveto
          -62 -51 -13 -13 -37 hvcurveto
          -70 vlineto
          7 19 55 17 72 hhcurveto
          90 56 -30 -94 0 -35 5 -45 -46 -96 callgsubr
          20 138 hvcurveto
          -89 callsubr
          79 92 121 7 60 56 33 -6 0 vhcurveto
          0 0 -19 -77 vvcurveto
          endchar
        </CharString>
        <CharString name="ampersand">
          -1 -8 70 -41 -21 602 72 hstemhm
          54 71 -2 70 166 67 hintmask 10101100
          495 133 rmoveto
          33 54 18 59 8 44 rrcurveto
          -65 hlineto
          -6 -23 -13 -38 -22 -39 -145 173 rcurveline
          83 48 40 42 74 vvcurveto
          82 -67 65 -85 -83 -68 -68 -83 -47 37 -55 29 -36 vhcurveto
          hintmask 10110100
          -118 -65 -17 -72 -64 vvcurveto
          -74 57 -118 152 81 61 34 48 46 vhcurveto
          hintmask 01101100
          61 -74 rlineto
          94 hlineto
          -111 133 rlineto
          -219 469 rmoveto
          47 36 -32 -44 -35 -11 -24 -92 -49 hvcurveto
          -30 33 -33 46 25 vvcurveto
          44 37 36 46 vhcurveto
          hintmask 10110100
          -10 -540 rmoveto
          -116 -25 90 34 35 0 55 109 58 hvcurveto
          174 -209 rlineto
          -36 -33 -46 -27 -63 hhcurveto
          endchar
        </CharString>
        <CharString name="aogonek">
          -107 -173 44 121 67 193 -31 callgsubr
          hstem
          56 72 50 68 151 73 vstem
          -60 callsubr
          -132 126 -26 69 -3 hvcurveto
          -24 -16 -49 -39 -46 vvcurveto
          -59 41 -5 25 49 callsubr
          -13 -9 -16 25 callsubr
          39 56 40 18 11 hvcurveto
          68 12 82 36 106 vvcurveto
          -89 callsubr
          79 92 121 7 60 56 33 -6 0 vhcurveto
          0 0 -19 -77 vvcurveto
          endchar
        </CharString>
        <CharString name="approxequal">
          -30 511 401 rmoveto
          15 callsubr
          -233 137 127 rrcurveto
          -97 vmoveto
          15 callsubr
          -234 137 127 rrcurveto
          endchar
        </CharString>
        <CharString name="aring">
          -88 callsubr
          27 33 97 34 hstem
          56 72 64 36 90 36 43 73 vstem
          -43 callsubr
          -89 callsubr
          79 92 121 7 60 56 33 -6 0 vhcurveto
          0 0 -19 -77 vvcurveto
          -125 549 -27 callgsubr
        </CharString>
        <CharString name="asciicircum">
          -81 494 -21 217 -20 hstem
          293 690 rmoveto
          -55 hlineto
          -104 -217 rlineto
          60 hlineto
          72 159 71 -159 rlineto
          60 hlineto
          -104 217 rlineto
          endchar
        </CharString>
        <CharString name="asciitilde">
          -141 402 312 rmoveto
          -101 -127 -102 234 -101 -127 rrcurveto
          -61 vlineto
          101 127 102 -233 101 127 rrcurveto
          60 vlineto
          endchar
        </CharString>
        <CharString name="asterisk">
          -230 481 -21 243 -20 hstem
          325 620 rmoveto
          -27 46 -75 -54 8 91 rlineto
          -54 hlineto
          10 -91 -76 54 -27 -46 87 -39 -87 -38 27 -48 76 55 -10 -90 rlineto
          54 hlineto
          -8 90 75 -55 27 48 -86 38 86 39 rlineto
          endchar
        </CharString>
        <CharString name="at">
          272 -149 36 145 35 -35 58 143 58 95 57 121 38 hstemhm
          83 39 169 58 234 58 162 38 hintmask 1101111111000000
          508 291 rmoveto
          -188 -29 -91 -54 -71 56 -43 94 74 43 21 28 27 hvcurveto
          -28 15 27 -21 51 hhcurveto
          100 63 105 141 236 -202 88 -128 -202 -226 -173 -248 -241 193 -89 133 81 69 12 28 59 hvcurveto
          9 45 rlineto
          -32 -56 -66 -17 -88 hhcurveto
          -63 -232 28 266 216 191 167 198 131 161 -91 -198 -141 -70 -67 -51 -99 58 121 119 89 -54 47 -101 -44 -40 -9 -11 -33 hvcurveto
          -8 -58 rlineto
          11 29 40 10 56 hhcurveto
          90 7 -41 -38 -7 0 -7 -1 -7 hvcurveto
          3 -23 -25 2 -26 hhcurveto
          hintmask 1011111111000000
          -67 -201 rmoveto
          -42 -50 9 47 58 53 29 106 24 22 -1 -3 20 hvcurveto
          -62 -8 7 -77 -132 hhcurveto
          endchar
        </CharString>
        <CharString name="atilde">
          -88 callsubr
          hstem
          60 callsubr
          73 vstem
          255 5 callgsubr
          -62 -51 -12 -14 -37 hvcurveto
          -69 vlineto
          6 19 55 17 72 hhcurveto
          90 56 -30 -94 0 -35 5 -46 -45 -96 callgsubr
          21 137 hvcurveto
          -89 callsubr
          80 91 121 7 60 56 33 -6 0 vhcurveto
          0 0 -19 -77 vvcurveto
          15 435 -98 callsubr
          endchar
        </CharString>
        <CharString name="b">
          -71 -8 66 383 44 callsubr
          5 callgsubr
          -42 -42 -7 -13 -39 hvcurveto
          202 -72 -540 vlineto
          -37 14 -121 190 82 138 34 230 208 -125 44 -104 vhcurveto
          9 -450 rmoveto
          -88 -44 29 59 hvcurveto
          270 vlineto
          16 39 41 9 43 hhcurveto
          110 47 -55 -130 -178 -85 -20 -63 hvcurveto
          endchar
        </CharString>
        <CharString name="backslash">
          -273 -77 -21 854 -20 hstem
          29 756 rmoveto
          -66 hlineto
          368 -854 rlineto
          65 hlineto
          -367 854 rlineto
          endchar
        </CharString>
        <CharString name="bar">
          -198 -78 -21 764 -20 hstem
          185 72 vstem
          257 -99 rmoveto
          764 -72 -764 72 vlineto
          endchar
        </CharString>
        <CharString name="braceleft">
          -268 -110 67 672 68 hstemhm
          154 72 -72 150 hintmask 11100000
          226 35 rmoveto
          161 vlineto
          43 -24 31 -34 23 vhcurveto
          34 23 24 32 42 vvcurveto
          161 vlineto
          hintmask 11010000
          62 29 14 49 2 vhcurveto
          68 vlineto
          -97 -53 -54 -97 hvcurveto
          -156 vlineto
          -46 -36 -19 -27 -7 vhcurveto
          -49 vlineto
          27 -8 36 -19 -46 vvcurveto
          -156 vlineto
          -97 53 -53 97 vhcurveto
          67 vlineto
          hintmask 11100000
          -49 2 -29 15 61 vvcurveto
          endchar
        </CharString>
        <CharString name="braceright">
          -273 -110 67 672 68 hstemhm
          76 150 -72 72 hintmask 11010000
          154 35 rmoveto
          hintmask 11100000
          -61 -28 -15 -50 -2 vhcurveto
          -67 vlineto
          97 53 53 97 hvcurveto
          156 vlineto
          46 36 19 27 8 vhcurveto
          49 vlineto
          -27 7 -36 19 46 vvcurveto
          156 vlineto
          97 -53 54 -97 vhcurveto
          -68 vlineto
          hintmask 11010000
          50 -2 28 -14 -62 vvcurveto
          -161 vlineto
          -42 25 -32 34 -23 vhcurveto
          -34 -23 -25 -31 -43 vvcurveto
          -161 vlineto
          endchar
        </CharString>
        <CharString name="bracketleft">
          -258 -116 68 676 68 hstemhm
          119 72 -72 181 hintmask 11100000
          191 628 rmoveto
          hintmask 11010000
          109 68 -181 -812 181 68 hlineto
          hintmask 11100000
          -109 676 hlineto
          endchar
        </CharString>
        <CharString name="bracketright">
          -260 -116 68 676 68 hstemhm
          84 180 -72 72 hintmask 11010000
          192 628 rmoveto
          -676 vlineto
          hintmask 11100000
          -108 -68 180 812 -180 -68 hlineto
          hintmask 11010000
          108 hlineto
          endchar
        </CharString>
        <CharString name="breve">
          -213 545 10 callsubr
          111 -25 callgsubr
          hintmask 01100000
          273 649 rmoveto
          hintmask 10100000
          -21 callsubr
          hintmask 01100000
          -40 -17 16 40 60 callgsubr
          40 -39 65 vhcurveto
          hintmask 01010000
          -73 callgsubr
          endchar
        </CharString>
        <CharString name="bullet">
          -226 218 231 hstem
          90 231 vstem
          321 334 rmoveto
          64 -52 51 -63 -64 -52 -51 -64 -64 52 -52 64 63 52 52 64 vhcurveto
          endchar
        </CharString>
        <CharString name="c">
          25 callgsubr
          hstem
          58 72 vstem
          130 250 rmoveto
          -47 callsubr
          54 callsubr
          -214 127 -44 107 51 50 9 18 47 hvcurveto
          -58 callsubr
          hvcurveto
          endchar
        </CharString>
        <CharString name="cacute">
          25 callgsubr
          -69 240 hstemhm
          58 72 hintmask 10110000
          318 679 rmoveto
          -57 -115 rlineto
          47 hlineto
          84 -67 callsubr
          -74 hlineto
          -188 -429 rmoveto
          -47 callsubr
          hintmask 11010000
          18 -47 -50 10 -51 -42 callgsubr
          51 50 9 18 47 hvcurveto
          -58 callsubr
          hvcurveto
          endchar
        </CharString>
        <CharString name="caron">
          -235 585 -21 120 -20 hstem
          182 564 rmoveto
          41 hlineto
          -42 callsubr
          81 -120 rlineto
          endchar
        </CharString>
        <CharString name="ccaron">
          25 callgsubr
          -69 245 hstemhm
          58 72 hintmask 10110000
          257 564 rmoveto
          41 hlineto
          81 -18 callgsubr
          -46 -70 -45 70 -10 callgsubr
          81 -120 rlineto
          -127 -314 rmoveto
          -47 callsubr
          hintmask 11010000
          18 -47 -50 10 -51 -42 callgsubr
          51 50 9 18 47 hvcurveto
          -58 callsubr
          hvcurveto
          endchar
        </CharString>
        <CharString name="ccedilla">
          -169 -119 180 -69 69 378 69 hstemhm
          58 72 hintmask 01110000
          300 439 rmoveto
          49 47 -10 -18 44 hvcurveto
          69 vlineto
          54 callsubr
          -200 112 -52 102 -6 hvcurveto
          hintmask 10110000
          -80 -111 rlineto
          76 hlineto
          62 112 38 4 36 9 36 13 rlinecurve
          -58 callsubr
          132 51 57 119 hvcurveto
          endchar
        </CharString>
        <CharString name="ccircumflex">
          25 callgsubr
          56 callgsubr
          58 72 hintmask 10111000
          298 14 callsubr
          -168 -434 rmoveto
          hintmask 11011000
          -47 callsubr
          18 -47 -50 10 -51 -42 callgsubr
          51 50 9 18 47 hvcurveto
          -58 callsubr
          hvcurveto
          endchar
        </CharString>
        <CharString name="cdotaccent">
          25 callgsubr
          56 79 hstem
          58 72 106 79 vstem
          236 48 callsubr
          -106 -314 rmoveto
          -47 callsubr
          18 -47 -50 10 -51 -42 callgsubr
          51 50 9 18 47 hvcurveto
          -58 callsubr
          hvcurveto
          endchar
        </CharString>
        <CharString name="cedilla">
          -388 -99 67 callsubr
          195 -5 rmoveto
          -57 hlineto
          -82 -115 rlineto
          76 hlineto
          63 -67 callsubr
          endchar
        </CharString>
        <CharString name="cent">
          -164 32 callgsubr
          hstemhm
          57 72 129 50 -50 180 hintmask 11101000
          438 495 rmoveto
          69 vlineto
          hintmask 11110000
          -41 16 -44 10 -45 1 rrcurveto
          76 -50 -77 vlineto
          -99 -9 -102 -56 -191 vvcurveto
          -192 102 -55 99 -10 vhcurveto
          -77 50 76 vlineto
          hintmask 11101000
          45 2 44 9 41 16 rrcurveto
          70 vlineto
          hintmask 11110000
          -41 -18 -44 -9 -45 -1 rrcurveto
          377 vlineto
          hintmask 11101000
          45 -1 44 -9 41 -17 rrcurveto
          -309 -161 rmoveto
          116 39 57 90 13 vhcurveto
          -372 vlineto
          -90 12 -39 58 116 vvcurveto
          endchar
        </CharString>
        <CharString name="circumflex">
          -239 585 -21 120 -20 hstem
          223 684 rmoveto
          -41 hlineto
          -81 -77 callgsubr
          endchar
        </CharString>
        <CharString name="colon">
          -250 48 80 240 80 hstem
          158 80 vstem
          158 48 rmoveto
          -75 callgsubr
          320 vmoveto
          -75 callgsubr
          endchar
        </CharString>
        <CharString name="comma">
          -328 -91 -21 196 -20 hstem
          148 84 rmoveto
          -50 callsubr
          endchar
        </CharString>
        <CharString name="commaaccent">
          -373 -172 -21 144 -20 hstem
          183 -49 21 callsubr
        </CharString>
        <CharString name="copyright">
          137 -8 35 107 39 320 40 107 35 hstem
          48 36 135 42 435 36 vstem
          390 -8 -65 callsubr
          -129 -307 rmoveto
          111 44 49 99 40 38 -7 -15 36 vhcurveto
          40 vlineto
          15 -38 -40 7 -41 hhcurveto
          -120 -60 -67 -133 -132 60 -67 120 41 40 7 15 38 hvcurveto
          40 vlineto
          -15 -36 -38 -8 -40 hhcurveto
          -99 -44 50 110 hvcurveto
          endchar
        </CharString>
        <CharString name="d">
          -79 -8 66 383 66 182 -20 hstem
          63 72 280 72 vstem
          5 callsubr
          6 -43 hhcurveto
          -104 -124 -43 -8 callgsubr
          endchar
        </CharString>
        <CharString name="dagger">
          -179 118 -21 387 48 135 -20 hstem
          208 48 vstem
          369 532 rmoveto
          -113 135 -48 -135 -114 -48 114 -387 48 387 113 48 hlineto
          endchar
        </CharString>
        <CharString name="daggerdbl">
          -147 21 -21 147 60 202 60 147 -20 hstem
          216 60 vstem
          276 409 rmoveto
          147 60 -147 147 -60 -147 -148 -60 148 -202 46 callgsubr
          -147 202 hlineto
          endchar
        </CharString>
        <CharString name="dcaron">
          19 -8 66 383 67 181 -20 hstemhm
          63 72 280 72 -72 207 hintmask 11111000
          5 callsubr
          7 -43 hhcurveto
          -104 -124 -44 -8 callgsubr
          hintmask 11110100
          487 433 rmoveto
          -59 hlineto
          -28 -3 -47 -38 63 callsubr
          38 95 vvcurveto
          endchar
        </CharString>
        <CharString name="dcroat">
          -41 -8 66 383 67 57 61 63 -20 hstem
          63 72 280 72 vstem
          554 626 rmoveto
          -67 63 -72 -63 -132 -61 132 -77 hlineto
          13 -40 -41 7 -43 hhcurveto
          -104 -124 -44 -208 -230 137 -34 82 190 15 120 37 hvcurveto
          416 67 61 vlineto
          -139 -480 rmoveto
          -59 -45 -29 -88 -63 -84 20 178 129 47 56 109 43 42 -9 -16 39 vhcurveto
          -270 vlineto
          endchar
        </CharString>
        <CharString name="degree">
          -254 447 36 150 36 hstem
          82 36 146 36 vstem
          191 669 rmoveto
          -72 -37 -39 -72 -73 37 -38 72 71 38 38 73 72 -38 39 -71 hvcurveto
          -186 vmoveto
          -52 -21 22 53 52 21 23 52 51 22 -23 -52 -53 -22 -22 -51 hvcurveto
          endchar
        </CharString>
        <CharString name="dieresis">
          -256 564 79 hstem
          79 79 69 79 vstem
          79 564 -35 callsubr
        </CharString>
        <CharString name="divide">
          -13 74 80 -80 153 60 152 -80 80 hstemhm
          hintmask 10010000
          274 359 rmoveto
          -75 callgsubr
          -285 vmoveto
          -75 callgsubr
          hintmask 01100000
          243 153 rmoveto
          -406 60 406 -60 hlineto
          endchar
        </CharString>
        <CharString name="dollar">
          -64 -87 -21 100 72 540 72 100 -20 hstemhm
          75 72 118 54 -54 207 -29 72 hintmask 11111101
          515 170 rmoveto
          133 -100 42 -96 30 vhcurveto
          229 vlineto
          hintmask 11111010
          65 -1 52 -21 36 -20 rrcurveto
          74 vlineto
          hintmask 11111101
          -40 20 -51 17 -62 3 rrcurveto
          100 -54 -102 vlineto
          -139 -14 -51 -87 -83 vvcurveto
          -114 96 -30 94 -28 vhcurveto
          -254 vlineto
          -86 2 -60 26 -38 25 rrcurveto
          -78 vlineto
          45 -24 60 -21 79 -2 rrcurveto
          -100 54 102 vlineto
          124 11 72 64 101 vvcurveto
          -368 320 rmoveto
          62 41 38 77 11 vhcurveto
          -209 vlineto
          -66 20 -52 23 55 vvcurveto
          172 -424 rmoveto
          235 vlineto
          68 -24 56 -31 -76 vvcurveto
          -71 -60 -25 -64 -8 vhcurveto
          endchar
        </CharString>
        <CharString name="dong">
          -228 128 40 32 43 252 44 38 40 42 -20 hstem
          56 47 184 48 vstem
          335 617 rmoveto
          42 -48 -42 -86 -40 86 -51 vlineto
          9 -25 -28 4 -28 hhcurveto
          -68 -82 -28 -137 -151 90 -23 54 125 10 79 25 hvcurveto
          273 44 40 -44 vlineto
          -48 -316 rmoveto
          -38 -29 -20 -58 -41 -56 14 117 85 31 36 72 29 27 -5 -11 25 vhcurveto
          -178 vlineto
          -231 -173 rmoveto
          299 40 -299 -40 hlineto
          endchar
        </CharString>
        <CharString name="dotaccent">
          -318 564 79 hstem
          125 79 vstem
          125 48 callsubr
          endchar
        </CharString>
        <CharString name="dotbelowcmb">
          -641 -129 79 hstem
          -268 79 vstem
          -189 -50 20 callsubr
        </CharString>
        <CharString name="dotlessi">
          21 -21 499 -20 hstem
          99 72 vstem
          171 hmoveto
          499 -72 -499 72 vlineto
          endchar
        </CharString>
        <CharString name="dotlessj">
          -390 -193 67 625 -20 47 callsubr
          105 -25 rmoveto
          -41 callsubr
          -524 hlineto
          endchar
        </CharString>
        <CharString name="e">
          -55 callsubr
          hstem
          63 73 vstem
          -107 callsubr
          endchar
        </CharString>
        <CharString name="eacute">
          -55 callsubr
          -68 239 hstemhm
          63 73 hintmask 11101000
          -107 callsubr
          hintmask 11011000
          168 408 -70 callgsubr
        </CharString>
        <CharString name="ebreve">
          -55 callsubr
          37 10 callsubr
          63 73 43 -25 callgsubr
          hintmask 11101110
          -107 callsubr
          205 378 rmoveto
          hintmask 11110110
          -21 callsubr
          hintmask 11101110
          -40 -17 16 40 -86 callsubr
          hintmask 11101101
          65 40 39 65 -37 callgsubr
          endchar
        </CharString>
        <CharString name="ecaron">
          -55 callsubr
          -68 244 hstemhm
          63 73 hintmask 11101000
          -107 callsubr
          125 293 rmoveto
          42 hlineto
          hintmask 11011000
          80 -14 callsubr
        </CharString>
        <CharString name="ecircumflex">
          -55 callsubr
          56 callgsubr
          63 73 hintmask 11101100
          -107 callsubr
          167 413 rmoveto
          -42 hlineto
          hintmask 11011100
          -80 -77 callgsubr
          endchar
        </CharString>
        <CharString name="ecircumflexacute">
          -6 callgsubr
          245 -20 hstem
          63 73 vstem
          -2 callgsubr
          -104 callsubr
          -85 callgsubr
          147 346 -86 callgsubr
          endchar
        </CharString>
        <CharString name="ecircumflexdotbelow">
          -86 13 callgsubr
          72 144 63 0 170 67 39 120 -20 hstemhm
          63 73 114 79 hintmask 11101111
          282 617 -105 callgsubr
          -109 vmoveto
          -104 callsubr
          hintmask 11011111
          -85 callgsubr
          193 -321 20 callsubr
        </CharString>
        <CharString name="ecircumflexgrave">
          -6 callgsubr
          245 -20 hstem
          63 73 vstem
          -2 callgsubr
          -104 callsubr
          -85 callgsubr
          146 346 -80 callgsubr
          endchar
        </CharString>
        <CharString name="ecircumflexhookabove">
          -6 callgsubr
          39 131 50 44 hstem
          63 73 261 48 vstem
          -2 callgsubr
          -104 callsubr
          -85 callgsubr
          147 346 -105 callgsubr
          70 155 rmoveto
          -11 -10 -2 -74 callgsubr
          33 24 vlineto
          37 6 16 22 -33 callsubr
          endchar
        </CharString>
        <CharString name="ecircumflextilde">
          -86 -8 72 144 63 0 170 67 33 hstemhm
          63 73 hintmask 11011000
          426 712 -100 callsubr
          -144 -101 -105 callgsubr
          -103 vmoveto
          -104 callsubr
          hintmask 10111000
          -85 callgsubr
          endchar
        </CharString>
        <CharString name="edieresis">
          -55 callsubr
          56 79 hstem
          63 73 32 80 68 80 vstem
          -107 callsubr
          32 293 7 callsubr
          endchar
        </CharString>
        <CharString name="edotaccent">
          -55 callsubr
          56 79 hstem
          63 73 108 79 vstem
          -107 callsubr
          108 293 rmoveto
          72 callgsubr
        </CharString>
        <CharString name="edotbelow">
          -86 13 callgsubr
          26 callgsubr
          hstem
          63 73 115 79 vstem
          330 -50 -85 callsubr
          -48 558 rmoveto
          -104 callsubr
          -85 callgsubr
          endchar
        </CharString>
        <CharString name="egrave">
          -55 callsubr
          -68 239 hstemhm
          63 73 hintmask 11101000
          -107 callsubr
          hintmask 11011000
          131 408 rmoveto
          -67 callgsubr
        </CharString>
        <CharString name="ehookabove">
          -6 callgsubr
          -67 175 50 44 hstemhm
          63 73 173 48 hintmask 11011110
          266 710 rmoveto
          -12 -23 callgsubr
          11 hhcurveto
          29 -62 callgsubr
          16 22 26 vvcurveto
          53 -50 15 -41 vhcurveto
          hintmask 11101110
          16 -202 rmoveto
          -104 callsubr
          -85 callgsubr
          endchar
        </CharString>
        <CharString name="eight">
          -59 -8 68 262 66 217 71 2 callsubr
          -47 72 268 72 -47 47 -47 72 hintmask 11101100
          411 361 rmoveto
          0 87 34 108 vvcurveto
          84 -54 89 -152 -151 -55 -89 -84 -105 90 -38 0 vhcurveto
          hintmask 11110001
          0 -115 -39 -123 vvcurveto
          -95 61 -111 170 171 60 111 95 122 -112 41 0 vhcurveto
          hintmask 11101100
          -253 142 rmoveto
          85 73 17 61 61 73 -17 -85 -72 -50 -43 -84 -84 -50 43 72 vhcurveto
          134 -443 rmoveto
          hintmask 11110010
          -147 -12 106 32 80 57 44 102 103 56 -44 -80 -32 -11 -106 -148 hvcurveto
          endchar
        </CharString>
        <CharString name="eight.denominator">
          -309 -3 37 140 36 116 38 -40 callgsubr
          195 rmoveto
          0 46 19 58 vvcurveto
          44 -29 48 -81 -82 -29 -48 -44 -59 callsubr
          22 0 vhcurveto
          hintmask 11101100
          -136 77 rmoveto
          45 39 9 33 33 39 -9 26 callsubr
          56 18 42 31 24 55 55 30 -24 -42 -18 -6 -56 -79 hvcurveto
          endchar
        </CharString>
        <CharString name="eight.inferior">
          -309 -154 37 140 36 117 37 -40 callgsubr
          45 rmoveto
          0 46 18 58 vvcurveto
          45 -29 47 -81 -82 -29 -47 -45 -59 callsubr
          23 0 vhcurveto
          hintmask 11101100
          -136 76 rmoveto
          45 39 10 33 33 39 -10 26 callsubr
          57 17 43 31 23 55 55 30 -23 58 callsubr
          endchar
        </CharString>
        <CharString name="eight.numerator">
          -309 311 36 141 36 116 38 -40 callgsubr
          509 -78 callgsubr
        </CharString>
        <CharString name="eight.superior">
          -309 459 36 141 36 116 38 -40 callgsubr
          657 -78 callgsubr
        </CharString>
        <CharString name="ellipsis">
          129 0 80 hstem
          107 80 160 79 160 79 vstem
          107 hmoveto
          -75 callgsubr
          479 hmoveto
          50 callsubr
          -239 hmoveto
          50 callsubr
          endchar
        </CharString>
        <CharString name="emacron">
          -55 callsubr
          68 53 hstem
          63 73 vstem
          -107 callsubr
          29 305 -46 callgsubr
          endchar
        </CharString>
        <CharString name="emdash">
          250 258 66 hstem
          812 324 rmoveto
          -733 -66 733 66 hlineto
          endchar
        </CharString>
        <CharString name="endash">
          -81 258 62 hstem
          489 320 rmoveto
          -420 -62 420 62 hlineto
          endchar
        </CharString>
        <CharString name="eng">
          -60 -172 67 126 52 callgsubr
          hstemhm
          82 72 163 174 -72 72 hintmask 11110100
          -76 callgsubr
          -329 vlineto
          hintmask 11111000
          -65 -15 -35 -87 -1 vhcurveto
          -67 vlineto
          117 57 53 110 hvcurveto
          334 vlineto
          116 -72 67 -126 vhcurveto
          endchar
        </CharString>
        <CharString name="eogonek">
          -86 -173 44 121 72 143 64 169 68 hstem
          63 73 155 68 vstem
          -2 callgsubr
          -227 8 -212 -53 -208 124 -43 104 29 27 2 4 25 hvcurveto
          -17 -11 -64 -43 -52 vvcurveto
          -60 40 -5 25 57 37 35 39 10 vhcurveto
          -32 hlineto
          -13 -9 -16 -17 -18 hhcurveto
          -14 -12 9 26 57 110 64 0 61 callgsubr
          -42 -56 -12 -73 hhcurveto
          -103 -66 callgsubr
          2 16 19 vvcurveto
          19 7 247 -38 callgsubr
          123 7 41 46 98 hhcurveto
          138 8 -145 -24 hvcurveto
          -292 hlineto
          endchar
        </CharString>
        <CharString name="equal">
          -3 186 70 85 69 hstem
          512 256 rmoveto
          -385 -70 385 70 hlineto
          154 vmoveto
          -385 -69 385 69 hlineto
          endchar
        </CharString>
        <CharString name="eth">
          -58 -8 68 300 67 181 68 10 -20 hstemhm
          58 72 310 72 hintmask 11011100
          416 597 rmoveto
          71 41 -26 48 -93 -52 rlineto
          hintmask 11101100
          35 -58 -62 7 -40 hhcurveto
          -22 -21 -2 -3 -19 hvcurveto
          -67 vlineto
          2 17 18 2 19 hhcurveto
          21 36 -2 -14 37 hvcurveto
          -83 -46 27 -48 112 63 41 -33 35 -54 9 -91 rlinecurve
          18 -24 -49 26 -77 hhcurveto
          -140 -87 -81 -129 -104 60 -121 167 151 76 105 209 148 -42 90 -54 53 hvcurveto
          -131 -537 rmoveto
          -144 -11 121 37 91 55 51 100 89 49 -39 -18 17 71 callgsubr
        </CharString>
        <CharString name="etilde">
          -6 callgsubr
          hstem
          63 73 vstem
          427 585 -100 callsubr
          -145 -77 rmoveto
          -104 callsubr
          -85 callgsubr
          endchar
        </CharString>
        <CharString name="exclam">
          -269 0 80 587 -20 hstem
          155 65 vstem
          148 hmoveto
          -75 callgsubr
          4 -13 callgsubr
          7 -499 rlineto
          58 hlineto
          7 499 rlineto
          -72 hlineto
          endchar
        </CharString>
        <CharString name="exclamdown">
          -279 -147 -21 588 79 hstem
          155 65 vstem
          228 499 rmoveto
          -80 -79 80 79 hlineto
          -4 -667 rmoveto
          -7 499 rlineto
          -58 hlineto
          -7 -499 rlineto
          72 hlineto
          endchar
        </CharString>
        <CharString name="f">
          -311 21 -21 433 66 144 66 hstemhm
          126 72 -72 209 hintmask 11101000
          299 643 rmoveto
          14 12 -2 -2 10 hvcurveto
          64 vlineto
          4 -14 -16 2 -18 hhcurveto
          -40 -121 0 -183 hvcurveto
          -27 -86 -66 86 -433 vlineto
          hintmask 11110000
          72 433 hlineto
          hintmask 11101000
          137 66 hlineto
          hintmask 11110000
          -137 28 hlineto
          116 55 0 46 vhcurveto
          endchar
        </CharString>
        <CharString name="fi">
          -54 21 -21 433 67 88 79 -24 66 hstemhm
          127 70 -70 210 95 80 hintmask 11101010
          508 hmoveto
          -44 callgsubr
          4 -13 callgsubr
          -80 -79 80 79 hlineto
          hintmask 11010110
          -211 -24 -1 callgsubr
          vlineto
          hintmask 11011010
          70 433 hlineto
          hintmask 11010110
          140 67 hlineto
          hintmask 11011010
          -140 27 hlineto
          116 58 0 46 vhcurveto
          endchar
        </CharString>
        <CharString name="five">
          -54 -8 70 282 72 180 71 hstem
          435 71 vstem
          121 -13 callgsubr
          -34 -308 45 -46 rlineto
          0 51 31 106 71 75 -15 -125 -61 -9 -81 -137 -98 -61 29 17 -27 vhcurveto
          -75 vlineto
          -22 41 61 -19 89 hhcurveto
          97 115 37 175 175 -115 37 -97 -54 -43 -8 -10 -33 hvcurveto
          19 198 rlineto
          281 71 -343 hlineto
          endchar
        </CharString>
        <CharString name="five.denominator">
          -322 -3 17 callsubr
          360 -87 callgsubr
        </CharString>
        <CharString name="five.inferior">
          -322 -154 38 151 39 96 39 hstem
          242 38 vstem
          73 209 rmoveto
          -18 -166 24 -25 rlineto
          0 27 17 57 38 41 -8 -67 -33 -5 -43 -74 -52 -33 15 9 -15 vhcurveto
          -40 vlineto
          -12 22 33 -10 48 hhcurveto
          52 62 20 94 94 -62 20 -52 -29 -23 -5 -5 -18 hvcurveto
          10 106 rlineto
          151 39 -184 hlineto
          endchar
        </CharString>
        <CharString name="five.numerator">
          -322 311 17 callsubr
          674 -87 callgsubr
        </CharString>
        <CharString name="five.superior">
          -322 459 17 callsubr
          822 -87 callgsubr
        </CharString>
        <CharString name="fiveeighths">
          164 38 callsubr
          102 38 -24 38 137 39 97 38 11 -20 hstemhm
          267 39 201 69 callgsubr
          hintmask 1011011011010000
          98 674 rmoveto
          -18 -166 24 -24 rlineto
          0 28 16 57 38 40 -8 -67 -33 -5 -43 -73 -53 -33 15 10 -14 vhcurveto
          -41 vlineto
          -11 22 33 -11 47 hhcurveto
          52 63 20 94 94 -63 20 -52 -29 -23 -4 -6 -17 hvcurveto
          10 107 rlineto
          151 38 -185 hlineto
          hintmask 0110110110110000
          507 11 -72 callgsubr
          90 -491 -19 callsubr
          hintmask 1011011011000100
          28 callgsubr
          hintmask 1010111010110000
          -80 callsubr
          hintmask 1011011011001000
          30 callsubr
          endchar
        </CharString>
        <CharString name="fl">
          -45 21 -21 433 67 143 66 hstem
          127 70 239 72 vstem
          508 hmoveto
          -72 689 72 -689 hlineto
          -207 643 -1 callgsubr
          70 433 140 67 -140 27 vlineto
          116 58 0 46 vhcurveto
          endchar
        </CharString>
        <CharString name="florin">
          -311 -122 66 489 66 126 66 hstemhm
          10 191 -70 70 -70 191 hintmask 11101000
          201 499 rmoveto
          10 vlineto
          116 57 0 46 vhcurveto
          hintmask 11100100
          19 callgsubr
          -9 -87 -66 87 -373 vlineto
          -116 -57 0 -46 vhcurveto
          hintmask 11110000
          16 callgsubr
          372 vlineto
          hintmask 11100100
          121 66 hlineto
          hintmask 11110000
          -121 hlineto
          endchar
        </CharString>
        <CharString name="four">
          -50 21 -21 200 67 400 -20 hstem
          362 72 vstem
          434 267 rmoveto
          400 -81 vlineto
          -315 -390 rlineto
          -77 324 -200 72 200 95 67 -95 vlineto
          -316 hmoveto
          244 297 rlineto
          -297 -244 vlineto
          endchar
        </CharString>
        <CharString name="four.denominator">
          -313 22 -21 108 -3 callsubr
          145 rmoveto
          215 -43 vlineto
          -170 -210 -82 callgsubr
          endchar
        </CharString>
        <CharString name="four.inferior">
          -313 -128 -21 107 -3 callsubr
          -6 rmoveto
          215 -43 vlineto
          -170 -210 rlineto
          -41 174 -107 39 107 51 36 -51 vlineto
          -170 hmoveto
          131 159 rlineto
          -159 -131 vlineto
          endchar
        </CharString>
        <CharString name="four.numerator">
          -313 336 -21 108 -3 callsubr
          459 rmoveto
          215 -43 vlineto
          -170 -210 -82 callgsubr
          endchar
        </CharString>
        <CharString name="four.superior">
          -313 484 -21 108 -3 callsubr
          607 rmoveto
          215 -43 vlineto
          -170 -210 -82 callgsubr
          endchar
        </CharString>
        <CharString name="fraction">
          -286 -1 -21 707 -20 hstem
          366 685 -72 callgsubr
          endchar
        </CharString>
        <CharString name="g">
          -16 callgsubr
          hstem
          60 72 266 72 vstem
          272 508 -91 callgsubr
          9 9 -32 vhcurveto
          -68 vlineto
          -9 36 48 -9 58 hhcurveto
          179 38 93 79 hvcurveto
          376 vlineto
          36 -14 117 -184 vhcurveto
          126 -409 rmoveto
          -15 -37 -39 -8 -41 hhcurveto
          -74 -75 21 155 170 80 20 60 84 42 -28 -56 hvcurveto
          -259 vlineto
          endchar
        </CharString>
        <CharString name="gbreve">
          -16 callgsubr
          37 10 callsubr
          60 72 43 -25 callgsubr
          13 72 hintmask 1110111010000000
          337 649 rmoveto
          hintmask 1111011010000000
          -21 callsubr
          hintmask 1110111010000000
          -40 -17 16 40 -37 callgsubr
          -66 40 -38 65 vhcurveto
          hintmask 1110110110000000
          66 39 38 66 60 callgsubr
          -141 -100 callgsubr
          endchar
        </CharString>
        <CharString name="gcaron">
          -16 callgsubr
          -66 242 hstemhm
          60 72 266 72 hintmask 11011100
          259 564 rmoveto
          41 hlineto
          -42 callsubr
          81 -120 rlineto
          hintmask 11101100
          13 -56 -100 callgsubr
          endchar
        </CharString>
        <CharString name="gcircumflex">
          -103 -193 68 0 134 0 67 366 66 56 callgsubr
          60 72 266 72 hintmask 01001111
          300 684 rmoveto
          -41 hlineto
          -81 -77 callgsubr
          -28 -176 -91 callgsubr
          8 10 -32 vhcurveto
          -68 vlineto
          hintmask 10110111
          -9 36 48 -9 58 hhcurveto
          179 38 93 79 hvcurveto
          376 vlineto
          36 -14 117 -184 vhcurveto
          126 -409 rmoveto
          -15 -37 -39 -8 -41 hhcurveto
          -74 -75 21 155 170 80 20 60 84 42 -28 -56 hvcurveto
          -259 vlineto
          endchar
        </CharString>
        <CharString name="gcommaaccent">
          -16 callgsubr
          200 -20 hstem
          60 72 266 72 vstem
          272 508 -100 callgsubr
          -150 465 rmoveto
          59 hlineto
          29 4 46 37 14 vhcurveto
          55 vlineto
          -44 -11 -56 -37 -96 vvcurveto
          endchar
        </CharString>
        <CharString name="gdotaccent">
          -16 callgsubr
          56 79 hstem
          60 72 104 80 82 72 vstem
          236 564 rmoveto
          80 79 -80 -79 hlineto
          36 -56 -100 callgsubr
          endchar
        </CharString>
        <CharString name="germandbls">
          -28 0 65 243 63 238 67 hstemhm
          88 72 137 228 -72 72 -39 72 hintmask 11110100
          434 344 rmoveto
          0 91 57 89 vvcurveto
          90 -61 96 -161 -161 -54 -112 -140 vhcurveto
          -424 72 420 vlineto
          146 58 43 85 84 66 -35 -84 vhcurveto
          hintmask 11111000
          -80 -65 -39 -91 vhcurveto
          -63 vlineto
          hintmask 11110010
          76 113 -27 -94 hvcurveto
          hintmask 11111000
          -88 -94 -34 -95 vhcurveto
          -65 vlineto
          hintmask 11110010
          149 112 67 113 113 -124 51 0 hvcurveto
          endchar
        </CharString>
        <CharString name="grave">
          -422 585 67 callsubr
          119 679 35 callgsubr
          -57 -67 callsubr
          endchar
        </CharString>
        <CharString name="greater">
          8 69 -21 442 -20 hstem
          543 303 rmoveto
          -411 187 rlineto
          -80 vlineto
          327 -141 -327 -142 rlineto
          -79 vlineto
          411 187 rlineto
          68 vlineto
          endchar
        </CharString>
        <CharString name="greaterequal">
          -73 145 57 381 -20 hstem
          108 145 rmoveto
          350 57 -350 -57 hlineto
          438 vmoveto
          -62 vlineto
          265 -110 -265 -111 rlineto
          -61 vlineto
          350 145 rlineto
          53 vlineto
          endchar
        </CharString>
        <CharString name="guillemotleft">
          -88 85 -21 381 -20 hstem
          297 445 rmoveto
          -35 callgsubr
          190 hmoveto
          -35 callgsubr
          endchar
        </CharString>
        <CharString name="guillemotright">
          -88 85 -21 381 -20 hstem
          257 445 rmoveto
          -24 callsubr
          -286 hmoveto
          -24 callsubr
          endchar
        </CharString>
        <CharString name="guilsinglleft">
          -294 85 -21 381 -20 hstem
          297 445 rmoveto
          -35 callgsubr
          endchar
        </CharString>
        <CharString name="guilsinglright">
          -262 85 -21 381 -20 hstem
          67 445 rmoveto
          -24 callsubr
          -96 hlineto
          endchar
        </CharString>
        <CharString name="h">
          -64 40 callsubr
          181 -20 hstem
          94 72 271 72 vstem
          317 508 -36 callsubr
        </CharString>
        <CharString name="hbar">
          -38 40 callsubr
          57 61 63 -20 hstem
          114 72 271 72 vstem
          337 5 callgsubr
          -60 -53 -16 -16 -38 hvcurveto
          89 131 61 -131 63 -72 -63 -68 -61 68 -565 72 406 vlineto
          14 34 50 16 58 hhcurveto
          88 41 -45 -95 hvcurveto
          -296 72 296 vlineto
          135 -70 77 -122 vhcurveto
          endchar
        </CharString>
        <CharString name="hcircumflex">
          -64 40 callsubr
          336 -20 hstem
          94 72 271 72 vstem
          151 844 rmoveto
          -42 hlineto
          -80 -120 -68 callgsubr
          -57 callsubr
          166 -336 -36 callsubr
        </CharString>
        <CharString name="hookcmb">
          -641 622 -21 52 50 0 44 hstemhm
          -228 48 hintmask 11010000
          -272 747 rmoveto
          -11 -10 -1 -2 53 callsubr
          -9 -17 -10 59 callgsubr
          33 24 vlineto
          37 7 16 21 26 vvcurveto
          hintmask 10110000
          53 -50 15 -42 vhcurveto
          endchar
        </CharString>
        <CharString name="horncmb">
          -641 620 -20 hstem
          -193 620 rmoveto
          -86 -55 31 -49 -64 -44 -42 5 -25 18 rlinecurve
          -40 vlineto
          27 -22 52 -2 78 50 rrcurveto
          0 84 53 0 vhcurveto
          -55 86 rlineto
          endchar
        </CharString>
        <CharString name="hungarumlaut">
          -271 564 115 hstem
          237 679 -54 callgsubr
        </CharString>
        <CharString name="hyphen">
          -177 263 70 hstem
          384 333 rmoveto
          -305 -70 305 70 hlineto
          endchar
        </CharString>
        <CharString name="i">
          -377 21 -21 588 79 hstem
          94 80 vstem
          170 hmoveto
          -44 callgsubr
          4 -13 callgsubr
          -80 -79 80 79 hlineto
          endchar
        </CharString>
        <CharString name="iacute">
          21 -21 499 180 hstem
          99 72 vstem
          171 hmoveto
          -44 callgsubr
          -4 679 -63 callgsubr
          endchar
        </CharString>
        <CharString name="ibreve">
          21 -21 545 10 callsubr
          30 48 -48 209 hintmask 10110000
          171 hmoveto
          -44 callgsubr
          20 649 rmoveto
          hintmask 11010000
          -39 -17 -17 -39 vhcurveto
          hintmask 10110000
          -40 -17 17 39 -86 callsubr
          hintmask 10101000
          65 39 39 65 -37 callgsubr
          endchar
        </CharString>
        <CharString name="icircumflex">
          21 -21 684 -20 hstem
          99 72 vstem
          171 hmoveto
          -44 callgsubr
          -16 22 callsubr
          46 20 callgsubr
        </CharString>
        <CharString name="idieresis">
          21 -21 564 79 hstem
          21 78 72 77 vstem
          171 hmoveto
          -44 callgsubr
          -150 564 -35 callsubr
        </CharString>
        <CharString name="idotbelow">
          -129 79 -79 129 499 168 -79 79 hstemhm
          95 79 hintmask 10101000
          174 -50 -85 callsubr
          hintmask 01101000
          -3 50 rmoveto
          -44 callgsubr
          4 -13 callgsubr
          -80 hlineto
          hintmask 10011000
          -79 80 79 vlineto
          endchar
        </CharString>
        <CharString name="igrave">
          21 -21 679 -20 hstem
          99 72 vstem
          99 hmoveto
          72 499 -72 -499 hlineto
          3 679 rmoveto
          -67 callgsubr
        </CharString>
        <CharString name="ihookabove">
          21 -21 499 117 0 50 0 43 hstemhm
          99 72 -16 48 hintmask 10100100
          111 709 rmoveto
          -11 -10 -1 -74 callgsubr
          33 24 vlineto
          37 6 16 21 26 vvcurveto
          hintmask 11011000
          54 -50 14 -42 vhcurveto
          60 -709 rmoveto
          -44 callgsubr
          endchar
        </CharString>
        <CharString name="imacron">
          21 -21 576 53 hstem
          99 72 vstem
          171 hmoveto
          -44 callgsubr
          -153 576 71 callsubr
        </CharString>
        <CharString name="infinity">
          115 220 45 215 45 hstem
          57 51 536 51 vstem
          553 525 rmoveto
          -81 -58 -63 -52 -38 hvcurveto
          52 -37 -59 63 -81 hhcurveto
          -57 -85 -41 -112 -112 85 -40 57 81 58 62 52 38 hvcurveto
          -52 38 58 -62 81 hhcurveto
          57 85 40 112 112 -85 41 -57 hvcurveto
          -350 -260 rmoveto
          -1 -94 1 106 106 94 2 1 63 51 -60 -48 32 hvcurveto
          -48 -32 -51 -59 -63 hhcurveto
          346 hmoveto
          -63 -50 59 48 -33 hvcurveto
          48 33 50 60 63 hhcurveto
          1 94 -2 -106 -106 -94 -1 -1 hvcurveto
          endchar
        </CharString>
        <CharString name="integral">
          -311 -122 66 681 66 hstemhm
          131 70 -70 191 hintmask 11100000
          201 509 rmoveto
          116 57 0 46 vhcurveto
          hintmask 11010000
          19 callgsubr
          -448 vlineto
          -116 -57 0 -46 vhcurveto
          hintmask 11100000
          16 callgsubr
          448 vlineto
          endchar
        </CharString>
        <CharString name="iogonek">
          -396 -173 44 717 79 hstem
          12 68 7 72 vstem
          83 -13 callgsubr
          -79 80 79 -80 vlineto
          23 -796 rmoveto
          -14 -12 9 27 46 79 48 0 hvcurveto
          498 -72 -498 27 callgsubr
          -13 -9 -15 -18 -19 hhcurveto
          endchar
        </CharString>
        <CharString name="itilde">
          21 -21 hstem
          99 72 vstem
          171 hmoveto
          -44 callgsubr
          105 3 callgsubr
          endchar
        </CharString>
        <CharString name="j">
          -390 -193 67 714 79 47 callsubr
          101 -13 callgsubr
          -79 80 79 -80 vlineto
          4 -168 rmoveto
          -524 vlineto
          -41 callsubr
          hlineto
          endchar
        </CharString>
        <CharString name="jcircumflex">
          -390 -193 67 810 -20 47 callsubr
          162 684 rmoveto
          -42 hlineto
          -80 -77 callgsubr
          -57 -709 rmoveto
          -41 callsubr
          -524 hlineto
          endchar
        </CharString>
        <CharString name="k">
          -92 21 -21 689 0 callsubr
          -98 hlineto
          -224 -245 rlineto
          435 -72 -689 72 152 vlineto
          62 67 191 -219 rlineto
          96 hlineto
          -240 270 rlineto
          endchar
        </CharString>
        <CharString name="kcommaaccent">
          -92 29 callgsubr
          689 0 callsubr
          -97 hlineto
          -225 -245 rlineto
          435 -72 -689 27 callsubr
          40 -319 23 callgsubr
          45 10 56 38 96 vvcurveto
          endchar
        </CharString>
        <CharString name="kgreenlandic">
          -92 21 -21 499 0 callsubr
          -97 hlineto
          -225 -245 rlineto
          245 -72 -499 27 callsubr
          endchar
        </CharString>
        <CharString name="l">
          21 -21 689 -20 hstem
          101 72 vstem
          173 hmoveto
          689 -72 -689 72 vlineto
          endchar
        </CharString>
        <CharString name="lacute">
          21 -21 689 150 hstem
          101 72 vstem
          169 839 rmoveto
          -57 -115 rlineto
          48 -11 callgsubr
          4 -839 rmoveto
          -72 689 72 -689 hlineto
          endchar
        </CharString>
        <CharString name="lcaron">
          21 -21 689 -20 hstemhm
          101 72 0 134 hintmask 11010000
          247 689 rmoveto
          -28 -3 -47 -37 -14 -38 callsubr
          56 38 95 vvcurveto
          hintmask 11100000
          -206 -689 rmoveto
          689 72 -689 vlineto
          endchar
        </CharString>
        <CharString name="lcommaaccent">
          -172 -21 144 49 689 -20 hstem
          101 72 vstem
          167 -49 23 callgsubr
          45 10 56 38 96 vvcurveto
          6 49 rmoveto
          689 -72 -689 vlineto
          endchar
        </CharString>
        <CharString name="ldot">
          21 -21 294 80 315 -20 hstem
          101 72 59 80 vstem
          232 294 rmoveto
          -75 callgsubr
          -59 -294 rmoveto
          689 -72 -689 vlineto
          endchar
        </CharString>
        <CharString name="less">
          19 69 -21 442 -20 hstem
          120 303 rmoveto
          -68 vlineto
          412 -187 rlineto
          79 vlineto
          -328 142 328 141 rlineto
          80 vlineto
          -412 -187 rlineto
          endchar
        </CharString>
        <CharString name="lessequal">
          -73 145 57 381 -20 hstem
          458 145 rmoveto
          -350 57 350 -57 hlineto
          438 vmoveto
          -350 -146 rlineto
          -53 vlineto
          350 -145 rlineto
          61 vlineto
          -266 111 266 110 rlineto
          62 vlineto
          endchar
        </CharString>
        <CharString name="logicalnot">
          -19 258 66 hstemhm
          459 66 vstemhm
          97 324 rmoveto
          -66 362 vlineto
          hintmask 11000000
          -100 66 166 -428 vlineto
          endchar
        </CharString>
        <CharString name="lozenge">
          -5 -15 -21 739 -20 hstem
          318 703 rmoveto
          -254 -370 254 -369 254 369 -254 370 rlineto
          -646 vmoveto
          -190 276 190 277 190 -277 -190 -276 rlineto
          endchar
        </CharString>
        <CharString name="lslash">
          21 -21 689 -20 hstemhm
          35 138 -72 72 -72 150 hintmask 11010000
          173 452 rmoveto
          237 -72 -286 vlineto
          hintmask 11100000
          -66 -44 rlineto
          -64 vlineto
          hintmask 11010000
          66 44 rlineto
          -339 72 388 vlineto
          hintmask 11001000
          78 52 rlineto
          64 vlineto
          hintmask 11100000
          -78 -52 rlineto
          endchar
        </CharString>
        <CharString name="m">
          250 40 callsubr
          hstem
          94 72 246 72 246 72 cntrmask 00111000
          611 5 callgsubr
          -82 -68 -26 -15 -35 hvcurveto
          26 -32 -45 15 -55 hhcurveto
          -96 -78 -35 -13 -26 hvcurveto
          -460 72 418 vlineto
          10 32 42 8 45 hhcurveto
          114 13 -63 -48 hvcurveto
          -325 72 325 vlineto
          33 -5 28 -11 25 vhcurveto
          11 33 49 14 56 hhcurveto
          111 13 -64 -47 hvcurveto
          -325 72 325 vlineto
          116 -70 67 -121 vhcurveto
          endchar
        </CharString>
        <CharString name="macron">
          -238 576 53 hstem
          86 576 -46 callgsubr
          endchar
        </CharString>
        <CharString name="mu">
          -32 -189 -21 202 72 435 -20 hstem
          99 72 264 72 vstem
          435 499 rmoveto
          -416 vlineto
          -10 -34 -45 -9 -52 hhcurveto
          -120 -13 63 48 hvcurveto
          324 -72 -709 72 242 vlineto
          0 49 -40 77 103 84 37 12 23 vhcurveto
          458 -72 vlineto
          endchar
        </CharString>
        <CharString name="multiply">
          -160 99 -21 356 -20 hstem
          344 78 rmoveto
          64 hlineto
          -133 178 133 178 rlineto
          -64 hlineto
          -102 -135 -101 135 rlineto
          -64 hlineto
          133 -178 -133 -178 rlineto
          64 hlineto
          101 135 102 -135 rlineto
          endchar
        </CharString>
        <CharString name="n">
          -52 callgsubr
          endchar
        </CharString>
        <CharString name="nacute">
          -60 40 callsubr
          -72 243 hstemhm
          82 72 265 72 hintmask 11011000
          -76 callgsubr
          -325 72 325 vlineto
          116 -72 67 -126 vhcurveto
          hintmask 10111000
          21 171 -70 callgsubr
        </CharString>
        <CharString name="napostrophe">
          -60 40 callsubr
          156 -20 hstemhm
          82 51 -51 72 265 72 hintmask 11110100
          293 5 callgsubr
          -103 -84 -37 -12 -24 hvcurveto
          -459 vlineto
          hintmask 11101100
          72 416 hlineto
          10 35 45 10 52 hhcurveto
          120 13 -8 callsubr
          hintmask 11110100
          -160 156 23 callgsubr
          44 10 57 38 96 vvcurveto
          endchar
        </CharString>
        <CharString name="ncaron">
          -60 40 callsubr
          -72 248 hstemhm
          82 72 265 72 hintmask 11011000
          -76 callgsubr
          -325 72 325 vlineto
          116 -72 67 -126 vhcurveto
          -32 56 rmoveto
          41 hlineto
          hintmask 10111000
          81 -4 callsubr
          -70 -46 70 -10 callgsubr
          81 -120 rlineto
          endchar
        </CharString>
        <CharString name="ncommaaccent">
          -60 -172 -21 214 -21 436 72 hstem
          82 72 265 72 vstem
          -76 callgsubr
          -325 72 325 vlineto
          116 -72 67 -126 vhcurveto
          30 -557 -95 callgsubr
          endchar
        </CharString>
        <CharString name="nine">
          -54 -8 68 181 67 300 68 hstem
          58 72 310 72 vstem
          285 241 rmoveto
          77 49 26 18 24 hvcurveto
          -210 -22 -156 -15 -57 hhcurveto
          -34 -31 5 7 -24 hvcurveto
          -68 vlineto
          -7 27 33 -5 37 hhcurveto
          91 213 36 334 208 -76 106 -151 -167 -60 -121 -104 -130 87 -80 140 hvcurveto
          367 vmoveto
          46 107 0 -243 2 hvcurveto
          -18 -17 -49 -39 -89 hhcurveto
          -100 -55 51 91 37 11 121 144 hvcurveto
          endchar
        </CharString>
        <CharString name="nine.denominator">
          -303 -3 1 callsubr
          131 -94 callsubr
        </CharString>
        <CharString name="nine.inferior">
          -303 -154 37 97 36 161 37 hstem
          49 39 166 39 vstem
          171 -20 rmoveto
          41 27 14 9 13 hvcurveto
          -112 -12 -84 -8 -31 hhcurveto
          -18 -16 3 3 -14 hvcurveto
          -36 vlineto
          -4 15 18 -3 20 hhcurveto
          49 114 20 179 112 -41 57 -81 -90 -32 -66 -55 -70 47 -43 75 hvcurveto
          197 vmoveto
          25 57 0 -131 1 hvcurveto
          -9 -9 -26 -21 -48 hhcurveto
          -54 -29 27 49 20 6 65 77 hvcurveto
          endchar
        </CharString>
        <CharString name="nine.numerator">
          -303 311 1 callsubr
          445 -94 callsubr
        </CharString>
        <CharString name="nine.superior">
          -303 459 1 callsubr
          593 -94 callsubr
        </CharString>
        <CharString name="notequal">
          -30 34 -21 125 60 94 60 125 -20 hstem
          498 292 rmoveto
          60 -101 vlineto
          55 98 -47 27 -70 -125 rlineto
          -222 -60 188 hlineto
          -53 -94 rlineto
          -135 -60 102 hlineto
          -55 -99 47 -26 70 125 rlineto
          221 60 -188 hlineto
          53 94 rlineto
          135 hlineto
          endchar
        </CharString>
        <CharString name="ntilde">
          -52 callgsubr
          134 77 -100 callsubr
          endchar
        </CharString>
        <CharString name="numbersign">
          -50 19 167 -60 60 159 60 -60 178 hstemhm
          hintmask 10010000
          415 523 rmoveto
          hintmask 10100000
          -21 -118 rlineto
          -132 hlineto
          hintmask 10010000
          20 118 rlineto
          -61 hlineto
          hintmask 10100000
          -20 -118 rlineto
          -102 -60 91 hlineto
          -27 -159 rlineto
          -92 hlineto
          hintmask 01100000
          -60 82 vlineto
          hintmask 10100000
          -19 -107 rlineto
          61 hlineto
          hintmask 01100000
          19 107 rlineto
          132 hlineto
          hintmask 10100000
          -18 -107 rlineto
          61 hlineto
          hintmask 01100000
          18 107 rlineto
          91 60 -81 hlineto
          28 159 rlineto
          82 60 -72 hlineto
          hintmask 10010000
          21 118 rlineto
          -61 hlineto
          -59 -337 rmoveto
          -132 hlineto
          27 159 rlineto
          133 hlineto
          -28 -159 rlineto
          endchar
        </CharString>
        <CharString name="o">
          -22 callsubr
          4 callsubr
          -97 callsubr
          endchar
        </CharString>
        <CharString name="oacute">
          -77 -40 callsubr
          -64 callgsubr
          -17 callgsubr
          49 58 114 113 49 -58 -134 -134 -49 -58 -113 hvcurveto
          hintmask 10111000
          32 621 -70 callgsubr
        </CharString>
        <CharString name="obreve">
          -77 -8 66 383 67 37 10 callsubr
          49 72 58 -25 callgsubr
          57 72 hintmask 11011101
          -64 callgsubr
          57 135 134 49 57 114 113 49 -57 -134 -135 -49 -57 -113 hvcurveto
          57 591 rmoveto
          hintmask 11101101
          -39 -18 -17 -39 vhcurveto
          hintmask 11011101
          -40 -17 17 39 -86 callsubr
          hintmask 11011011
          65 40 39 65 -37 callgsubr
          endchar
        </CharString>
        <CharString name="ocircumflex">
          -22 callsubr
          56 callgsubr
          -29 callsubr
          hintmask 11011100
          49 250 rmoveto
          -213 128 -45 107 107 127 45 213 213 -127 45 -107 -107 -128 -45 -213 vhcurveto
          72 hmoveto
          134 49 58 114 113 49 -58 -134 -134 -49 -58 -113 55 callsubr
          vhcurveto
          183 434 rmoveto
          -41 hlineto
          hintmask 10111100
          -81 -91 callsubr
          46 20 callgsubr
        </CharString>
        <CharString name="ocircumflexacute">
          -22 callsubr
          245 -20 4 callsubr
          -97 callsubr
          1 559 -86 callgsubr
          endchar
        </CharString>
        <CharString name="ocircumflexdotbelow">
          -77 -128 79 41 -15 callgsubr
          0 39 120 -20 hstemhm
          48 callgsubr
          cntrmask 00000111
          hintmask 11101111
          323 -49 -85 callsubr
          -274 299 -96 callsubr
          163 367 rmoveto
          hintmask 11011111
          -106 callsubr
          endchar
        </CharString>
        <CharString name="ocircumflexgrave">
          -22 callsubr
          245 -20 4 callsubr
          49 250 -96 callsubr
          161 367 rmoveto
          46 -99 callsubr
          -99 callgsubr
          -146 -30 callsubr
          endchar
        </CharString>
        <CharString name="ocircumflexhookabove">
          -22 callsubr
          39 131 50 44 hstemhm
          49 72 277 48 0 72 hintmask 11111010
          49 250 -96 callsubr
          163 367 -105 callgsubr
          70 155 rmoveto
          -11 -10 -2 -1 -10 59 callsubr
          8 2 callgsubr
          hintmask 11111100
          -54 callsubr
          34 24 vlineto
          36 6 16 22 -33 callsubr
          endchar
        </CharString>
        <CharString name="ocircumflextilde">
          -22 callsubr
          0 33 hstemhm
          -29 callsubr
          hintmask 10111000
          427 712 -100 callsubr
          -144 -101 -105 callgsubr
          -234 -361 rmoveto
          -34 callgsubr
          213 -128 45 -107 -107 -127 -45 -213 vhcurveto
          72 hmoveto
          hintmask 11011000
          -62 callsubr
          40 callgsubr
          vhcurveto
          endchar
        </CharString>
        <CharString name="odieresis">
          -22 callsubr
          56 79 hstem
          49 72 49 79 69 79 49 72 vstem
          49 250 rmoveto
          -213 128 -45 107 107 127 45 213 213 -127 45 -107 -107 -128 -45 -213 vhcurveto
          72 hmoveto
          134 49 58 114 113 49 -58 -134 -134 -49 -58 -113 55 callsubr
          vhcurveto
          49 314 -35 callsubr
        </CharString>
        <CharString name="odotbelow">
          -77 13 callgsubr
          -15 callgsubr
          hstem
          48 callgsubr
          cntrmask 00011100
          -97 callsubr
          40 -108 20 callsubr
        </CharString>
        <CharString name="oe">
          297 -8 72 143 64 171 66 hstem
          50 72 325 68 vstem
          662 5 callgsubr
          -100 -54 -41 -50 -30 hvcurveto
          72 -46 -78 19 -70 -42 callgsubr
          70 79 19 74 46 hvcurveto
          -74 45 78 -19 69 hhcurveto
          51 callsubr
          48 61 callgsubr
          -43 -56 -12 -72 hhcurveto
          -103 -66 callgsubr
          1 16 19 vvcurveto
          19 7 247 -226 vhcurveto
          -378 -450 rmoveto
          40 callgsubr
          -62 callsubr
          hvcurveto
          231 213 rmoveto
          123 7 42 46 98 hhcurveto
          137 9 -145 -24 hvcurveto
          -293 hlineto
          endchar
        </CharString>
        <CharString name="ogonek">
          -294 -173 44 -44 173 hstemhm
          92 68 hintmask 10100000
          186 -129 rmoveto
          -14 -12 8 27 hvcurveto
          hintmask 01100000
          46 79 48 0 vhcurveto
          -62 hlineto
          0 -85 -49 -60 vvcurveto
          -59 40 -5 25 57 37 34 40 10 vhcurveto
          -32 hlineto
          hintmask 10100000
          -13 -9 -15 -17 -19 hhcurveto
          endchar
        </CharString>
        <CharString name="ograve">
          -77 -40 callsubr
          49 250 rmoveto
          -213 128 -45 107 107 127 45 213 213 -127 45 -107 -107 -128 -45 -213 vhcurveto
          72 hmoveto
          134 49 58 114 113 49 -58 -134 -134 -49 -58 -113 55 callsubr
          vhcurveto
          hintmask 10111000
          130 429 rmoveto
          -67 callgsubr
        </CharString>
        <CharString name="ohookabove">
          -22 callsubr
          -66 174 50 44 hstemhm
          49 72 184 48 93 72 hintmask 11011110
          -97 callsubr
          -22 652 rmoveto
          -11 -11 4 callgsubr
          8 2 callgsubr
          30 18 -10 -17 hvcurveto
          hintmask 10111110
          -9 -10 -13 -28 -1 vhcurveto
          -52 33 24 vlineto
          37 6 16 22 -33 callsubr
          endchar
        </CharString>
        <CharString name="ohorn">
          26 -29 callgsubr
          15 -20 hstemhm
          -29 callsubr
          hintmask 10111000
          673 437 -58 callgsubr
          hintmask 11011000
          -104 callgsubr
          endchar
        </CharString>
        <CharString name="ohornacute">
          26 -40 callsubr
          673 437 -58 callgsubr
          -104 callgsubr
          hintmask 10111000
          107 621 rmoveto
          -74 hlineto
          -57 -115 rlineto
          48 hlineto
          83 -67 callsubr
          endchar
        </CharString>
        <CharString name="ohorndotbelow">
          26 13 callgsubr
          -15 callgsubr
          15 -20 hstemhm
          48 callgsubr
          cntrmask 00001110
          hintmask 11011110
          323 -50 -85 callsubr
          350 487 -58 callgsubr
          hintmask 11101110
          -104 callgsubr
          endchar
        </CharString>
        <CharString name="ohorngrave">
          26 -40 callsubr
          673 437 -58 callgsubr
          -104 callgsubr
          25 506 rmoveto
          hintmask 10111000
          -57 -67 callsubr
          -67 callgsubr
        </CharString>
        <CharString name="ohornhookabove">
          26 -29 callgsubr
          -66 174 50 43 hstemhm
          49 72 186 48 91 72 hintmask 10111110
          263 709 rmoveto
          -11 -10 -1 -74 callgsubr
          33 24 vlineto
          37 6 16 21 26 vvcurveto
          54 -50 14 -42 vhcurveto
          410 -272 -58 callgsubr
          hintmask 11011110
          -104 callgsubr
          endchar
        </CharString>
        <CharString name="ohorntilde">
          26 -29 callgsubr
          4 callsubr
          673 437 -58 callgsubr
          -104 callgsubr
          145 527 -19 callgsubr
          -216 94 118 rrcurveto
          endchar
        </CharString>
        <CharString name="ohungarumlaut">
          -22 callsubr
          56 115 4 callsubr
          -64 callgsubr
          -17 callgsubr
          49 58 114 113 49 -58 -134 -134 -49 -58 -113 hvcurveto
          80 621 -63 callgsubr
          -119 hmoveto
          -57 -115 rlineto
          47 hlineto
          84 -67 callsubr
          -74 hlineto
          endchar
        </CharString>
        <CharString name="omacron">
          -22 callsubr
          68 53 4 callsubr
          49 250 rmoveto
          -213 128 -45 107 107 127 45 213 213 -127 45 -107 -107 -128 -45 -213 vhcurveto
          72 hmoveto
          134 49 58 114 113 49 -58 -134 -134 -49 -58 -113 55 callsubr
          vhcurveto
          46 326 71 callsubr
        </CharString>
        <CharString name="one">
          -190 32 callgsubr
          hstemhm
          103 205 -72 72 hintmask 11100000
          226 -13 callgsubr
          -123 -78 rlineto
          -85 vlineto
          hintmask 11010000
          133 88 rlineto
          -592 72 667 -82 vlineto
          endchar
        </CharString>
        <CharString name="one.denominator">
          -407 22 -21 359 28 callsubr
          360 -14 callgsubr
        </CharString>
        <CharString name="one.inferior">
          -407 -128 -21 358 28 callsubr
          209 rmoveto
          -66 -42 rlineto
          -46 vlineto
          72 47 rlineto
          -317 38 358 -44 vlineto
          endchar
        </CharString>
        <CharString name="one.numerator">
          -407 336 -21 359 28 callsubr
          674 -14 callgsubr
        </CharString>
        <CharString name="one.superior">
          -401 484 -21 359 28 callsubr
          822 -14 callgsubr
        </CharString>
        <CharString name="oneeighth">
          65 38 callsubr
          116 38 311 37 callsubr
          245 39 -25 39 143 39 -25 25 -25 39 hintmask 1011101011000000
          595 194 -19 callsubr
          hintmask 1011101100010000
          0 -62 -21 -66 vvcurveto
          -52 33 -59 91 92 33 59 52 65 -61 22 0 vhcurveto
          hintmask 1011101011000000
          -135 76 rmoveto
          46 39 9 32 33 39 -9 -46 -38 -27 -23 -45 -45 -26 23 38 vhcurveto
          71 -238 rmoveto
          hintmask 1011101100100000
          -79 -6 57 17 43 30 24 55 56 30 -24 -43 -17 -6 -57 -80 hvcurveto
          -414 642 -39 callgsubr
          hintmask 0111011101000000
          392 11 -72 callgsubr
          endchar
        </CharString>
        <CharString name="onehalf">
          72 -1 -21 22 39 285 39 311 37 callsubr
          266 217 -39 39 hintmask 11110110
          117 674 -39 callgsubr
          371 -635 rmoveto
          65 53 92 89 81 vvcurveto
          49 -31 52 -89 -41 -33 -14 -13 -23 vhcurveto
          -43 vlineto
          13 18 33 18 43 hhcurveto
          hintmask 11101101
          70 14 -34 -28 -78 -120 -105 -61 -45 hvcurveto
          -34 225 39 -162 vlineto
          21 646 -72 callgsubr
          endchar
        </CharString>
        <CharString name="onequarter">
          59 -1 -21 43 -21 108 36 530 37 callsubr
          397 39 hintmask 11110110
          598 144 rmoveto
          214 -44 vlineto
          -169 -209 -82 callgsubr
          -311 530 -39 callgsubr
          hintmask 11101110
          392 11 -72 callgsubr
          endchar
        </CharString>
        <CharString name="onethird">
          70 -4 38 -35 -21 194 37 115 39 311 37 callsubr
          266 210 -39 39 -21 39 hintmask 1011101010000000
          591 194 rmoveto
          0 47 18 54 vvcurveto
          47 -32 50 -88 -32 -28 -8 -10 -21 vhcurveto
          -39 vlineto
          9 19 26 9 32 hhcurveto
          55 30 -20 -38 -37 -29 -20 -52 hvcurveto
          -40 -37 39 hlineto
          hintmask 1011101001000000
          65 35 -24 -45 -44 -35 -25 -63 hvcurveto
          hintmask 1011101100000000
          -38 -31 12 12 -22 hvcurveto
          -40 vlineto
          -12 25 32 -10 39 hhcurveto
          hintmask 1011101001000000
          97 35 55 51 66 -65 26 0 hvcurveto
          -474 480 -39 callgsubr
          hintmask 0111011100000000
          392 11 -72 callgsubr
          endchar
        </CharString>
        <CharString name="ordfeminine">
          -247 389 37 107 36 67 39 hstem
          76 40 150 40 vstem
          186 675 rmoveto
          -34 -28 -6 -8 -20 hvcurveto
          -39 vlineto
          4 10 30 10 40 hhcurveto
          51 31 -17 -53 0 -20 3 -25 -25 -120 1 -92 -78 80 -11 36 36 78 11 76 hvcurveto
          84 vlineto
          76 -41 39 -79 vhcurveto
          80 -198 rmoveto
          -43 -39 -8 -35 -34 -42 8 45 50 67 4 34 31 18 -3 0 vhcurveto
          0 0 -11 -42 vvcurveto
          endchar
        </CharString>
        <CharString name="ordmasculine">
          -224 389 37 213 37 hstem
          76 40 180 40 vstem
          206 676 rmoveto
          -59 -71 -25 -119 -118 71 -25 59 60 70 25 118 119 -70 25 -60 hvcurveto
          -250 vmoveto
          -63 -27 32 74 75 27 32 63 64 26 -32 -75 -74 -26 -32 -64 hvcurveto
          endchar
        </CharString>
        <CharString name="oslash">
          -67 -8 66 -37 -21 442 66 hstemhm
          52 -3 callgsubr
          hintmask 01111000
          458 499 rmoveto
          -26 -31 rlineto
          31 -44 -52 9 -49 15 callgsubr
          hintmask 10111000
          34 callgsubr
          -28 39 hvcurveto
          61 -56 callgsubr
        </CharString>
        <CharString name="oslashacute">
          -77 -8 66 -37 -21 442 66 -66 237 hstemhm
          -29 callsubr
          hintmask 10011100
          316 0 callgsubr
          139 -180 rmoveto
          -26 -31 rlineto
          hintmask 01101100
          31 -44 -53 9 -48 15 callgsubr
          hintmask 10101100
          34 callgsubr
          -29 39 hvcurveto
          62 -56 callgsubr
        </CharString>
        <CharString name="otilde">
          -22 callsubr
          4 callsubr
          49 250 -96 callsubr
          307 335 -19 callgsubr
          -216 94 118 rrcurveto
          endchar
        </CharString>
        <CharString name="p">
          -75 -164 -21 177 67 383 66 13 callsubr
          280 72 vstem
          287 5 callgsubr
          -190 -15 -121 -37 hvcurveto
          -535 72 196 vlineto
          -12 40 41 -7 43 hhcurveto
          104 124 43 208 230 -137 35 -82 hvcurveto
          -9 -449 rmoveto
          -43 -42 8 17 -39 hvcurveto
          269 vlineto
          59 45 30 88 63 84 -21 -177 -130 -46 -55 -110 vhcurveto
          endchar
        </CharString>
        <CharString name="paragraph">
          -196 29 callsubr
          301 66 vstem
          268 -13 callgsubr
          -149 -81 -73 -132 -133 81 -73 149 hvcurveto
          33 -256 66 667 -99 hlineto
          endchar
        </CharString>
        <CharString name="parenleft">
          -296 -92 -21 837 -20 hstem
          93 72 vstem
          204 724 rmoveto
          -39 -70 -72 -156 -193 vvcurveto
          -192 72 -156 39 -70 vhcurveto
          76 hlineto
          -24 39 -91 168 211 vvcurveto
          212 91 167 24 40 vhcurveto
          -76 hlineto
          endchar
        </CharString>
        <CharString name="parenright">
          -296 -92 -21 837 -20 hstem
          181 72 vstem
          142 724 rmoveto
          -77 hlineto
          24 -39 92 -168 -211 vvcurveto
          -212 -92 -167 -24 -40 vhcurveto
          77 hlineto
          39 70 72 156 193 vvcurveto
          192 -72 156 -39 70 vhcurveto
          endchar
        </CharString>
        <CharString name="partialdiff">
          -58 -8 68 299 67 182 68 hstem
          65 72 310 72 vstem
          214 676 rmoveto
          -23 -21 -3 -3 -20 hvcurveto
          -67 vlineto
          3 17 19 2 21 hhcurveto
          57 155 -15 -210 23 hvcurveto
          17 -24 -50 26 -76 hhcurveto
          -140 -87 -80 -129 -104 59 -121 168 150 77 105 208 335 -213 36 -92 hvcurveto
          78 -616 rmoveto
          -144 -11 121 37 91 55 50 100 89 48 -39 -17 18 71 callgsubr
        </CharString>
        <CharString name="percent">
          227 18 callsubr
          149 55 179 55 hintmask 1010101111000000
          -48 callgsubr
          hintmask 0110011111000000
          460 52 callsubr
          hintmask 1001101111000000
          397 3 rmoveto
          65 79 32 153 153 -79 32 -65 -66 -79 -32 -153 -153 79 -32 66 hvcurveto
          318 vmoveto
          44 45 -16 -117 -117 -45 -16 -44 -45 24 callsubr
          16 45 hvcurveto
          endchar
        </CharString>
        <CharString name="period">
          -313 0 80 hstem
          127 80 vstem
          127 hmoveto
          -75 callgsubr
          endchar
        </CharString>
        <CharString name="periodcentered">
          -330 232 80 hstem
          116 79 vstem
          195 312 rmoveto
          -79 -80 79 80 hlineto
          endchar
        </CharString>
        <CharString name="perthousand">
          499 18 callsubr
          91 55 178 55 48 55 178 55 hintmask 1010101111110000
          -48 callgsubr
          hintmask 0110011111110000
          431 52 callsubr
          hintmask 1001101111110000
          367 3 -43 callgsubr
          336 -318 -43 callgsubr
          endchar
        </CharString>
        <CharString name="pi">
          -19 21 -21 433 66 hstem
          142 66 206 66 vstem
          589 499 rmoveto
          -556 -66 109 -433 66 433 206 -433 66 433 109 66 hlineto
          endchar
        </CharString>
        <CharString name="plus">
          -90 143 -21 147 60 148 -20 hstem
          245 60 vstem
          452 329 rmoveto
          -147 148 -60 -148 46 callgsubr
          hlineto
          endchar
        </CharString>
        <CharString name="plusminus">
          -56 33 60 199 60 147 -20 hstem
          261 60 vstem
          321 352 rmoveto
          147 -60 -147 -148 -60 148 -148 60 148 147 60 -147 vlineto
          -208 -319 rmoveto
          355 60 -355 -60 hlineto
          endchar
        </CharString>
        <CharString name="product">
          78 -111 -21 583 66 hstem
          167 66 253 66 vstem
          686 517 rmoveto
          -653 -66 134 -583 66 583 253 -583 66 583 134 66 hlineto
          endchar
        </CharString>
        <CharString name="published">
          137 -8 36 259 41 160 40 112 35 hstem
          48 36 189 42 189 43 149 36 vstem
          390 -8 rmoveto
          189 153 153 189 188 -153 153 -189 -188 -154 -153 -188 -189 154 -153 188 hvcurveto
          648 vmoveto
          169 137 -138 -168 -169 -137 -137 -169 -168 -138 137 169 168 138 138 168 hvcurveto
          22 -112 rmoveto
          -139 -389 42 148 97 hlineto
          87 48 43 78 78 -48 42 -87 hvcurveto
          -6 -200 rmoveto
          -91 160 91 hlineto
          87 11 -43 -37 -37 -11 -43 -87 hvcurveto
          endchar
        </CharString>
        <CharString name="q">
          -79 -164 -21 177 67 383 66 hstem
          56 72 279 72 vstem
          56 243 rmoveto
          -208 124 -43 104 43 41 6 13 39 vhcurveto
          -196 72 535 vlineto
          37 -14 121 -190 -82 -137 -35 -230 vhcurveto
          72 1 rmoveto
          177 84 21 63 88 44 -30 -59 vhcurveto
          -269 vlineto
          -17 -39 -41 -8 -43 hhcurveto
          -110 -46 55 130 hvcurveto
          endchar
        </CharString>
        <CharString name="question">
          -156 0 80 523 72 hstem
          195 72 78 72 vstem
          191 hmoveto
          -75 callgsubr
          28 675 rmoveto
          -84 -55 -38 0 hvcurveto
          -78 vlineto
          16 21 48 28 65 hhcurveto
          87 44 -40 -73 hvcurveto
          -102 -150 13 -184 vvcurveto
          -49 72 44 vlineto
          155 150 -23 146 vvcurveto
          162 -134 23 -64 vhcurveto
          endchar
        </CharString>
        <CharString name="questiondown">
          -158 -176 72 524 79 hstem
          72 72 78 72 vstem
          298 499 rmoveto
          -80 -79 80 79 hlineto
          -28 -675 rmoveto
          84 56 38 0 hvcurveto
          78 vlineto
          -15 -22 -48 -29 -64 hhcurveto
          -88 -44 41 73 hvcurveto
          101 150 -12 183 vvcurveto
          50 -72 -45 vlineto
          -155 -150 23 -145 vvcurveto
          -162 134 -24 64 vhcurveto
          endchar
        </CharString>
        <CharString name="quotedbl">
          -260 475 201 hstem
          215 676 rmoveto
          17 -201 rlineto
          48 hlineto
          18 201 rlineto
          -83 hlineto
          -116 -201 34 callsubr
        </CharString>
        <CharString name="quotedblbase">
          -205 -112 196 31 callgsubr
          136 hmoveto
          -50 callsubr
          endchar
        </CharString>
        <CharString name="quotedblleft">
          -250 480 196 hstem
          265 676 rmoveto
          -82 hlineto
          84 -196 rlineto
          72 hlineto
          -210 196 rmoveto
          -82 hlineto
          84 -196 rlineto
          72 hlineto
          endchar
        </CharString>
        <CharString name="quotedblright">
          -254 480 196 hstem
          121 676 rmoveto
          -50 callsubr
          136 hmoveto
          -50 callsubr
          endchar
        </CharString>
        <CharString name="quoteleft">
          -386 501 -21 196 -20 hstem
          129 676 rmoveto
          -82 hlineto
          84 -196 rlineto
          72 hlineto
          -74 196 rlineto
          endchar
        </CharString>
        <CharString name="quoteright">
          -386 501 -21 196 -20 hstem
          121 676 rmoveto
          -50 callsubr
          endchar
        </CharString>
        <CharString name="quotesinglbase">
          -341 -91 -21 196 -20 31 callgsubr
          endchar
        </CharString>
        <CharString name="quotesingle">
          -392 496 -21 201 -20 hstem
          99 475 34 callsubr
        </CharString>
        <CharString name="r">
          -298 21 -21 438 69 57 callgsubr
          hintmask 11010000
          323 438 rmoveto
          35 callsubr
          -459 vlineto
          hintmask 11100000
          72 412 hlineto
          hintmask 11010000
          41 11 60 13 69 2 rrcurveto
          endchar
        </CharString>
        <CharString name="racute">
          -298 21 -21 430 69 -69 249 57 callgsubr
          hintmask 10101000
          231 679 -63 callgsubr
          92 -249 rmoveto
          hintmask 11001000
          35 callsubr
          -451 vlineto
          hintmask 10110000
          72 404 hlineto
          hintmask 11001000
          40 11 61 13 69 2 rrcurveto
          endchar
        </CharString>
        <CharString name="radical">
          78 29 callsubr
          630 -13 callgsubr
          -219 -562 -109 279 rlineto
          -208 -54 158 hlineto
          129 -330 rlineto
          60 hlineto
          260 667 rlineto
          -71 hlineto
          endchar
        </CharString>
        <CharString name="rcaron">
          -298 21 -21 430 69 185 -20 57 callgsubr
          hintmask 11101000
          174 564 rmoveto
          41 hlineto
          81 33 callsubr
          149 -134 -9 callgsubr
        </CharString>
        <CharString name="rcommaaccent">
          -298 29 callgsubr
          430 69 57 callgsubr
          hintmask 11101000
          146 -49 -95 callgsubr
          177 479 -9 callgsubr
        </CharString>
        <CharString name="registered">
          137 -8 35 111 198 -40 40 152 40 112 35 hstemhm
          48 36 182 42 191 43 154 36 hintmask 1101111110000000
          452 302 rmoveto
          18 4 72 19 90 vvcurveto
          75 -49 38 -84 vhcurveto
          -143 -390 42 hlineto
          hintmask 1011111110000000
          158 100 vlineto
          hintmask 1101111110000000
          101 -158 rlineto
          50 hlineto
          -107 164 rlineto
          -45 34 rmoveto
          -99 152 99 hlineto
          82 10 -40 -36 -36 -10 -40 -82 hvcurveto
          -17 -344 -65 callsubr
          endchar
        </CharString>
        <CharString name="ring">
          -232 535 33 97 34 hstem
          116 36 89 37 vstem
          197 699 rmoveto
          -53 -28 -29 -53 -53 28 -29 53 52 29 29 53 53 -29 29 -52 hvcurveto
          -131 vmoveto
          -33 -12 14 35 35 12 13 33 32 12 -13 -35 -35 -12 -14 -32 hvcurveto
          endchar
        </CharString>
        <CharString name="s">
          37 callgsubr
          hstemhm
          49 72 196 37 -37 72 hintmask 11110000
          121 363 rmoveto
          63 62 13 51 52 41 -18 -16 27 vhcurveto
          72 vlineto
          16 -33 -43 15 -52 hhcurveto
          -130 -47 -75 -70 hvcurveto
          -175 268 77 -134 vvcurveto
          -57 -62 -12 -52 -52 -52 17 27 -44 vhcurveto
          -76 vlineto
          -20 36 49 -18 66 hhcurveto
          hintmask 11101000
          114 69 52 87 hvcurveto
          196 -268 -62 98 vvcurveto
          endchar
        </CharString>
        <CharString name="sacute">
          37 callgsubr
          -69 240 9 callsubr
          hintmask 10111000
          239 0 callgsubr
          -118 -316 44 callgsubr
          hintmask 11010100
          -89 callgsubr
          -20 36 50 -18 66 hhcurveto
          -25 callsubr
        </CharString>
        <CharString name="scaron">
          37 callgsubr
          -69 245 9 callsubr
          hintmask 10111000
          200 564 rmoveto
          42 hlineto
          80 33 callsubr
          -79 -201 44 callgsubr
          hintmask 11010100
          -89 callgsubr
          -20 36 50 -18 66 hhcurveto
          -25 callsubr
        </CharString>
        <CharString name="scedilla">
          -215 -119 181 -69 69 377 69 9 callsubr
          hintmask 10110100
          388 131 rmoveto
          196 -267 -62 98 vvcurveto
          63 61 13 51 vhcurveto
          hintmask 01111000
          67 callgsubr
          hvcurveto
          72 vlineto
          -89 callgsubr
          32 -18 42 -16 55 -3 rrcurveto
          hintmask 10110100
          -80 -112 rlineto
          76 hlineto
          62 113 rlineto
          93 9 54 50 78 vvcurveto
          endchar
        </CharString>
        <CharString name="scircumflex">
          37 callgsubr
          0 56 120 -20 9 callsubr
          hintmask 10111100
          242 684 rmoveto
          -42 hlineto
          -80 -120 -68 callgsubr
          -57 callsubr
          -121 -321 rmoveto
          hintmask 11011100
          53 callgsubr
          -89 callgsubr
          -20 36 50 -18 66 hhcurveto
          hintmask 11011010
          -25 callsubr
        </CharString>
        <CharString name="scommaaccent">
          -215 -172 -21 185 70 377 69 9 callsubr
          hintmask 11111000
          258 -49 rmoveto
          -59 hlineto
          -29 -4 -46 -37 63 callsubr
          37 96 vvcurveto
          -137 412 44 callgsubr
          -89 callgsubr
          -20 36 50 -18 66 hhcurveto
          hintmask 11110100
          -25 callsubr
        </CharString>
        <CharString name="section">
          -98 -8 69 548 67 hstemhm
          58 72 -21 72 188 72 -21 72 hintmask 11010100
          492 307 rmoveto
          107 -96 31 -90 21 vhcurveto
          -125 29 0 21 18 vvcurveto
          65 84 10 50 60 47 -17 -17 32 vhcurveto
          71 vlineto
          16 -37 -49 14 -59 hhcurveto
          -148 -52 -74 -68 -34 18 -22 22 -14 hvcurveto
          hintmask 11101000
          -44 -14 -47 -30 -65 vvcurveto
          -89 82 -26 99 -23 vhcurveto
          121 -28 9 -27 -34 vvcurveto
          -61 -97 -6 -42 -80 -54 21 20 -32 vhcurveto
          -74 vlineto
          -20 40 57 -16 74 hhcurveto
          129 77 51 85 36 -16 25 -19 16 hvcurveto
          hintmask 11100100
          44 14 42 35 53 vvcurveto
          -129 -56 rmoveto
          -32 17 -38 11 -37 8 rrcurveto
          -126 29 0 21 18 vvcurveto
          41 36 17 38 7 vhcurveto
          26 -9 29 -8 31 -7 rrcurveto
          120 -28 10 -28 -33 vvcurveto
          -31 -26 -16 -31 -9 vhcurveto
          endchar
        </CharString>
        <CharString name="semicolon">
          -224 -91 -21 480 80 hstem
          172 80 vstem
          172 368 rmoveto
          -75 callgsubr
          -1 -284 rmoveto
          -50 callsubr
          endchar
        </CharString>
        <CharString name="servicemark">
          68 330 36 270 36 hstem
          57 36 148 36 53 36 236 36 vstem
          93 579 rmoveto
          37 29 20 54 34 27 -11 -10 19 vhcurveto
          37 vlineto
          11 -22 -28 9 -34 hhcurveto
          -85 -30 -48 -45 hvcurveto
          -112 184 49 -97 vvcurveto
          -44 -46 -9 -39 -45 -31 13 14 -20 vhcurveto
          -39 vlineto
          -13 24 32 -11 42 hhcurveto
          75 44 33 56 hvcurveto
          127 -184 -40 73 vvcurveto
          506 88 rmoveto
          -115 -170 -115 170 6 callgsubr
        </CharString>
        <CharString name="seven">
          -67 21 -21 595 72 hstem
          70 -13 callgsubr
          -72 377 vlineto
          -291 -595 rlineto
          80 hlineto
          289 600 rlineto
          67 -455 vlineto
          endchar
        </CharString>
        <CharString name="seven.denominator">
          -326 22 -21 320 39 hstem
          40 360 -37 callsubr
        </CharString>
        <CharString name="seven.inferior">
          -326 -128 -21 319 39 hstem
          40 209 rmoveto
          -39 202 vlineto
          -156 -319 rlineto
          43 hlineto
          155 322 rlineto
          36 -244 vlineto
          endchar
        </CharString>
        <CharString name="seven.numerator">
          -326 336 -21 320 39 hstem
          40 674 -37 callsubr
        </CharString>
        <CharString name="seven.superior">
          -324 484 -21 320 39 hstem
          40 822 -37 callsubr
        </CharString>
        <CharString name="seveneighths">
          104 38 callsubr
          116 38 273 38 11 -20 hstemhm
          442 38 -25 39 144 38 -25 25 -25 39 hintmask 1011101010000000
          54 674 rmoveto
          -38 202 vlineto
          -156 -320 rlineto
          43 hlineto
          156 322 rlineto
          36 -245 vlineto
          hintmask 0111010110000000
          485 11 rmoveto
          -436 -707 rlineto
          47 hlineto
          436 707 rlineto
          -47 hlineto
          91 -491 rmoveto
          0 46 18 58 vvcurveto
          45 -29 48 -81 -82 -29 -48 -45 -56 48 -20 0 vhcurveto
          hintmask 1011101000100000
          0 -61 -21 -66 vvcurveto
          -52 32 -59 92 91 33 59 52 65 -60 22 0 vhcurveto
          hintmask 1011100110000000
          -80 callsubr
          hintmask 1011101001000000
          -79 -7 57 17 43 31 63 callgsubr
          endchar
        </CharString>
        <CharString name="six">
          -58 -8 68 300 67 181 68 hstem
          65 72 310 72 vstem
          292 427 rmoveto
          -77 -49 -27 -17 -25 hvcurveto
          210 23 156 15 57 hhcurveto
          34 30 -6 -6 25 hvcurveto
          67 vlineto
          8 -27 -33 5 -37 hhcurveto
          -91 -213 -36 -335 -208 76 -105 151 167 60 121 104 129 -87 81 -140 hvcurveto
          -367 vmoveto
          -46 -107 0 243 -2 hvcurveto
          17 17 49 40 89 hhcurveto
          100 55 -51 -91 -37 -11 -121 -144 hvcurveto
          endchar
        </CharString>
        <CharString name="six.denominator">
          -303 -3 1 callgsubr
          230 rmoveto
          -41 -27 -14 -9 -30 callgsubr
          37 vlineto
          3 -15 -18 3 -19 hhcurveto
          -50 -114 -19 -180 -111 41 -57 81 90 32 65 56 69 -47 43 -75 hvcurveto
          -197 vmoveto
          -25 -57 0 131 -1 hvcurveto
          9 9 26 21 48 hhcurveto
          54 29 -27 -49 -20 -6 -65 -77 hvcurveto
          endchar
        </CharString>
        <CharString name="six.inferior">
          -303 -154 37 161 36 97 37 hstem
          56 39 166 39 vstem
          178 80 rmoveto
          -41 -27 -14 -10 -30 callgsubr
          37 vlineto
          4 -15 -18 3 -19 hhcurveto
          -50 -114 -20 -179 -112 41 -57 81 90 32 65 56 70 -47 43 -75 hvcurveto
          -197 vmoveto
          -25 -57 0 130 -1 hvcurveto
          10 9 26 21 48 hhcurveto
          54 29 -27 -49 -20 -6 -65 -77 hvcurveto
          endchar
        </CharString>
        <CharString name="six.numerator">
          -303 311 1 callgsubr
          544 -71 callsubr
        </CharString>
        <CharString name="six.superior">
          -305 459 1 callgsubr
          692 -71 callsubr
        </CharString>
        <CharString name="slash">
          -237 -77 -21 854 -20 hstem
          353 756 rmoveto
          -367 -854 rlineto
          65 hlineto
          368 854 rlineto
          -66 hlineto
          endchar
        </CharString>
        <CharString name="space">
          -303 endchar
        </CharString>
        <CharString name="sterling">
          -86 281 66 260 69 hstem
          137 72 vstem
          355 607 rmoveto
          62 50 -22 -21 33 hvcurveto
          73 vlineto
          21 -39 -51 18 -61 hhcurveto
          -157 -55 -96 -90 hvcurveto
          -143 -86 -66 86 -201 vlineto
          -29 -2 -28 -6 -29 -14 rrcurveto
          -73 vlineto
          150 73 150 -126 149 57 rrcurveto
          73 vlineto
          -97 -37 -97 40 -97 13 rrcurveto
          203 201 66 -201 146 vlineto
          52 25 62 121 vhcurveto
          endchar
        </CharString>
        <CharString name="summation">
          -79 0 65 536 66 hstem
          496 -13 callgsubr
          -419 -72 hlineto
          167 -262 -167 -261 rlineto
          -72 419 65 -345 vlineto
          172 268 -172 268 rlineto
          345 66 hlineto
          endchar
        </CharString>
        <CharString name="t">
          -296 -8 68 373 66 141 -51 callsubr
          -15 -18 -5 -24 hhcurveto
          hintmask 11110000
          -53 -19 19 50 hvcurveto
          304 vlineto
          endchar
        </CharString>
        <CharString name="tbar">
          -296 -8 68 184 60 129 24 callgsubr
          hintmask 11110100
          312 433 rmoveto
          66 vlineto
          hintmask 11111000
          -16 callsubr
          -129 -74 -60 74 -111 hlineto
          -128 94 -13 41 vhcurveto
          hintmask 11110100
          7 callgsubr
          hintmask 11111000
          -53 -19 19 50 hvcurveto
          115 114 60 -114 129 vlineto
          hintmask 11110100
          129 hlineto
          endchar
        </CharString>
        <CharString name="tcaron">
          -296 -8 68 373 66 213 -51 callsubr
          -14 -19 -5 -24 hhcurveto
          hintmask 11110000
          -53 -19 19 50 hvcurveto
          304 vlineto
          179 279 -95 callgsubr
          endchar
        </CharString>
        <CharString name="tcommaaccent">
          -72 callsubr
          304 vlineto
          72 -482 -95 callgsubr
          endchar
        </CharString>
        <CharString name="thorn">
          -86 -163 -21 182 67 369 44 callsubr
          501 rmoveto
          -42 -42 -7 -13 -39 hvcurveto
          202 -72 -867 72 202 vlineto
          -13 39 42 -7 42 hhcurveto
          104 125 44 207 208 -125 44 -104 hvcurveto
          -436 vmoveto
          -43 -41 8 17 -39 hvcurveto
          319 vlineto
          17 39 41 8 43 hhcurveto
          110 47 -55 -130 -129 -47 -55 -110 hvcurveto
          endchar
        </CharString>
        <CharString name="three">
          -58 -8 72 256 69 215 72 hstemhm
          399 72 -38 72 hintmask 11110000
          385 361 rmoveto
          0 86 35 100 vvcurveto
          87 -58 93 -164 -61 -51 -15 -19 -40 vhcurveto
          -73 vlineto
          18 36 48 17 60 hhcurveto
          102 56 -38 -70 -69 -53 -38 -97 hvcurveto
          -76 -69 73 hlineto
          hintmask 11101000
          121 66 -45 -83 -83 -65 -45 -118 -71 -57 21 23 -41 hvcurveto
          -74 vlineto
          -23 45 60 -19 73 hhcurveto
          181 65 102 96 123 -120 48 0 hvcurveto
          endchar
        </CharString>
        <CharString name="three.denominator">
          -318 -3 38 138 37 116 38 16 callsubr
          195 -27 callsubr
          9 32 hhcurveto
          55 30 -21 -82 callsubr
        </CharString>
        <CharString name="three.inferior">
          -318 -154 39 137 37 116 38 hstemhm
          62 201 -39 39 -20 38 hintmask 11110000
          217 44 rmoveto
          0 46 19 54 vvcurveto
          47 -31 49 -88 -33 -27 -8 -10 -22 vhcurveto
          -39 vlineto
          10 19 26 9 32 hhcurveto
          hintmask 11101000
          69 callsubr
          -37 39 hlineto
          hintmask 11100100
          65 36 -24 -44 -45 -35 -24 -64 -38 -31 11 12 -22 hvcurveto
          -39 vlineto
          -13 25 32 -10 39 hhcurveto
          97 35 55 52 66 -64 25 0 hvcurveto
          endchar
        </CharString>
        <CharString name="three.numerator">
          -318 311 38 138 37 115 39 16 callsubr
          509 -27 callsubr
          8 32 hhcurveto
          55 30 -20 -82 callsubr
        </CharString>
        <CharString name="three.superior">
          -318 459 38 138 37 115 39 16 callsubr
          657 -27 callsubr
          8 32 hhcurveto
          55 30 -20 -82 callsubr
        </CharString>
        <CharString name="threeeighths">
          164 38 callsubr
          102 39 -25 38 125 42 callgsubr
          213 69 callgsubr
          hintmask 1010111010001100
          695 194 -19 callsubr
          hintmask 1011011010010001
          28 callgsubr
          hintmask 1010111010001100
          -80 callsubr
          hintmask 1011011010010010
          30 callsubr
          -401 477 12 callgsubr
          hintmask 1011011001010100
          46 callsubr
          hintmask 0111010100110100
          -10 callsubr
          376 176 rmoveto
          -436 -707 rlineto
          47 hlineto
          436 707 rlineto
          -47 hlineto
          endchar
        </CharString>
        <CharString name="threequarters">
          167 -1 -21 43 -21 108 36 167 39 138 42 callgsubr
          373 39 hintmask 1111110100100000
          230 509 12 callgsubr
          hintmask 1111110010100000
          46 callsubr
          hintmask 1111101001100000
          -10 callsubr
          476 -365 rmoveto
          214 -44 vlineto
          -169 -209 -82 callgsubr
          81 541 -72 callgsubr
          endchar
        </CharString>
        <CharString name="tilde">
          -134 386 585 -100 callsubr
          endchar
        </CharString>
        <CharString name="trademark">
          116 355 -21 298 35 hstem
          167 36 169 36 236 36 vstem
          49 -13 callgsubr
          -35 118 -298 36 298 118 35 -272 vlineto
          592 hmoveto
          -115 -169 -115 169 6 callgsubr
        </CharString>
        <CharString name="two">
          -60 0 72 532 72 hstem
          416 72 vstem
          196 72 rmoveto
          121 98 171 167 151 vvcurveto
          91 -59 97 -164 -77 -61 -25 -26 -43 vhcurveto
          -79 vlineto
          24 34 61 34 80 hhcurveto
          130 27 -63 -53 -146 -225 -195 -114 -84 hvcurveto
          -63 421 72 -302 vlineto
          endchar
        </CharString>
        <CharString name="two.denominator">
          -313 1 6 callsubr
          40 -79 callgsubr
        </CharString>
        <CharString name="two.inferior">
          -313 -149 38 286 38 hstemhm
          57 217 -39 39 hintmask 11100000
          117 -111 rmoveto
          65 53 92 90 81 vvcurveto
          48 -32 52 -88 -41 -33 -13 -14 -23 vhcurveto
          -42 vlineto
          13 18 33 18 43 hhcurveto
          hintmask 11010000
          69 15 -34 -28 -79 -121 -105 -61 -45 hvcurveto
          -33 226 38 -162 vlineto
          endchar
        </CharString>
        <CharString name="two.numerator">
          -313 315 6 callsubr
          354 -79 callgsubr
        </CharString>
        <CharString name="two.superior">
          -313 463 6 callsubr
          502 -79 callgsubr
        </CharString>
        <CharString name="u">
          -54 -8 67 440 -20 13 callsubr
          274 72 vstem
          -103 callgsubr
          endchar
        </CharString>
        <CharString name="uacute">
          -54 -8 67 620 -20 13 callsubr
          274 72 vstem
          -103 callgsubr
          -107 180 rmoveto
          -57 -5 callgsubr
          -73 hlineto
          endchar
        </CharString>
        <CharString name="ubreve">
          -54 -8 67 486 10 callsubr
          82 72 32 -25 callgsubr
          32 72 hintmask 10111010
          -103 callgsubr
          -80 150 rmoveto
          hintmask 11011010
          -21 callsubr
          hintmask 10111010
          -40 -17 16 40 -86 callsubr
          hintmask 10110110
          -73 callgsubr
          endchar
        </CharString>
        <CharString name="ucaron">
          -54 -8 67 625 -20 13 callsubr
          274 72 vstem
          -103 callgsubr
          -158 65 rmoveto
          41 hlineto
          81 -14 callsubr
        </CharString>
        <CharString name="ucircumflex">
          -54 -8 67 625 -20 13 callsubr
          274 72 vstem
          -103 callgsubr
          -117 185 rmoveto
          -41 hlineto
          -80 -13 callsubr
          -81 120 rlineto
          endchar
        </CharString>
        <CharString name="udieresis">
          -54 -8 67 505 79 13 callsubr
          23 80 68 80 23 72 vstem
          -103 callgsubr
          -251 65 7 callsubr
          endchar
        </CharString>
        <CharString name="udotbelow">
          -54 -128 79 40 67 441 -20 13 callsubr
          98 79 97 72 vstem
          331 -49 -85 callsubr
          97 548 -11 callsubr
          -43 -47 -94 -93 -44 47 101 vhcurveto
          293 -72 -290 vlineto
          -138 76 -80 133 133 76 80 138 vhcurveto
          290 -72 vlineto
          endchar
        </CharString>
        <CharString name="ugrave">
          -54 -8 67 620 -20 13 callsubr
          274 72 vstem
          -103 callgsubr
          -167 180 rmoveto
          -67 callgsubr
        </CharString>
        <CharString name="uhookabove">
          -54 42 callsubr
          428 499 -11 callsubr
          -43 -47 -94 -93 -44 47 101 vhcurveto
          293 -72 -290 vlineto
          -138 76 -80 133 133 76 80 138 vhcurveto
          290 -72 vlineto
          -157 211 -28 callsubr
          endchar
        </CharString>
        <CharString name="uhorn">
          49 -9 67 476 -20 13 callsubr
          274 72 vstem
          641 534 -60 callgsubr
        </CharString>
        <CharString name="uhornacute">
          49 -9 67 620 -20 13 callsubr
          274 72 vstem
          641 534 -102 callsubr
          -247 144 rmoveto
          -73 hlineto
          -57 -5 callgsubr
          endchar
        </CharString>
        <CharString name="uhorndotbelow">
          49 -128 79 40 67 476 -20 13 callsubr
          98 79 97 72 vstem
          641 534 -102 callsubr
          -310 -583 20 callsubr
        </CharString>
        <CharString name="uhorngrave">
          49 -9 67 620 -20 13 callsubr
          274 72 vstem
          641 534 -102 callsubr
          -323 29 rmoveto
          -57 -67 callsubr
          -67 callgsubr
        </CharString>
        <CharString name="uhornhookabove">
          49 42 callsubr
          271 710 -28 callsubr
          370 -176 -60 callgsubr
        </CharString>
        <CharString name="uhorntilde">
          49 -24 callgsubr
          206 -51 -60 callgsubr
        </CharString>
        <CharString name="uhungarumlaut">
          -54 -8 67 505 115 13 callsubr
          274 72 vstem
          -103 callgsubr
          -47 180 -54 callgsubr
        </CharString>
        <CharString name="umacron">
          -54 -8 67 517 53 13 callsubr
          274 72 vstem
          -103 callgsubr
          -254 77 -46 callgsubr
          endchar
        </CharString>
</ttFont>
